<?xml version="1.0" encoding="utf-8" standalone="no"?>
<!DOCTYPE svg PUBLIC "-//W3C//DTD SVG 1.1//EN"
  "http://www.w3.org/Graphics/SVG/1.1/DTD/svg11.dtd">
<!-- Created with matplotlib (https://matplotlib.org/) -->
<svg height="345.6pt" version="1.1" viewBox="0 0 460.8 345.6" width="460.8pt" xmlns="http://www.w3.org/2000/svg" xmlns:xlink="http://www.w3.org/1999/xlink">
 <defs>
  <style type="text/css">
*{stroke-linecap:butt;stroke-linejoin:round;}
  </style>
 </defs>
 <g id="figure_1">
  <g id="patch_1">
   <path d="M 0 345.6 
L 460.8 345.6 
L 460.8 0 
L 0 0 
z
" style="fill:#ffffff;"/>
  </g>
  <g id="axes_1">
   <g id="patch_2">
    <path d="M 57.6 162.432 
L 414.72 162.432 
L 414.72 41.472 
L 57.6 41.472 
z
" style="fill:#eaeaf2;"/>
   </g>
   <g id="matplotlib.axis_1">
    <g id="xtick_1">
     <g id="line2d_1">
      <path clip-path="url(#p517df78575)" d="M 73.832727 162.432 
L 73.832727 41.472 
" style="fill:none;stroke:#ffffff;stroke-linecap:round;stroke-width:0.8;"/>
     </g>
     <g id="line2d_2"/>
    </g>
    <g id="xtick_2">
     <g id="line2d_3">
      <path clip-path="url(#p517df78575)" d="M 121.929697 162.432 
L 121.929697 41.472 
" style="fill:none;stroke:#ffffff;stroke-linecap:round;stroke-width:0.8;"/>
     </g>
     <g id="line2d_4"/>
    </g>
    <g id="xtick_3">
     <g id="line2d_5">
      <path clip-path="url(#p517df78575)" d="M 170.026667 162.432 
L 170.026667 41.472 
" style="fill:none;stroke:#ffffff;stroke-linecap:round;stroke-width:0.8;"/>
     </g>
     <g id="line2d_6"/>
    </g>
    <g id="xtick_4">
     <g id="line2d_7">
      <path clip-path="url(#p517df78575)" d="M 218.123636 162.432 
L 218.123636 41.472 
" style="fill:none;stroke:#ffffff;stroke-linecap:round;stroke-width:0.8;"/>
     </g>
     <g id="line2d_8"/>
    </g>
    <g id="xtick_5">
     <g id="line2d_9">
      <path clip-path="url(#p517df78575)" d="M 266.220606 162.432 
L 266.220606 41.472 
" style="fill:none;stroke:#ffffff;stroke-linecap:round;stroke-width:0.8;"/>
     </g>
     <g id="line2d_10"/>
    </g>
    <g id="xtick_6">
     <g id="line2d_11">
      <path clip-path="url(#p517df78575)" d="M 314.317576 162.432 
L 314.317576 41.472 
" style="fill:none;stroke:#ffffff;stroke-linecap:round;stroke-width:0.8;"/>
     </g>
     <g id="line2d_12"/>
    </g>
    <g id="xtick_7">
     <g id="line2d_13">
      <path clip-path="url(#p517df78575)" d="M 362.414545 162.432 
L 362.414545 41.472 
" style="fill:none;stroke:#ffffff;stroke-linecap:round;stroke-width:0.8;"/>
     </g>
     <g id="line2d_14"/>
    </g>
    <g id="xtick_8">
     <g id="line2d_15">
      <path clip-path="url(#p517df78575)" d="M 410.511515 162.432 
L 410.511515 41.472 
" style="fill:none;stroke:#ffffff;stroke-linecap:round;stroke-width:0.8;"/>
     </g>
     <g id="line2d_16"/>
    </g>
   </g>
   <g id="matplotlib.axis_2">
    <g id="ytick_1">
     <g id="line2d_17">
      <path clip-path="url(#p517df78575)" d="M 57.6 156.76121 
L 414.72 156.76121 
" style="fill:none;stroke:#ffffff;stroke-linecap:round;stroke-width:0.8;"/>
     </g>
     <g id="line2d_18"/>
     <g id="text_1">
      <!-- 0 -->
      <defs>
       <path d="M 4.15625 35.296875 
Q 4.15625 48 6.765625 55.734375 
Q 9.375 63.484375 14.515625 67.671875 
Q 19.671875 71.875 27.484375 71.875 
Q 33.25 71.875 37.59375 69.546875 
Q 41.9375 67.234375 44.765625 62.859375 
Q 47.609375 58.5 49.21875 52.21875 
Q 50.828125 45.953125 50.828125 35.296875 
Q 50.828125 22.703125 48.234375 14.96875 
Q 45.65625 7.234375 40.5 3 
Q 35.359375 -1.21875 27.484375 -1.21875 
Q 17.140625 -1.21875 11.234375 6.203125 
Q 4.15625 15.140625 4.15625 35.296875 
z
M 13.1875 35.296875 
Q 13.1875 17.671875 17.3125 11.828125 
Q 21.4375 6 27.484375 6 
Q 33.546875 6 37.671875 11.859375 
Q 41.796875 17.71875 41.796875 35.296875 
Q 41.796875 52.984375 37.671875 58.78125 
Q 33.546875 64.59375 27.390625 64.59375 
Q 21.34375 64.59375 17.71875 59.46875 
Q 13.1875 52.9375 13.1875 35.296875 
z
" id="ArialMT-48"/>
      </defs>
      <g style="fill:#262626;" transform="translate(48.539062 160.340116)scale(0.1 -0.1)">
       <use xlink:href="#ArialMT-48"/>
      </g>
     </g>
    </g>
    <g id="ytick_2">
     <g id="line2d_19">
      <path clip-path="url(#p517df78575)" d="M 57.6 122.017214 
L 414.72 122.017214 
" style="fill:none;stroke:#ffffff;stroke-linecap:round;stroke-width:0.8;"/>
     </g>
     <g id="line2d_20"/>
     <g id="text_2">
      <!-- 200 -->
      <defs>
       <path d="M 50.34375 8.453125 
L 50.34375 0 
L 3.03125 0 
Q 2.9375 3.171875 4.046875 6.109375 
Q 5.859375 10.9375 9.828125 15.625 
Q 13.8125 20.3125 21.34375 26.46875 
Q 33.015625 36.03125 37.109375 41.625 
Q 41.21875 47.21875 41.21875 52.203125 
Q 41.21875 57.421875 37.46875 61 
Q 33.734375 64.59375 27.734375 64.59375 
Q 21.390625 64.59375 17.578125 60.78125 
Q 13.765625 56.984375 13.71875 50.25 
L 4.6875 51.171875 
Q 5.609375 61.28125 11.65625 66.578125 
Q 17.71875 71.875 27.9375 71.875 
Q 38.234375 71.875 44.234375 66.15625 
Q 50.25 60.453125 50.25 52 
Q 50.25 47.703125 48.484375 43.546875 
Q 46.734375 39.40625 42.65625 34.8125 
Q 38.578125 30.21875 29.109375 22.21875 
Q 21.1875 15.578125 18.9375 13.203125 
Q 16.703125 10.84375 15.234375 8.453125 
z
" id="ArialMT-50"/>
      </defs>
      <g style="fill:#262626;" transform="translate(37.417187 125.59612)scale(0.1 -0.1)">
       <use xlink:href="#ArialMT-50"/>
       <use x="55.615234" xlink:href="#ArialMT-48"/>
       <use x="111.230469" xlink:href="#ArialMT-48"/>
      </g>
     </g>
    </g>
    <g id="ytick_3">
     <g id="line2d_21">
      <path clip-path="url(#p517df78575)" d="M 57.6 87.273217 
L 414.72 87.273217 
" style="fill:none;stroke:#ffffff;stroke-linecap:round;stroke-width:0.8;"/>
     </g>
     <g id="line2d_22"/>
     <g id="text_3">
      <!-- 400 -->
      <defs>
       <path d="M 32.328125 0 
L 32.328125 17.140625 
L 1.265625 17.140625 
L 1.265625 25.203125 
L 33.9375 71.578125 
L 41.109375 71.578125 
L 41.109375 25.203125 
L 50.78125 25.203125 
L 50.78125 17.140625 
L 41.109375 17.140625 
L 41.109375 0 
z
M 32.328125 25.203125 
L 32.328125 57.46875 
L 9.90625 25.203125 
z
" id="ArialMT-52"/>
      </defs>
      <g style="fill:#262626;" transform="translate(37.417187 90.852124)scale(0.1 -0.1)">
       <use xlink:href="#ArialMT-52"/>
       <use x="55.615234" xlink:href="#ArialMT-48"/>
       <use x="111.230469" xlink:href="#ArialMT-48"/>
      </g>
     </g>
    </g>
    <g id="ytick_4">
     <g id="line2d_23">
      <path clip-path="url(#p517df78575)" d="M 57.6 52.529221 
L 414.72 52.529221 
" style="fill:none;stroke:#ffffff;stroke-linecap:round;stroke-width:0.8;"/>
     </g>
     <g id="line2d_24"/>
     <g id="text_4">
      <!-- 600 -->
      <defs>
       <path d="M 49.75 54.046875 
L 41.015625 53.375 
Q 39.84375 58.546875 37.703125 60.890625 
Q 34.125 64.65625 28.90625 64.65625 
Q 24.703125 64.65625 21.53125 62.3125 
Q 17.390625 59.28125 14.984375 53.46875 
Q 12.59375 47.65625 12.5 36.921875 
Q 15.671875 41.75 20.265625 44.09375 
Q 24.859375 46.4375 29.890625 46.4375 
Q 38.671875 46.4375 44.84375 39.96875 
Q 51.03125 33.5 51.03125 23.25 
Q 51.03125 16.5 48.125 10.71875 
Q 45.21875 4.9375 40.140625 1.859375 
Q 35.0625 -1.21875 28.609375 -1.21875 
Q 17.625 -1.21875 10.6875 6.859375 
Q 3.765625 14.9375 3.765625 33.5 
Q 3.765625 54.25 11.421875 63.671875 
Q 18.109375 71.875 29.4375 71.875 
Q 37.890625 71.875 43.28125 67.140625 
Q 48.6875 62.40625 49.75 54.046875 
z
M 13.875 23.1875 
Q 13.875 18.65625 15.796875 14.5 
Q 17.71875 10.359375 21.1875 8.171875 
Q 24.65625 6 28.46875 6 
Q 34.03125 6 38.03125 10.484375 
Q 42.046875 14.984375 42.046875 22.703125 
Q 42.046875 30.125 38.078125 34.390625 
Q 34.125 38.671875 28.125 38.671875 
Q 22.171875 38.671875 18.015625 34.390625 
Q 13.875 30.125 13.875 23.1875 
z
" id="ArialMT-54"/>
      </defs>
      <g style="fill:#262626;" transform="translate(37.417187 56.108127)scale(0.1 -0.1)">
       <use xlink:href="#ArialMT-54"/>
       <use x="55.615234" xlink:href="#ArialMT-48"/>
       <use x="111.230469" xlink:href="#ArialMT-48"/>
      </g>
     </g>
    </g>
   </g>
   <g id="line2d_25">
    <path clip-path="url(#p517df78575)" d="M 73.832727 156.76121 
L 73.95297 156.568224 
L 74.890861 156.30775 
L 75.492073 155.919199 
L 75.973042 155.32849 
L 76.213527 154.871195 
L 76.33377 156.774338 
L 78.498133 156.906501 
L 78.618376 156.933818 
L 78.738618 156.744652 
L 80.806788 156.588254 
L 81.023224 156.54544 
L 81.143467 156.752347 
L 85.640533 156.877257 
L 85.832921 156.899014 
L 85.953164 156.773171 
L 90.642618 156.765279 
L 90.762861 156.580371 
L 92.301964 156.31909 
L 93.047467 156.05277 
L 93.071515 156.58156 
L 93.167709 156.574315 
L 94.995394 156.323808 
L 95.452315 156.201047 
L 95.476364 156.401635 
L 95.572558 156.388609 
L 97.231903 156.047455 
L 97.857164 155.834191 
L 97.881212 156.21921 
L 97.977406 156.204561 
L 99.877236 155.798504 
L 100.262012 155.680488 
L 100.286061 156.197165 
L 100.382255 156.188574 
L 102.666861 155.93352 
L 102.787103 154.880883 
L 103.652848 154.074285 
L 104.4224 153.051398 
L 105.071709 151.87586 
L 105.095758 153.273802 
L 105.191952 153.163129 
L 106.081745 151.951652 
L 106.923442 150.42154 
L 107.476558 149.154207 
L 107.500606 152.928534 
L 107.5968 152.856501 
L 108.895418 151.736824 
L 109.881406 150.671855 
L 109.905455 151.865742 
L 110.001648 151.790155 
L 111.444558 150.504356 
L 112.286255 149.604601 
L 112.310303 151.646893 
L 112.406497 151.592974 
L 114.402521 150.340571 
L 114.691103 150.136556 
L 114.715152 150.267852 
L 114.811345 150.201758 
L 116.711176 148.753445 
L 117.095952 148.424162 
L 117.12 149.256435 
L 117.216194 149.191108 
L 119.284364 147.647805 
L 119.5008 147.469883 
L 119.524848 147.737555 
L 119.621042 147.663585 
L 121.689212 145.926072 
L 121.905648 145.726907 
L 121.929697 146.74676 
L 122.025891 146.67829 
L 124.310497 144.919588 
L 124.334545 146.055944 
L 124.430739 145.995255 
L 126.715345 144.461479 
L 126.739394 145.404195 
L 126.835588 145.349056 
L 129.120194 143.970458 
L 129.144242 144.844047 
L 129.240436 144.793965 
L 131.525042 143.55255 
L 131.549091 143.925168 
L 131.645285 143.874907 
L 136.334739 141.370696 
L 136.358788 141.74051 
L 136.454982 141.687009 
L 138.739588 140.369847 
L 138.763636 140.851829 
L 138.85983 140.799177 
L 141.144436 139.507066 
L 141.168485 140.327794 
L 141.264679 140.279365 
L 143.549285 139.097011 
L 143.573333 139.97502 
L 143.669527 139.931555 
L 145.954133 138.876188 
L 145.978182 139.786237 
L 146.074376 139.748063 
L 148.358982 138.826048 
L 148.38303 139.371662 
L 148.479224 139.336209 
L 150.76383 138.482554 
L 150.787879 138.971684 
L 150.884073 138.938458 
L 153.168679 138.140314 
L 153.192727 138.639435 
L 153.288921 138.608433 
L 155.573527 137.865332 
L 155.597576 138.363572 
L 155.69377 138.33475 
L 157.978376 137.645313 
L 158.002424 138.040551 
L 158.098618 138.01324 
L 160.383224 137.36086 
L 160.407273 137.567092 
L 160.503467 137.540441 
L 162.788073 136.904299 
L 162.812121 137.058741 
L 162.908315 137.032528 
L 172.407467 134.527198 
L 172.527709 134.533855 
L 179.0208 132.626907 
L 179.622012 132.454599 
L 179.742255 132.13312 
L 182.026861 131.447351 
L 182.147103 131.288258 
L 184.431709 130.583067 
L 184.551952 130.402347 
L 187.942788 129.212246 
L 189.241406 128.786958 
L 189.361648 128.523128 
L 191.646255 127.746166 
L 191.766497 127.554491 
L 194.051103 126.752796 
L 194.171345 126.500631 
L 196.455952 125.667869 
L 196.576194 125.432136 
L 198.8608 124.568842 
L 198.981042 124.261162 
L 201.265648 123.35867 
L 201.385891 123.09601 
L 205.281745 121.388155 
L 210.885042 118.915431 
L 211.101479 118.794795 
L 225.314133 112.44519 
L 225.338182 112.64963 
L 225.434376 112.603998 
L 227.718982 111.511327 
L 227.74303 111.839624 
L 227.839224 111.794445 
L 230.12383 110.713048 
L 230.147879 111.102535 
L 230.244073 111.058008 
L 232.528679 109.992697 
L 232.552727 110.32486 
L 232.648921 110.280852 
L 234.933527 109.228373 
L 234.957576 109.508365 
L 235.05377 109.464727 
L 237.338376 108.421423 
L 237.362424 108.647267 
L 237.458618 108.603814 
L 239.743224 107.56516 
L 239.767273 107.813982 
L 239.863467 107.770796 
L 242.148073 106.738791 
L 242.172121 107.018892 
L 242.268315 106.976101 
L 244.552921 105.953845 
L 244.57697 106.254665 
L 244.673164 106.212345 
L 246.95777 105.201633 
L 246.981818 105.538284 
L 247.078012 105.496542 
L 249.362618 104.499975 
L 249.386667 104.864965 
L 249.482861 104.823891 
L 251.767467 103.843564 
L 251.791515 104.272673 
L 251.887709 104.232423 
L 254.172315 103.272128 
L 254.196364 103.638547 
L 254.292558 103.598969 
L 256.577164 102.65497 
L 256.601212 102.984967 
L 256.697406 102.945944 
L 258.982012 102.015443 
L 259.006061 102.403638 
L 259.102255 102.365312 
L 261.386861 101.451672 
L 261.410909 101.855814 
L 261.507103 101.818256 
L 263.791709 100.923199 
L 263.815758 101.364204 
L 263.911952 101.32753 
L 266.196558 100.453815 
L 266.220606 100.846774 
L 266.3168 100.810847 
L 268.601406 99.955152 
L 268.625455 100.400018 
L 268.721648 100.364979 
L 271.006255 99.530691 
L 271.030303 99.95507 
L 271.126497 99.920876 
L 273.411103 99.106953 
L 273.435152 99.44759 
L 273.531345 99.414051 
L 275.815952 98.615864 
L 275.84 98.960425 
L 275.936194 98.927542 
L 278.2208 98.145156 
L 278.244848 98.525173 
L 278.341042 98.493035 
L 280.625648 97.72856 
L 280.649697 98.099077 
L 280.745891 98.067659 
L 283.030497 97.320501 
L 283.054545 97.721917 
L 283.150739 97.691288 
L 285.435345 96.96306 
L 285.459394 97.407801 
L 285.555588 97.378037 
L 287.840194 96.67055 
L 287.864242 97.088824 
L 287.960436 97.059844 
L 290.245042 96.371133 
L 290.269091 96.821965 
L 290.365285 96.793812 
L 292.649891 96.124925 
L 292.673939 96.589216 
L 292.770133 96.561901 
L 295.054739 95.913067 
L 295.078788 96.418603 
L 295.174982 96.392194 
L 297.459588 95.765025 
L 297.483636 96.243289 
L 297.57983 96.217739 
L 299.864436 95.611119 
L 299.888485 96.147095 
L 299.984679 96.122501 
L 302.269285 95.538724 
L 302.293333 96.059038 
L 302.389527 96.035357 
L 304.674133 95.473417 
L 304.698182 95.984027 
L 304.794376 95.961239 
L 307.078982 95.420583 
L 307.10303 95.873433 
L 307.199224 95.85142 
L 309.48383 95.329282 
L 309.507879 95.825316 
L 309.604073 95.80415 
L 311.888679 95.302187 
L 311.912727 95.686021 
L 312.008921 95.665505 
L 314.293527 95.179073 
L 314.317576 95.463843 
L 314.41377 95.443817 
L 316.698376 94.969036 
L 316.722424 95.217682 
L 316.818618 95.198076 
L 319.103224 94.733309 
L 319.127273 94.899273 
L 319.223467 94.879975 
L 321.508073 94.422529 
L 321.532121 94.544429 
L 321.628315 94.525373 
L 323.912921 94.073701 
L 323.93697 94.200823 
L 324.033164 94.182017 
L 326.31777 93.736259 
L 326.341818 93.870984 
L 326.438012 93.852431 
L 328.722618 93.412715 
L 328.746667 93.558945 
L 328.842861 93.540658 
L 331.127467 93.107271 
L 331.151515 93.236924 
L 331.247709 93.218883 
L 335.937164 92.437932 
L 336.105503 92.427713 
L 340.746861 91.470207 
L 340.867103 91.326382 
L 343.151709 90.903563 
L 343.271952 90.766192 
L 345.556558 90.342231 
L 345.6768 90.081506 
L 347.961406 89.653272 
L 348.081648 89.349349 
L 350.366255 88.915631 
L 350.486497 88.589687 
L 352.771103 88.149729 
L 352.891345 87.767258 
L 355.175952 87.319292 
L 355.296194 86.908941 
L 357.5808 86.452371 
L 357.701042 85.971602 
L 359.985648 85.504562 
L 360.105891 84.983336 
L 362.390497 84.504488 
L 362.510739 83.999806 
L 364.795345 83.509568 
L 364.915588 82.980894 
L 367.200194 82.478941 
L 367.320436 81.827454 
L 369.605042 81.310415 
L 369.725285 80.599012 
L 372.009891 80.065253 
L 372.130133 79.307248 
L 374.414739 78.755357 
L 374.534982 77.996953 
L 376.819588 77.42648 
L 376.93983 76.642154 
L 379.224436 76.051948 
L 379.344679 75.238501 
L 381.629285 74.62791 
L 381.749527 73.759518 
L 384.034133 73.127273 
L 384.154376 72.218693 
L 386.438982 71.563716 
L 386.559224 70.540903 
L 388.84383 69.859601 
L 388.964073 68.876385 
L 391.248679 68.169839 
L 391.368921 67.226383 
L 393.653527 66.495493 
L 393.77377 65.460424 
L 396.058376 64.701245 
L 396.178618 63.76309 
L 398.463224 62.978024 
L 398.487273 61.946926 
L 398.487273 61.946926 
" style="fill:none;stroke:#4c72b0;stroke-linecap:round;stroke-width:2;"/>
   </g>
   <g id="line2d_26">
    <defs>
     <path d="M 0 -3 
L -0.673542 -0.927051 
L -2.85317 -0.927051 
L -1.089814 0.354102 
L -1.763356 2.427051 
L -0 1.145898 
L 1.763356 2.427051 
L 1.089814 0.354102 
L 2.85317 -0.927051 
L 0.673542 -0.927051 
z
" id="m519f01393e" style="stroke:#55a868;stroke-linejoin:bevel;"/>
    </defs>
    <g clip-path="url(#p517df78575)">
     <use style="fill:#55a868;stroke:#55a868;stroke-linejoin:bevel;" x="76.237576" xlink:href="#m519f01393e" y="156.76121"/>
     <use style="fill:#55a868;stroke:#55a868;stroke-linejoin:bevel;" x="78.642424" xlink:href="#m519f01393e" y="156.76121"/>
     <use style="fill:#55a868;stroke:#55a868;stroke-linejoin:bevel;" x="81.047273" xlink:href="#m519f01393e" y="156.76121"/>
     <use style="fill:#55a868;stroke:#55a868;stroke-linejoin:bevel;" x="83.452121" xlink:href="#m519f01393e" y="156.76121"/>
     <use style="fill:#55a868;stroke:#55a868;stroke-linejoin:bevel;" x="85.85697" xlink:href="#m519f01393e" y="156.76121"/>
     <use style="fill:#55a868;stroke:#55a868;stroke-linejoin:bevel;" x="88.261818" xlink:href="#m519f01393e" y="156.76121"/>
     <use style="fill:#55a868;stroke:#55a868;stroke-linejoin:bevel;" x="90.666667" xlink:href="#m519f01393e" y="156.58749"/>
     <use style="fill:#55a868;stroke:#55a868;stroke-linejoin:bevel;" x="93.071515" xlink:href="#m519f01393e" y="156.58749"/>
     <use style="fill:#55a868;stroke:#55a868;stroke-linejoin:bevel;" x="95.476364" xlink:href="#m519f01393e" y="156.41377"/>
     <use style="fill:#55a868;stroke:#55a868;stroke-linejoin:bevel;" x="97.881212" xlink:href="#m519f01393e" y="156.24005"/>
     <use style="fill:#55a868;stroke:#55a868;stroke-linejoin:bevel;" x="100.286061" xlink:href="#m519f01393e" y="156.24005"/>
     <use style="fill:#55a868;stroke:#55a868;stroke-linejoin:bevel;" x="102.690909" xlink:href="#m519f01393e" y="154.67657"/>
     <use style="fill:#55a868;stroke:#55a868;stroke-linejoin:bevel;" x="105.095758" xlink:href="#m519f01393e" y="153.28681"/>
     <use style="fill:#55a868;stroke:#55a868;stroke-linejoin:bevel;" x="107.500606" xlink:href="#m519f01393e" y="153.11309"/>
     <use style="fill:#55a868;stroke:#55a868;stroke-linejoin:bevel;" x="109.905455" xlink:href="#m519f01393e" y="152.07077"/>
     <use style="fill:#55a868;stroke:#55a868;stroke-linejoin:bevel;" x="112.310303" xlink:href="#m519f01393e" y="152.07077"/>
     <use style="fill:#55a868;stroke:#55a868;stroke-linejoin:bevel;" x="114.715152" xlink:href="#m519f01393e" y="150.333571"/>
     <use style="fill:#55a868;stroke:#55a868;stroke-linejoin:bevel;" x="117.12" xlink:href="#m519f01393e" y="149.638691"/>
     <use style="fill:#55a868;stroke:#55a868;stroke-linejoin:bevel;" x="119.524848" xlink:href="#m519f01393e" y="147.901491"/>
     <use style="fill:#55a868;stroke:#55a868;stroke-linejoin:bevel;" x="121.929697" xlink:href="#m519f01393e" y="147.554051"/>
     <use style="fill:#55a868;stroke:#55a868;stroke-linejoin:bevel;" x="124.334545" xlink:href="#m519f01393e" y="146.685451"/>
     <use style="fill:#55a868;stroke:#55a868;stroke-linejoin:bevel;" x="126.739394" xlink:href="#m519f01393e" y="145.990571"/>
     <use style="fill:#55a868;stroke:#55a868;stroke-linejoin:bevel;" x="129.144242" xlink:href="#m519f01393e" y="145.643131"/>
     <use style="fill:#55a868;stroke:#55a868;stroke-linejoin:bevel;" x="131.549091" xlink:href="#m519f01393e" y="144.253371"/>
     <use style="fill:#55a868;stroke:#55a868;stroke-linejoin:bevel;" x="133.953939" xlink:href="#m519f01393e" y="142.863611"/>
     <use style="fill:#55a868;stroke:#55a868;stroke-linejoin:bevel;" x="136.358788" xlink:href="#m519f01393e" y="142.342451"/>
     <use style="fill:#55a868;stroke:#55a868;stroke-linejoin:bevel;" x="138.763636" xlink:href="#m519f01393e" y="141.647572"/>
     <use style="fill:#55a868;stroke:#55a868;stroke-linejoin:bevel;" x="141.168485" xlink:href="#m519f01393e" y="141.647572"/>
     <use style="fill:#55a868;stroke:#55a868;stroke-linejoin:bevel;" x="143.573333" xlink:href="#m519f01393e" y="141.647572"/>
     <use style="fill:#55a868;stroke:#55a868;stroke-linejoin:bevel;" x="145.978182" xlink:href="#m519f01393e" y="141.300132"/>
     <use style="fill:#55a868;stroke:#55a868;stroke-linejoin:bevel;" x="148.38303" xlink:href="#m519f01393e" y="140.257812"/>
     <use style="fill:#55a868;stroke:#55a868;stroke-linejoin:bevel;" x="150.787879" xlink:href="#m519f01393e" y="139.910372"/>
     <use style="fill:#55a868;stroke:#55a868;stroke-linejoin:bevel;" x="153.192727" xlink:href="#m519f01393e" y="139.562932"/>
     <use style="fill:#55a868;stroke:#55a868;stroke-linejoin:bevel;" x="155.597576" xlink:href="#m519f01393e" y="139.389212"/>
     <use style="fill:#55a868;stroke:#55a868;stroke-linejoin:bevel;" x="158.002424" xlink:href="#m519f01393e" y="139.041772"/>
     <use style="fill:#55a868;stroke:#55a868;stroke-linejoin:bevel;" x="160.407273" xlink:href="#m519f01393e" y="138.173172"/>
     <use style="fill:#55a868;stroke:#55a868;stroke-linejoin:bevel;" x="162.812121" xlink:href="#m519f01393e" y="137.478292"/>
     <use style="fill:#55a868;stroke:#55a868;stroke-linejoin:bevel;" x="165.21697" xlink:href="#m519f01393e" y="136.435972"/>
     <use style="fill:#55a868;stroke:#55a868;stroke-linejoin:bevel;" x="167.621818" xlink:href="#m519f01393e" y="136.088532"/>
     <use style="fill:#55a868;stroke:#55a868;stroke-linejoin:bevel;" x="170.026667" xlink:href="#m519f01393e" y="135.219932"/>
     <use style="fill:#55a868;stroke:#55a868;stroke-linejoin:bevel;" x="172.431515" xlink:href="#m519f01393e" y="134.698772"/>
     <use style="fill:#55a868;stroke:#55a868;stroke-linejoin:bevel;" x="174.836364" xlink:href="#m519f01393e" y="134.351332"/>
     <use style="fill:#55a868;stroke:#55a868;stroke-linejoin:bevel;" x="177.241212" xlink:href="#m519f01393e" y="132.440413"/>
     <use style="fill:#55a868;stroke:#55a868;stroke-linejoin:bevel;" x="179.646061" xlink:href="#m519f01393e" y="131.224373"/>
     <use style="fill:#55a868;stroke:#55a868;stroke-linejoin:bevel;" x="182.050909" xlink:href="#m519f01393e" y="130.876933"/>
     <use style="fill:#55a868;stroke:#55a868;stroke-linejoin:bevel;" x="184.455758" xlink:href="#m519f01393e" y="129.834613"/>
     <use style="fill:#55a868;stroke:#55a868;stroke-linejoin:bevel;" x="186.860606" xlink:href="#m519f01393e" y="129.139733"/>
     <use style="fill:#55a868;stroke:#55a868;stroke-linejoin:bevel;" x="189.265455" xlink:href="#m519f01393e" y="127.576253"/>
     <use style="fill:#55a868;stroke:#55a868;stroke-linejoin:bevel;" x="191.670303" xlink:href="#m519f01393e" y="126.881373"/>
     <use style="fill:#55a868;stroke:#55a868;stroke-linejoin:bevel;" x="194.075152" xlink:href="#m519f01393e" y="125.491613"/>
     <use style="fill:#55a868;stroke:#55a868;stroke-linejoin:bevel;" x="196.48" xlink:href="#m519f01393e" y="124.449293"/>
     <use style="fill:#55a868;stroke:#55a868;stroke-linejoin:bevel;" x="198.884848" xlink:href="#m519f01393e" y="122.712094"/>
     <use style="fill:#55a868;stroke:#55a868;stroke-linejoin:bevel;" x="201.289697" xlink:href="#m519f01393e" y="121.669774"/>
     <use style="fill:#55a868;stroke:#55a868;stroke-linejoin:bevel;" x="203.694545" xlink:href="#m519f01393e" y="121.496054"/>
     <use style="fill:#55a868;stroke:#55a868;stroke-linejoin:bevel;" x="206.099394" xlink:href="#m519f01393e" y="120.453734"/>
     <use style="fill:#55a868;stroke:#55a868;stroke-linejoin:bevel;" x="208.504242" xlink:href="#m519f01393e" y="120.280014"/>
     <use style="fill:#55a868;stroke:#55a868;stroke-linejoin:bevel;" x="210.909091" xlink:href="#m519f01393e" y="118.716534"/>
     <use style="fill:#55a868;stroke:#55a868;stroke-linejoin:bevel;" x="213.313939" xlink:href="#m519f01393e" y="118.021654"/>
     <use style="fill:#55a868;stroke:#55a868;stroke-linejoin:bevel;" x="215.718788" xlink:href="#m519f01393e" y="116.979334"/>
     <use style="fill:#55a868;stroke:#55a868;stroke-linejoin:bevel;" x="218.123636" xlink:href="#m519f01393e" y="115.589574"/>
     <use style="fill:#55a868;stroke:#55a868;stroke-linejoin:bevel;" x="220.528485" xlink:href="#m519f01393e" y="114.894694"/>
     <use style="fill:#55a868;stroke:#55a868;stroke-linejoin:bevel;" x="222.933333" xlink:href="#m519f01393e" y="114.199815"/>
     <use style="fill:#55a868;stroke:#55a868;stroke-linejoin:bevel;" x="225.338182" xlink:href="#m519f01393e" y="113.678655"/>
     <use style="fill:#55a868;stroke:#55a868;stroke-linejoin:bevel;" x="227.74303" xlink:href="#m519f01393e" y="113.504935"/>
     <use style="fill:#55a868;stroke:#55a868;stroke-linejoin:bevel;" x="230.147879" xlink:href="#m519f01393e" y="113.331215"/>
     <use style="fill:#55a868;stroke:#55a868;stroke-linejoin:bevel;" x="232.552727" xlink:href="#m519f01393e" y="112.288895"/>
     <use style="fill:#55a868;stroke:#55a868;stroke-linejoin:bevel;" x="234.957576" xlink:href="#m519f01393e" y="111.246575"/>
     <use style="fill:#55a868;stroke:#55a868;stroke-linejoin:bevel;" x="237.362424" xlink:href="#m519f01393e" y="110.204255"/>
     <use style="fill:#55a868;stroke:#55a868;stroke-linejoin:bevel;" x="239.767273" xlink:href="#m519f01393e" y="109.509375"/>
     <use style="fill:#55a868;stroke:#55a868;stroke-linejoin:bevel;" x="242.172121" xlink:href="#m519f01393e" y="109.161935"/>
     <use style="fill:#55a868;stroke:#55a868;stroke-linejoin:bevel;" x="244.57697" xlink:href="#m519f01393e" y="108.467055"/>
     <use style="fill:#55a868;stroke:#55a868;stroke-linejoin:bevel;" x="246.981818" xlink:href="#m519f01393e" y="108.119615"/>
     <use style="fill:#55a868;stroke:#55a868;stroke-linejoin:bevel;" x="249.386667" xlink:href="#m519f01393e" y="107.424735"/>
     <use style="fill:#55a868;stroke:#55a868;stroke-linejoin:bevel;" x="251.791515" xlink:href="#m519f01393e" y="107.251015"/>
     <use style="fill:#55a868;stroke:#55a868;stroke-linejoin:bevel;" x="254.196364" xlink:href="#m519f01393e" y="106.208695"/>
     <use style="fill:#55a868;stroke:#55a868;stroke-linejoin:bevel;" x="256.601212" xlink:href="#m519f01393e" y="105.513815"/>
     <use style="fill:#55a868;stroke:#55a868;stroke-linejoin:bevel;" x="259.006061" xlink:href="#m519f01393e" y="105.340095"/>
     <use style="fill:#55a868;stroke:#55a868;stroke-linejoin:bevel;" x="261.410909" xlink:href="#m519f01393e" y="105.166376"/>
     <use style="fill:#55a868;stroke:#55a868;stroke-linejoin:bevel;" x="263.815758" xlink:href="#m519f01393e" y="104.645216"/>
     <use style="fill:#55a868;stroke:#55a868;stroke-linejoin:bevel;" x="266.220606" xlink:href="#m519f01393e" y="103.950336"/>
     <use style="fill:#55a868;stroke:#55a868;stroke-linejoin:bevel;" x="268.625455" xlink:href="#m519f01393e" y="103.602896"/>
     <use style="fill:#55a868;stroke:#55a868;stroke-linejoin:bevel;" x="271.030303" xlink:href="#m519f01393e" y="103.081736"/>
     <use style="fill:#55a868;stroke:#55a868;stroke-linejoin:bevel;" x="273.435152" xlink:href="#m519f01393e" y="102.213136"/>
     <use style="fill:#55a868;stroke:#55a868;stroke-linejoin:bevel;" x="275.84" xlink:href="#m519f01393e" y="101.691976"/>
     <use style="fill:#55a868;stroke:#55a868;stroke-linejoin:bevel;" x="278.244848" xlink:href="#m519f01393e" y="101.518256"/>
     <use style="fill:#55a868;stroke:#55a868;stroke-linejoin:bevel;" x="280.649697" xlink:href="#m519f01393e" y="101.170816"/>
     <use style="fill:#55a868;stroke:#55a868;stroke-linejoin:bevel;" x="283.054545" xlink:href="#m519f01393e" y="100.997096"/>
     <use style="fill:#55a868;stroke:#55a868;stroke-linejoin:bevel;" x="285.459394" xlink:href="#m519f01393e" y="100.997096"/>
     <use style="fill:#55a868;stroke:#55a868;stroke-linejoin:bevel;" x="287.864242" xlink:href="#m519f01393e" y="100.997096"/>
     <use style="fill:#55a868;stroke:#55a868;stroke-linejoin:bevel;" x="290.269091" xlink:href="#m519f01393e" y="100.997096"/>
     <use style="fill:#55a868;stroke:#55a868;stroke-linejoin:bevel;" x="292.673939" xlink:href="#m519f01393e" y="100.649656"/>
     <use style="fill:#55a868;stroke:#55a868;stroke-linejoin:bevel;" x="295.078788" xlink:href="#m519f01393e" y="100.649656"/>
     <use style="fill:#55a868;stroke:#55a868;stroke-linejoin:bevel;" x="297.483636" xlink:href="#m519f01393e" y="100.475936"/>
     <use style="fill:#55a868;stroke:#55a868;stroke-linejoin:bevel;" x="299.888485" xlink:href="#m519f01393e" y="100.475936"/>
     <use style="fill:#55a868;stroke:#55a868;stroke-linejoin:bevel;" x="302.293333" xlink:href="#m519f01393e" y="100.302216"/>
     <use style="fill:#55a868;stroke:#55a868;stroke-linejoin:bevel;" x="304.698182" xlink:href="#m519f01393e" y="100.128496"/>
     <use style="fill:#55a868;stroke:#55a868;stroke-linejoin:bevel;" x="307.10303" xlink:href="#m519f01393e" y="99.607336"/>
     <use style="fill:#55a868;stroke:#55a868;stroke-linejoin:bevel;" x="309.507879" xlink:href="#m519f01393e" y="99.607336"/>
     <use style="fill:#55a868;stroke:#55a868;stroke-linejoin:bevel;" x="311.912727" xlink:href="#m519f01393e" y="98.738736"/>
     <use style="fill:#55a868;stroke:#55a868;stroke-linejoin:bevel;" x="314.317576" xlink:href="#m519f01393e" y="98.043856"/>
     <use style="fill:#55a868;stroke:#55a868;stroke-linejoin:bevel;" x="316.722424" xlink:href="#m519f01393e" y="97.696416"/>
     <use style="fill:#55a868;stroke:#55a868;stroke-linejoin:bevel;" x="319.127273" xlink:href="#m519f01393e" y="96.654096"/>
     <use style="fill:#55a868;stroke:#55a868;stroke-linejoin:bevel;" x="321.532121" xlink:href="#m519f01393e" y="95.959217"/>
     <use style="fill:#55a868;stroke:#55a868;stroke-linejoin:bevel;" x="323.93697" xlink:href="#m519f01393e" y="95.611777"/>
     <use style="fill:#55a868;stroke:#55a868;stroke-linejoin:bevel;" x="326.341818" xlink:href="#m519f01393e" y="95.438057"/>
     <use style="fill:#55a868;stroke:#55a868;stroke-linejoin:bevel;" x="328.746667" xlink:href="#m519f01393e" y="95.264337"/>
     <use style="fill:#55a868;stroke:#55a868;stroke-linejoin:bevel;" x="331.151515" xlink:href="#m519f01393e" y="94.743177"/>
     <use style="fill:#55a868;stroke:#55a868;stroke-linejoin:bevel;" x="333.556364" xlink:href="#m519f01393e" y="93.874577"/>
     <use style="fill:#55a868;stroke:#55a868;stroke-linejoin:bevel;" x="335.961212" xlink:href="#m519f01393e" y="92.658537"/>
     <use style="fill:#55a868;stroke:#55a868;stroke-linejoin:bevel;" x="338.366061" xlink:href="#m519f01393e" y="90.747617"/>
     <use style="fill:#55a868;stroke:#55a868;stroke-linejoin:bevel;" x="340.770909" xlink:href="#m519f01393e" y="89.879017"/>
     <use style="fill:#55a868;stroke:#55a868;stroke-linejoin:bevel;" x="343.175758" xlink:href="#m519f01393e" y="89.357857"/>
     <use style="fill:#55a868;stroke:#55a868;stroke-linejoin:bevel;" x="345.580606" xlink:href="#m519f01393e" y="87.099497"/>
     <use style="fill:#55a868;stroke:#55a868;stroke-linejoin:bevel;" x="347.985455" xlink:href="#m519f01393e" y="86.057178"/>
     <use style="fill:#55a868;stroke:#55a868;stroke-linejoin:bevel;" x="350.390303" xlink:href="#m519f01393e" y="85.188578"/>
     <use style="fill:#55a868;stroke:#55a868;stroke-linejoin:bevel;" x="352.795152" xlink:href="#m519f01393e" y="83.625098"/>
     <use style="fill:#55a868;stroke:#55a868;stroke-linejoin:bevel;" x="355.2" xlink:href="#m519f01393e" y="82.235338"/>
     <use style="fill:#55a868;stroke:#55a868;stroke-linejoin:bevel;" x="357.604848" xlink:href="#m519f01393e" y="80.324418"/>
     <use style="fill:#55a868;stroke:#55a868;stroke-linejoin:bevel;" x="360.009697" xlink:href="#m519f01393e" y="78.934658"/>
     <use style="fill:#55a868;stroke:#55a868;stroke-linejoin:bevel;" x="362.414545" xlink:href="#m519f01393e" y="78.066058"/>
     <use style="fill:#55a868;stroke:#55a868;stroke-linejoin:bevel;" x="364.819394" xlink:href="#m519f01393e" y="76.676299"/>
     <use style="fill:#55a868;stroke:#55a868;stroke-linejoin:bevel;" x="367.224242" xlink:href="#m519f01393e" y="74.244219"/>
     <use style="fill:#55a868;stroke:#55a868;stroke-linejoin:bevel;" x="369.629091" xlink:href="#m519f01393e" y="72.680739"/>
     <use style="fill:#55a868;stroke:#55a868;stroke-linejoin:bevel;" x="372.033939" xlink:href="#m519f01393e" y="70.943539"/>
     <use style="fill:#55a868;stroke:#55a868;stroke-linejoin:bevel;" x="374.438788" xlink:href="#m519f01393e" y="69.380059"/>
     <use style="fill:#55a868;stroke:#55a868;stroke-linejoin:bevel;" x="376.843636" xlink:href="#m519f01393e" y="66.77426"/>
     <use style="fill:#55a868;stroke:#55a868;stroke-linejoin:bevel;" x="379.248485" xlink:href="#m519f01393e" y="65.21078"/>
     <use style="fill:#55a868;stroke:#55a868;stroke-linejoin:bevel;" x="381.653333" xlink:href="#m519f01393e" y="63.12614"/>
     <use style="fill:#55a868;stroke:#55a868;stroke-linejoin:bevel;" x="384.058182" xlink:href="#m519f01393e" y="61.38894"/>
     <use style="fill:#55a868;stroke:#55a868;stroke-linejoin:bevel;" x="386.46303" xlink:href="#m519f01393e" y="58.783141"/>
     <use style="fill:#55a868;stroke:#55a868;stroke-linejoin:bevel;" x="388.867879" xlink:href="#m519f01393e" y="57.219661"/>
     <use style="fill:#55a868;stroke:#55a868;stroke-linejoin:bevel;" x="391.272727" xlink:href="#m519f01393e" y="55.829901"/>
     <use style="fill:#55a868;stroke:#55a868;stroke-linejoin:bevel;" x="393.677576" xlink:href="#m519f01393e" y="52.008061"/>
     <use style="fill:#55a868;stroke:#55a868;stroke-linejoin:bevel;" x="396.082424" xlink:href="#m519f01393e" y="50.444581"/>
     <use style="fill:#55a868;stroke:#55a868;stroke-linejoin:bevel;" x="398.487273" xlink:href="#m519f01393e" y="46.970182"/>
    </g>
   </g>
   <g id="patch_3">
    <path d="M 57.6 162.432 
L 57.6 41.472 
" style="fill:none;"/>
   </g>
   <g id="patch_4">
    <path d="M 414.72 162.432 
L 414.72 41.472 
" style="fill:none;"/>
   </g>
   <g id="patch_5">
    <path d="M 57.6 162.432 
L 414.72 162.432 
" style="fill:none;"/>
   </g>
   <g id="patch_6">
    <path d="M 57.6 41.472 
L 414.72 41.472 
" style="fill:none;"/>
   </g>
   <g id="legend_1">
    <g id="patch_7">
     <path d="M 63.431 71.702091 
L 147.260736 71.702091 
Q 148.926736 71.702091 148.926736 70.036091 
L 148.926736 47.303 
Q 148.926736 45.637 147.260736 45.637 
L 63.431 45.637 
Q 61.765 45.637 61.765 47.303 
L 61.765 70.036091 
Q 61.765 71.702091 63.431 71.702091 
z
" style="fill:#eaeaf2;opacity:0.8;"/>
    </g>
    <g id="line2d_27">
     <path d="M 65.097 52.015958 
L 81.757 52.015958 
" style="fill:none;stroke:#4c72b0;stroke-linecap:round;stroke-width:2;"/>
    </g>
    <g id="line2d_28"/>
    <g id="text_5">
     <!-- Estimate of I+R -->
     <defs>
      <path d="M 7.90625 0 
L 7.90625 71.578125 
L 59.671875 71.578125 
L 59.671875 63.140625 
L 17.390625 63.140625 
L 17.390625 41.21875 
L 56.984375 41.21875 
L 56.984375 32.8125 
L 17.390625 32.8125 
L 17.390625 8.453125 
L 61.328125 8.453125 
L 61.328125 0 
z
" id="ArialMT-69"/>
      <path d="M 3.078125 15.484375 
L 11.765625 16.84375 
Q 12.5 11.625 15.84375 8.84375 
Q 19.1875 6.0625 25.203125 6.0625 
Q 31.25 6.0625 34.171875 8.515625 
Q 37.109375 10.984375 37.109375 14.3125 
Q 37.109375 17.28125 34.515625 19 
Q 32.71875 20.171875 25.53125 21.96875 
Q 15.875 24.421875 12.140625 26.203125 
Q 8.40625 27.984375 6.46875 31.125 
Q 4.546875 34.28125 4.546875 38.09375 
Q 4.546875 41.546875 6.125 44.5 
Q 7.71875 47.46875 10.453125 49.421875 
Q 12.5 50.921875 16.03125 51.96875 
Q 19.578125 53.03125 23.640625 53.03125 
Q 29.734375 53.03125 34.34375 51.265625 
Q 38.96875 49.515625 41.15625 46.5 
Q 43.359375 43.5 44.1875 38.484375 
L 35.59375 37.3125 
Q 35.015625 41.3125 32.203125 43.546875 
Q 29.390625 45.796875 24.265625 45.796875 
Q 18.21875 45.796875 15.625 43.796875 
Q 13.03125 41.796875 13.03125 39.109375 
Q 13.03125 37.40625 14.109375 36.03125 
Q 15.1875 34.625 17.484375 33.6875 
Q 18.796875 33.203125 25.25 31.453125 
Q 34.578125 28.953125 38.25 27.359375 
Q 41.9375 25.78125 44.03125 22.75 
Q 46.140625 19.734375 46.140625 15.234375 
Q 46.140625 10.84375 43.578125 6.953125 
Q 41.015625 3.078125 36.171875 0.953125 
Q 31.34375 -1.171875 25.25 -1.171875 
Q 15.140625 -1.171875 9.84375 3.03125 
Q 4.546875 7.234375 3.078125 15.484375 
z
" id="ArialMT-115"/>
      <path d="M 25.78125 7.859375 
L 27.046875 0.09375 
Q 23.34375 -0.6875 20.40625 -0.6875 
Q 15.625 -0.6875 12.984375 0.828125 
Q 10.359375 2.34375 9.28125 4.8125 
Q 8.203125 7.28125 8.203125 15.1875 
L 8.203125 45.015625 
L 1.765625 45.015625 
L 1.765625 51.859375 
L 8.203125 51.859375 
L 8.203125 64.703125 
L 16.9375 69.96875 
L 16.9375 51.859375 
L 25.78125 51.859375 
L 25.78125 45.015625 
L 16.9375 45.015625 
L 16.9375 14.703125 
Q 16.9375 10.9375 17.40625 9.859375 
Q 17.875 8.796875 18.921875 8.15625 
Q 19.96875 7.515625 21.921875 7.515625 
Q 23.390625 7.515625 25.78125 7.859375 
z
" id="ArialMT-116"/>
      <path d="M 6.640625 61.46875 
L 6.640625 71.578125 
L 15.4375 71.578125 
L 15.4375 61.46875 
z
M 6.640625 0 
L 6.640625 51.859375 
L 15.4375 51.859375 
L 15.4375 0 
z
" id="ArialMT-105"/>
      <path d="M 6.59375 0 
L 6.59375 51.859375 
L 14.453125 51.859375 
L 14.453125 44.578125 
Q 16.890625 48.390625 20.9375 50.703125 
Q 25 53.03125 30.171875 53.03125 
Q 35.9375 53.03125 39.625 50.640625 
Q 43.3125 48.25 44.828125 43.953125 
Q 50.984375 53.03125 60.84375 53.03125 
Q 68.5625 53.03125 72.703125 48.75 
Q 76.859375 44.484375 76.859375 35.59375 
L 76.859375 0 
L 68.109375 0 
L 68.109375 32.671875 
Q 68.109375 37.9375 67.25 40.25 
Q 66.40625 42.578125 64.15625 43.984375 
Q 61.921875 45.40625 58.890625 45.40625 
Q 53.421875 45.40625 49.796875 41.765625 
Q 46.1875 38.140625 46.1875 30.125 
L 46.1875 0 
L 37.40625 0 
L 37.40625 33.6875 
Q 37.40625 39.546875 35.25 42.46875 
Q 33.109375 45.40625 28.21875 45.40625 
Q 24.515625 45.40625 21.359375 43.453125 
Q 18.21875 41.5 16.796875 37.734375 
Q 15.375 33.984375 15.375 26.90625 
L 15.375 0 
z
" id="ArialMT-109"/>
      <path d="M 40.4375 6.390625 
Q 35.546875 2.25 31.03125 0.53125 
Q 26.515625 -1.171875 21.34375 -1.171875 
Q 12.796875 -1.171875 8.203125 3 
Q 3.609375 7.171875 3.609375 13.671875 
Q 3.609375 17.484375 5.34375 20.625 
Q 7.078125 23.78125 9.890625 25.6875 
Q 12.703125 27.59375 16.21875 28.5625 
Q 18.796875 29.25 24.03125 29.890625 
Q 34.671875 31.15625 39.703125 32.90625 
Q 39.75 34.71875 39.75 35.203125 
Q 39.75 40.578125 37.25 42.78125 
Q 33.890625 45.75 27.25 45.75 
Q 21.046875 45.75 18.09375 43.578125 
Q 15.140625 41.40625 13.71875 35.890625 
L 5.125 37.0625 
Q 6.296875 42.578125 8.984375 45.96875 
Q 11.671875 49.359375 16.75 51.1875 
Q 21.828125 53.03125 28.515625 53.03125 
Q 35.15625 53.03125 39.296875 51.46875 
Q 43.453125 49.90625 45.40625 47.53125 
Q 47.359375 45.171875 48.140625 41.546875 
Q 48.578125 39.3125 48.578125 33.453125 
L 48.578125 21.734375 
Q 48.578125 9.46875 49.140625 6.21875 
Q 49.703125 2.984375 51.375 0 
L 42.1875 0 
Q 40.828125 2.734375 40.4375 6.390625 
z
M 39.703125 26.03125 
Q 34.90625 24.078125 25.34375 22.703125 
Q 19.921875 21.921875 17.671875 20.9375 
Q 15.4375 19.96875 14.203125 18.09375 
Q 12.984375 16.21875 12.984375 13.921875 
Q 12.984375 10.40625 15.640625 8.0625 
Q 18.3125 5.71875 23.4375 5.71875 
Q 28.515625 5.71875 32.46875 7.9375 
Q 36.421875 10.15625 38.28125 14.015625 
Q 39.703125 17 39.703125 22.796875 
z
" id="ArialMT-97"/>
      <path d="M 42.09375 16.703125 
L 51.171875 15.578125 
Q 49.03125 7.625 43.21875 3.21875 
Q 37.40625 -1.171875 28.375 -1.171875 
Q 17 -1.171875 10.328125 5.828125 
Q 3.65625 12.84375 3.65625 25.484375 
Q 3.65625 38.578125 10.390625 45.796875 
Q 17.140625 53.03125 27.875 53.03125 
Q 38.28125 53.03125 44.875 45.953125 
Q 51.46875 38.875 51.46875 26.03125 
Q 51.46875 25.25 51.421875 23.6875 
L 12.75 23.6875 
Q 13.234375 15.140625 17.578125 10.59375 
Q 21.921875 6.0625 28.421875 6.0625 
Q 33.25 6.0625 36.671875 8.59375 
Q 40.09375 11.140625 42.09375 16.703125 
z
M 13.234375 30.90625 
L 42.1875 30.90625 
Q 41.609375 37.453125 38.875 40.71875 
Q 34.671875 45.796875 27.984375 45.796875 
Q 21.921875 45.796875 17.796875 41.75 
Q 13.671875 37.703125 13.234375 30.90625 
z
" id="ArialMT-101"/>
      <path id="ArialMT-32"/>
      <path d="M 3.328125 25.921875 
Q 3.328125 40.328125 11.328125 47.265625 
Q 18.015625 53.03125 27.640625 53.03125 
Q 38.328125 53.03125 45.109375 46.015625 
Q 51.90625 39.015625 51.90625 26.65625 
Q 51.90625 16.65625 48.90625 10.90625 
Q 45.90625 5.171875 40.15625 2 
Q 34.421875 -1.171875 27.640625 -1.171875 
Q 16.75 -1.171875 10.03125 5.8125 
Q 3.328125 12.796875 3.328125 25.921875 
z
M 12.359375 25.921875 
Q 12.359375 15.96875 16.703125 11.015625 
Q 21.046875 6.0625 27.640625 6.0625 
Q 34.1875 6.0625 38.53125 11.03125 
Q 42.875 16.015625 42.875 26.21875 
Q 42.875 35.84375 38.5 40.796875 
Q 34.125 45.75 27.640625 45.75 
Q 21.046875 45.75 16.703125 40.8125 
Q 12.359375 35.890625 12.359375 25.921875 
z
" id="ArialMT-111"/>
      <path d="M 8.6875 0 
L 8.6875 45.015625 
L 0.921875 45.015625 
L 0.921875 51.859375 
L 8.6875 51.859375 
L 8.6875 57.375 
Q 8.6875 62.59375 9.625 65.140625 
Q 10.890625 68.5625 14.078125 70.671875 
Q 17.28125 72.796875 23.046875 72.796875 
Q 26.765625 72.796875 31.25 71.921875 
L 29.9375 64.265625 
Q 27.203125 64.75 24.75 64.75 
Q 20.75 64.75 19.09375 63.03125 
Q 17.4375 61.328125 17.4375 56.640625 
L 17.4375 51.859375 
L 27.546875 51.859375 
L 27.546875 45.015625 
L 17.4375 45.015625 
L 17.4375 0 
z
" id="ArialMT-102"/>
      <path d="M 9.328125 0 
L 9.328125 71.578125 
L 18.796875 71.578125 
L 18.796875 0 
z
" id="ArialMT-73"/>
      <path d="M 25.046875 11.578125 
L 25.046875 31.203125 
L 5.5625 31.203125 
L 5.5625 39.40625 
L 25.046875 39.40625 
L 25.046875 58.890625 
L 33.34375 58.890625 
L 33.34375 39.40625 
L 52.828125 39.40625 
L 52.828125 31.203125 
L 33.34375 31.203125 
L 33.34375 11.578125 
z
" id="ArialMT-43"/>
      <path d="M 7.859375 0 
L 7.859375 71.578125 
L 39.59375 71.578125 
Q 49.171875 71.578125 54.140625 69.640625 
Q 59.125 67.71875 62.109375 62.828125 
Q 65.09375 57.953125 65.09375 52.046875 
Q 65.09375 44.4375 60.15625 39.203125 
Q 55.21875 33.984375 44.921875 32.5625 
Q 48.6875 30.765625 50.640625 29 
Q 54.78125 25.203125 58.5 19.484375 
L 70.953125 0 
L 59.03125 0 
L 49.5625 14.890625 
Q 45.40625 21.34375 42.71875 24.75 
Q 40.046875 28.171875 37.921875 29.53125 
Q 35.796875 30.90625 33.59375 31.453125 
Q 31.984375 31.78125 28.328125 31.78125 
L 17.328125 31.78125 
L 17.328125 0 
z
M 17.328125 39.984375 
L 37.703125 39.984375 
Q 44.1875 39.984375 47.84375 41.328125 
Q 51.515625 42.671875 53.421875 45.625 
Q 55.328125 48.578125 55.328125 52.046875 
Q 55.328125 57.125 51.640625 60.390625 
Q 47.953125 63.671875 39.984375 63.671875 
L 17.328125 63.671875 
z
" id="ArialMT-82"/>
     </defs>
     <g style="fill:#262626;" transform="translate(88.421 54.931458)scale(0.0833 -0.0833)">
      <use xlink:href="#ArialMT-69"/>
      <use x="66.699219" xlink:href="#ArialMT-115"/>
      <use x="116.699219" xlink:href="#ArialMT-116"/>
      <use x="144.482422" xlink:href="#ArialMT-105"/>
      <use x="166.699219" xlink:href="#ArialMT-109"/>
      <use x="250" xlink:href="#ArialMT-97"/>
      <use x="305.615234" xlink:href="#ArialMT-116"/>
      <use x="333.398438" xlink:href="#ArialMT-101"/>
      <use x="389.013672" xlink:href="#ArialMT-32"/>
      <use x="416.796875" xlink:href="#ArialMT-111"/>
      <use x="472.412109" xlink:href="#ArialMT-102"/>
      <use x="500.195312" xlink:href="#ArialMT-32"/>
      <use x="527.978516" xlink:href="#ArialMT-73"/>
      <use x="555.761719" xlink:href="#ArialMT-43"/>
      <use x="614.160156" xlink:href="#ArialMT-82"/>
     </g>
    </g>
    <g id="line2d_29"/>
    <g id="line2d_30">
     <g>
      <use style="fill:#55a868;stroke:#55a868;stroke-linejoin:bevel;" x="73.427" xlink:href="#m519f01393e" y="63.799003"/>
     </g>
    </g>
    <g id="text_6">
     <!-- Observations -->
     <defs>
      <path d="M 4.828125 34.859375 
Q 4.828125 52.6875 14.390625 62.765625 
Q 23.96875 72.859375 39.109375 72.859375 
Q 49.03125 72.859375 56.984375 68.109375 
Q 64.9375 63.375 69.109375 54.90625 
Q 73.296875 46.4375 73.296875 35.6875 
Q 73.296875 24.8125 68.890625 16.21875 
Q 64.5 7.625 56.4375 3.203125 
Q 48.390625 -1.21875 39.0625 -1.21875 
Q 28.953125 -1.21875 20.984375 3.65625 
Q 13.03125 8.546875 8.921875 16.984375 
Q 4.828125 25.4375 4.828125 34.859375 
z
M 14.59375 34.71875 
Q 14.59375 21.78125 21.546875 14.328125 
Q 28.515625 6.890625 39.015625 6.890625 
Q 49.703125 6.890625 56.609375 14.40625 
Q 63.53125 21.921875 63.53125 35.75 
Q 63.53125 44.484375 60.578125 51 
Q 57.625 57.515625 51.921875 61.109375 
Q 46.234375 64.703125 39.15625 64.703125 
Q 29.109375 64.703125 21.84375 57.78125 
Q 14.59375 50.875 14.59375 34.71875 
z
" id="ArialMT-79"/>
      <path d="M 14.703125 0 
L 6.546875 0 
L 6.546875 71.578125 
L 15.328125 71.578125 
L 15.328125 46.046875 
Q 20.90625 53.03125 29.546875 53.03125 
Q 34.328125 53.03125 38.59375 51.09375 
Q 42.875 49.171875 45.625 45.671875 
Q 48.390625 42.1875 49.953125 37.25 
Q 51.515625 32.328125 51.515625 26.703125 
Q 51.515625 13.375 44.921875 6.09375 
Q 38.328125 -1.171875 29.109375 -1.171875 
Q 19.921875 -1.171875 14.703125 6.5 
z
M 14.59375 26.3125 
Q 14.59375 17 17.140625 12.84375 
Q 21.296875 6.0625 28.375 6.0625 
Q 34.125 6.0625 38.328125 11.0625 
Q 42.53125 16.0625 42.53125 25.984375 
Q 42.53125 36.140625 38.5 40.96875 
Q 34.46875 45.796875 28.765625 45.796875 
Q 23 45.796875 18.796875 40.796875 
Q 14.59375 35.796875 14.59375 26.3125 
z
" id="ArialMT-98"/>
      <path d="M 6.5 0 
L 6.5 51.859375 
L 14.40625 51.859375 
L 14.40625 44 
Q 17.4375 49.515625 20 51.265625 
Q 22.5625 53.03125 25.640625 53.03125 
Q 30.078125 53.03125 34.671875 50.203125 
L 31.640625 42.046875 
Q 28.421875 43.953125 25.203125 43.953125 
Q 22.3125 43.953125 20.015625 42.21875 
Q 17.71875 40.484375 16.75 37.40625 
Q 15.28125 32.71875 15.28125 27.15625 
L 15.28125 0 
z
" id="ArialMT-114"/>
      <path d="M 21 0 
L 1.265625 51.859375 
L 10.546875 51.859375 
L 21.6875 20.796875 
Q 23.484375 15.765625 25 10.359375 
Q 26.171875 14.453125 28.265625 20.21875 
L 39.796875 51.859375 
L 48.828125 51.859375 
L 29.203125 0 
z
" id="ArialMT-118"/>
      <path d="M 6.59375 0 
L 6.59375 51.859375 
L 14.5 51.859375 
L 14.5 44.484375 
Q 20.21875 53.03125 31 53.03125 
Q 35.6875 53.03125 39.625 51.34375 
Q 43.5625 49.65625 45.515625 46.921875 
Q 47.46875 44.1875 48.25 40.4375 
Q 48.734375 37.984375 48.734375 31.890625 
L 48.734375 0 
L 39.9375 0 
L 39.9375 31.546875 
Q 39.9375 36.921875 38.90625 39.578125 
Q 37.890625 42.234375 35.28125 43.8125 
Q 32.671875 45.40625 29.15625 45.40625 
Q 23.53125 45.40625 19.453125 41.84375 
Q 15.375 38.28125 15.375 28.328125 
L 15.375 0 
z
" id="ArialMT-110"/>
     </defs>
     <g style="fill:#262626;" transform="translate(88.421 66.714503)scale(0.0833 -0.0833)">
      <use xlink:href="#ArialMT-79"/>
      <use x="77.783203" xlink:href="#ArialMT-98"/>
      <use x="133.398438" xlink:href="#ArialMT-115"/>
      <use x="183.398438" xlink:href="#ArialMT-101"/>
      <use x="239.013672" xlink:href="#ArialMT-114"/>
      <use x="272.314453" xlink:href="#ArialMT-118"/>
      <use x="322.314453" xlink:href="#ArialMT-97"/>
      <use x="377.929688" xlink:href="#ArialMT-116"/>
      <use x="405.712891" xlink:href="#ArialMT-105"/>
      <use x="427.929688" xlink:href="#ArialMT-111"/>
      <use x="483.544922" xlink:href="#ArialMT-110"/>
      <use x="539.160156" xlink:href="#ArialMT-115"/>
     </g>
    </g>
   </g>
  </g>
  <g id="axes_2">
   <g id="patch_8">
    <path d="M 57.6 307.584 
L 414.72 307.584 
L 414.72 186.624 
L 57.6 186.624 
z
" style="fill:#eaeaf2;"/>
   </g>
   <g id="matplotlib.axis_3">
    <g id="xtick_9">
     <g id="line2d_31">
      <path clip-path="url(#p923da7bb5e)" d="M 73.832727 307.584 
L 73.832727 186.624 
" style="fill:none;stroke:#ffffff;stroke-linecap:round;stroke-width:0.8;"/>
     </g>
     <g id="line2d_32"/>
     <g id="text_7">
      <!-- 0 -->
      <g style="fill:#262626;" transform="translate(71.052259 318.241812)scale(0.1 -0.1)">
       <use xlink:href="#ArialMT-48"/>
      </g>
     </g>
    </g>
    <g id="xtick_10">
     <g id="line2d_33">
      <path clip-path="url(#p923da7bb5e)" d="M 121.929697 307.584 
L 121.929697 186.624 
" style="fill:none;stroke:#ffffff;stroke-linecap:round;stroke-width:0.8;"/>
     </g>
     <g id="line2d_34"/>
     <g id="text_8">
      <!-- 20 -->
      <g style="fill:#262626;" transform="translate(116.368759 318.241812)scale(0.1 -0.1)">
       <use xlink:href="#ArialMT-50"/>
       <use x="55.615234" xlink:href="#ArialMT-48"/>
      </g>
     </g>
    </g>
    <g id="xtick_11">
     <g id="line2d_35">
      <path clip-path="url(#p923da7bb5e)" d="M 170.026667 307.584 
L 170.026667 186.624 
" style="fill:none;stroke:#ffffff;stroke-linecap:round;stroke-width:0.8;"/>
     </g>
     <g id="line2d_36"/>
     <g id="text_9">
      <!-- 40 -->
      <g style="fill:#262626;" transform="translate(164.465729 318.241812)scale(0.1 -0.1)">
       <use xlink:href="#ArialMT-52"/>
       <use x="55.615234" xlink:href="#ArialMT-48"/>
      </g>
     </g>
    </g>
    <g id="xtick_12">
     <g id="line2d_37">
      <path clip-path="url(#p923da7bb5e)" d="M 218.123636 307.584 
L 218.123636 186.624 
" style="fill:none;stroke:#ffffff;stroke-linecap:round;stroke-width:0.8;"/>
     </g>
     <g id="line2d_38"/>
     <g id="text_10">
      <!-- 60 -->
      <g style="fill:#262626;" transform="translate(212.562699 318.241812)scale(0.1 -0.1)">
       <use xlink:href="#ArialMT-54"/>
       <use x="55.615234" xlink:href="#ArialMT-48"/>
      </g>
     </g>
    </g>
    <g id="xtick_13">
     <g id="line2d_39">
      <path clip-path="url(#p923da7bb5e)" d="M 266.220606 307.584 
L 266.220606 186.624 
" style="fill:none;stroke:#ffffff;stroke-linecap:round;stroke-width:0.8;"/>
     </g>
     <g id="line2d_40"/>
     <g id="text_11">
      <!-- 80 -->
      <defs>
       <path d="M 17.671875 38.8125 
Q 12.203125 40.828125 9.5625 44.53125 
Q 6.9375 48.25 6.9375 53.421875 
Q 6.9375 61.234375 12.546875 66.546875 
Q 18.171875 71.875 27.484375 71.875 
Q 36.859375 71.875 42.578125 66.421875 
Q 48.296875 60.984375 48.296875 53.171875 
Q 48.296875 48.1875 45.671875 44.5 
Q 43.0625 40.828125 37.75 38.8125 
Q 44.34375 36.671875 47.78125 31.875 
Q 51.21875 27.09375 51.21875 20.453125 
Q 51.21875 11.28125 44.71875 5.03125 
Q 38.234375 -1.21875 27.640625 -1.21875 
Q 17.046875 -1.21875 10.546875 5.046875 
Q 4.046875 11.328125 4.046875 20.703125 
Q 4.046875 27.6875 7.59375 32.390625 
Q 11.140625 37.109375 17.671875 38.8125 
z
M 15.921875 53.71875 
Q 15.921875 48.640625 19.1875 45.40625 
Q 22.46875 42.1875 27.6875 42.1875 
Q 32.765625 42.1875 36.015625 45.375 
Q 39.265625 48.578125 39.265625 53.21875 
Q 39.265625 58.0625 35.90625 61.359375 
Q 32.5625 64.65625 27.59375 64.65625 
Q 22.5625 64.65625 19.234375 61.421875 
Q 15.921875 58.203125 15.921875 53.71875 
z
M 13.09375 20.65625 
Q 13.09375 16.890625 14.875 13.375 
Q 16.65625 9.859375 20.171875 7.921875 
Q 23.6875 6 27.734375 6 
Q 34.03125 6 38.125 10.046875 
Q 42.234375 14.109375 42.234375 20.359375 
Q 42.234375 26.703125 38.015625 30.859375 
Q 33.796875 35.015625 27.4375 35.015625 
Q 21.234375 35.015625 17.15625 30.90625 
Q 13.09375 26.8125 13.09375 20.65625 
z
" id="ArialMT-56"/>
      </defs>
      <g style="fill:#262626;" transform="translate(260.659669 318.241812)scale(0.1 -0.1)">
       <use xlink:href="#ArialMT-56"/>
       <use x="55.615234" xlink:href="#ArialMT-48"/>
      </g>
     </g>
    </g>
    <g id="xtick_14">
     <g id="line2d_41">
      <path clip-path="url(#p923da7bb5e)" d="M 314.317576 307.584 
L 314.317576 186.624 
" style="fill:none;stroke:#ffffff;stroke-linecap:round;stroke-width:0.8;"/>
     </g>
     <g id="line2d_42"/>
     <g id="text_12">
      <!-- 100 -->
      <defs>
       <path d="M 37.25 0 
L 28.46875 0 
L 28.46875 56 
Q 25.296875 52.984375 20.140625 49.953125 
Q 14.984375 46.921875 10.890625 45.40625 
L 10.890625 53.90625 
Q 18.265625 57.375 23.78125 62.296875 
Q 29.296875 67.234375 31.59375 71.875 
L 37.25 71.875 
z
" id="ArialMT-49"/>
      </defs>
      <g style="fill:#262626;" transform="translate(305.97617 318.241812)scale(0.1 -0.1)">
       <use xlink:href="#ArialMT-49"/>
       <use x="55.615234" xlink:href="#ArialMT-48"/>
       <use x="111.230469" xlink:href="#ArialMT-48"/>
      </g>
     </g>
    </g>
    <g id="xtick_15">
     <g id="line2d_43">
      <path clip-path="url(#p923da7bb5e)" d="M 362.414545 307.584 
L 362.414545 186.624 
" style="fill:none;stroke:#ffffff;stroke-linecap:round;stroke-width:0.8;"/>
     </g>
     <g id="line2d_44"/>
     <g id="text_13">
      <!-- 120 -->
      <g style="fill:#262626;" transform="translate(354.073139 318.241812)scale(0.1 -0.1)">
       <use xlink:href="#ArialMT-49"/>
       <use x="55.615234" xlink:href="#ArialMT-50"/>
       <use x="111.230469" xlink:href="#ArialMT-48"/>
      </g>
     </g>
    </g>
    <g id="xtick_16">
     <g id="line2d_45">
      <path clip-path="url(#p923da7bb5e)" d="M 410.511515 307.584 
L 410.511515 186.624 
" style="fill:none;stroke:#ffffff;stroke-linecap:round;stroke-width:0.8;"/>
     </g>
     <g id="line2d_46"/>
     <g id="text_14">
      <!-- 140 -->
      <g style="fill:#262626;" transform="translate(402.170109 318.241812)scale(0.1 -0.1)">
       <use xlink:href="#ArialMT-49"/>
       <use x="55.615234" xlink:href="#ArialMT-52"/>
       <use x="111.230469" xlink:href="#ArialMT-48"/>
      </g>
     </g>
    </g>
    <g id="text_15">
     <!-- Time (t) -->
     <defs>
      <path d="M 25.921875 0 
L 25.921875 63.140625 
L 2.34375 63.140625 
L 2.34375 71.578125 
L 59.078125 71.578125 
L 59.078125 63.140625 
L 35.40625 63.140625 
L 35.40625 0 
z
" id="ArialMT-84"/>
      <path d="M 23.390625 -21.046875 
Q 16.109375 -11.859375 11.078125 0.4375 
Q 6.0625 12.75 6.0625 25.921875 
Q 6.0625 37.546875 9.8125 48.1875 
Q 14.203125 60.546875 23.390625 72.796875 
L 29.6875 72.796875 
Q 23.78125 62.640625 21.875 58.296875 
Q 18.890625 51.5625 17.1875 44.234375 
Q 15.09375 35.109375 15.09375 25.875 
Q 15.09375 2.390625 29.6875 -21.046875 
z
" id="ArialMT-40"/>
      <path d="M 12.359375 -21.046875 
L 6.0625 -21.046875 
Q 20.65625 2.390625 20.65625 25.875 
Q 20.65625 35.0625 18.5625 44.09375 
Q 16.890625 51.421875 13.921875 58.15625 
Q 12.015625 62.546875 6.0625 72.796875 
L 12.359375 72.796875 
Q 21.53125 60.546875 25.921875 48.1875 
Q 29.6875 37.546875 29.6875 25.921875 
Q 29.6875 12.75 24.625 0.4375 
Q 19.578125 -11.859375 12.359375 -21.046875 
z
" id="ArialMT-41"/>
     </defs>
     <g style="fill:#262626;" transform="translate(218.944375 331.509)scale(0.1 -0.1)">
      <use xlink:href="#ArialMT-84"/>
      <use x="61.037109" xlink:href="#ArialMT-105"/>
      <use x="83.253906" xlink:href="#ArialMT-109"/>
      <use x="166.554688" xlink:href="#ArialMT-101"/>
      <use x="222.169922" xlink:href="#ArialMT-32"/>
      <use x="249.953125" xlink:href="#ArialMT-40"/>
      <use x="283.253906" xlink:href="#ArialMT-116"/>
      <use x="311.037109" xlink:href="#ArialMT-41"/>
     </g>
    </g>
   </g>
   <g id="matplotlib.axis_4">
    <g id="ytick_5">
     <g id="line2d_47">
      <path clip-path="url(#p923da7bb5e)" d="M 57.6 302.085818 
L 414.72 302.085818 
" style="fill:none;stroke:#ffffff;stroke-linecap:round;stroke-width:0.8;"/>
     </g>
     <g id="line2d_48"/>
     <g id="text_16">
      <!-- 0.0 -->
      <defs>
       <path d="M 9.078125 0 
L 9.078125 10.015625 
L 19.09375 10.015625 
L 19.09375 0 
z
" id="ArialMT-46"/>
      </defs>
      <g style="fill:#262626;" transform="translate(40.2 305.664724)scale(0.1 -0.1)">
       <use xlink:href="#ArialMT-48"/>
       <use x="55.615234" xlink:href="#ArialMT-46"/>
       <use x="83.398438" xlink:href="#ArialMT-48"/>
      </g>
     </g>
    </g>
    <g id="ytick_6">
     <g id="line2d_49">
      <path clip-path="url(#p923da7bb5e)" d="M 57.6 273.660417 
L 414.72 273.660417 
" style="fill:none;stroke:#ffffff;stroke-linecap:round;stroke-width:0.8;"/>
     </g>
     <g id="line2d_50"/>
     <g id="text_17">
      <!-- 0.5 -->
      <defs>
       <path d="M 4.15625 18.75 
L 13.375 19.53125 
Q 14.40625 12.796875 18.140625 9.390625 
Q 21.875 6 27.15625 6 
Q 33.5 6 37.890625 10.78125 
Q 42.28125 15.578125 42.28125 23.484375 
Q 42.28125 31 38.0625 35.34375 
Q 33.84375 39.703125 27 39.703125 
Q 22.75 39.703125 19.328125 37.765625 
Q 15.921875 35.84375 13.96875 32.765625 
L 5.71875 33.84375 
L 12.640625 70.609375 
L 48.25 70.609375 
L 48.25 62.203125 
L 19.671875 62.203125 
L 15.828125 42.96875 
Q 22.265625 47.46875 29.34375 47.46875 
Q 38.71875 47.46875 45.15625 40.96875 
Q 51.609375 34.46875 51.609375 24.265625 
Q 51.609375 14.546875 45.953125 7.46875 
Q 39.0625 -1.21875 27.15625 -1.21875 
Q 17.390625 -1.21875 11.203125 4.25 
Q 5.03125 9.71875 4.15625 18.75 
z
" id="ArialMT-53"/>
      </defs>
      <g style="fill:#262626;" transform="translate(40.2 277.239323)scale(0.1 -0.1)">
       <use xlink:href="#ArialMT-48"/>
       <use x="55.615234" xlink:href="#ArialMT-46"/>
       <use x="83.398438" xlink:href="#ArialMT-53"/>
      </g>
     </g>
    </g>
    <g id="ytick_7">
     <g id="line2d_51">
      <path clip-path="url(#p923da7bb5e)" d="M 57.6 245.235015 
L 414.72 245.235015 
" style="fill:none;stroke:#ffffff;stroke-linecap:round;stroke-width:0.8;"/>
     </g>
     <g id="line2d_52"/>
     <g id="text_18">
      <!-- 1.0 -->
      <g style="fill:#262626;" transform="translate(40.2 248.813922)scale(0.1 -0.1)">
       <use xlink:href="#ArialMT-49"/>
       <use x="55.615234" xlink:href="#ArialMT-46"/>
       <use x="83.398438" xlink:href="#ArialMT-48"/>
      </g>
     </g>
    </g>
    <g id="ytick_8">
     <g id="line2d_53">
      <path clip-path="url(#p923da7bb5e)" d="M 57.6 216.809614 
L 414.72 216.809614 
" style="fill:none;stroke:#ffffff;stroke-linecap:round;stroke-width:0.8;"/>
     </g>
     <g id="line2d_54"/>
     <g id="text_19">
      <!-- 1.5 -->
      <g style="fill:#262626;" transform="translate(40.2 220.38852)scale(0.1 -0.1)">
       <use xlink:href="#ArialMT-49"/>
       <use x="55.615234" xlink:href="#ArialMT-46"/>
       <use x="83.398438" xlink:href="#ArialMT-53"/>
      </g>
     </g>
    </g>
    <g id="ytick_9">
     <g id="line2d_55">
      <path clip-path="url(#p923da7bb5e)" d="M 57.6 188.384212 
L 414.72 188.384212 
" style="fill:none;stroke:#ffffff;stroke-linecap:round;stroke-width:0.8;"/>
     </g>
     <g id="line2d_56"/>
     <g id="text_20">
      <!-- 2.0 -->
      <g style="fill:#262626;" transform="translate(40.2 191.963119)scale(0.1 -0.1)">
       <use xlink:href="#ArialMT-50"/>
       <use x="55.615234" xlink:href="#ArialMT-46"/>
       <use x="83.398438" xlink:href="#ArialMT-48"/>
      </g>
     </g>
    </g>
   </g>
   <g id="line2d_57">
    <path clip-path="url(#p923da7bb5e)" d="M 73.832727 302.085818 
L 73.95297 192.122182 
L 76.213527 192.122182 
L 76.33377 216.363094 
L 78.618376 216.363094 
L 78.738618 217.6677 
L 81.023224 217.6677 
L 81.143467 220.923305 
L 83.428073 220.923305 
L 83.548315 221.856389 
L 85.832921 221.856389 
L 85.953164 223.305227 
L 88.23777 223.305227 
L 88.358012 224.089021 
L 90.642618 224.089021 
L 90.762861 222.900601 
L 93.047467 222.900601 
L 93.167709 238.256417 
L 95.452315 238.256417 
L 95.572558 244.378187 
L 97.857164 244.378187 
L 97.977406 257.059501 
L 100.262012 257.059501 
L 100.382255 274.429447 
L 102.666861 274.429447 
L 102.787103 237.570258 
L 105.071709 237.570258 
L 105.191952 250.720757 
L 107.476558 250.720757 
L 107.5968 269.238208 
L 109.881406 269.238208 
L 110.001648 274.361629 
L 112.286255 274.361629 
L 112.406497 281.807737 
L 114.691103 281.807737 
L 114.811345 282.275098 
L 117.095952 282.275098 
L 117.216194 284.550107 
L 119.5008 284.550107 
L 119.621042 285.24902 
L 121.905648 285.24902 
L 122.025891 287.389851 
L 124.310497 287.389851 
L 124.430739 289.211902 
L 126.715345 289.211902 
L 126.835588 290.426318 
L 129.120194 290.426318 
L 129.240436 291.402178 
L 131.525042 291.402178 
L 131.645285 291.771499 
L 136.334739 291.879762 
L 136.454982 292.17429 
L 138.739588 292.17429 
L 138.85983 292.539344 
L 141.144436 292.539344 
L 141.264679 293.125736 
L 143.549285 293.125736 
L 143.669527 293.748626 
L 145.954133 293.748626 
L 146.074376 294.355255 
L 148.358982 294.355255 
L 148.479224 294.704932 
L 150.76383 294.704932 
L 150.884073 294.977662 
L 153.168679 294.977662 
L 153.288921 295.228415 
L 155.573527 295.228415 
L 155.69377 295.462004 
L 157.978376 295.462004 
L 158.098618 295.62255 
L 162.788073 295.70496 
L 162.908315 295.763774 
L 184.431709 295.658983 
L 184.576 295.616396 
L 191.646255 295.529869 
L 191.790545 295.492646 
L 198.8608 295.40032 
L 198.981042 295.340328 
L 232.528679 295.43097 
L 232.67297 295.474995 
L 242.148073 295.568984 
L 242.292364 295.601902 
L 251.767467 295.709895 
L 251.911758 295.750204 
L 261.386861 295.845552 
L 261.531152 295.879244 
L 271.006255 295.981911 
L 271.150545 296.014888 
L 283.030497 296.120395 
L 283.198836 296.148008 
L 295.054739 296.255962 
L 295.223079 296.284125 
L 304.674133 296.369208 
L 304.842473 296.396211 
L 326.31777 296.50729 
L 326.822788 296.512875 
L 364.795345 296.413385 
L 365.011782 296.396941 
L 376.819588 296.305272 
L 376.987927 296.279771 
L 388.84383 296.172091 
L 389.01217 296.144737 
L 398.487273 296.036299 
L 398.487273 296.036299 
" style="fill:none;stroke:#4c72b0;stroke-linecap:round;stroke-width:2;"/>
   </g>
   <g id="patch_9">
    <path d="M 57.6 307.584 
L 57.6 186.624 
" style="fill:none;"/>
   </g>
   <g id="patch_10">
    <path d="M 414.72 307.584 
L 414.72 186.624 
" style="fill:none;"/>
   </g>
   <g id="patch_11">
    <path d="M 57.6 307.584 
L 414.72 307.584 
" style="fill:none;"/>
   </g>
   <g id="patch_12">
    <path d="M 57.6 186.624 
L 414.72 186.624 
" style="fill:none;"/>
   </g>
   <g id="legend_2">
    <g id="patch_13">
     <path d="M 332.238683 205.071045 
L 408.889 205.071045 
Q 410.555 205.071045 410.555 203.405045 
L 410.555 192.455 
Q 410.555 190.789 408.889 190.789 
L 332.238683 190.789 
Q 330.572683 190.789 330.572683 192.455 
L 330.572683 203.405045 
Q 330.572683 205.071045 332.238683 205.071045 
z
" style="fill:#eaeaf2;opacity:0.8;"/>
    </g>
    <g id="line2d_58">
     <path d="M 333.904683 197.167958 
L 350.564683 197.167958 
" style="fill:none;stroke:#4c72b0;stroke-linecap:round;stroke-width:2;"/>
    </g>
    <g id="line2d_59"/>
    <g id="text_21">
     <!-- Estimate of C -->
     <defs>
      <path d="M 58.796875 25.09375 
L 68.265625 22.703125 
Q 65.28125 11.03125 57.546875 4.90625 
Q 49.8125 -1.21875 38.625 -1.21875 
Q 27.046875 -1.21875 19.796875 3.484375 
Q 12.546875 8.203125 8.765625 17.140625 
Q 4.984375 26.078125 4.984375 36.328125 
Q 4.984375 47.515625 9.25 55.828125 
Q 13.53125 64.15625 21.40625 68.46875 
Q 29.296875 72.796875 38.765625 72.796875 
Q 49.515625 72.796875 56.828125 67.328125 
Q 64.15625 61.859375 67.046875 51.953125 
L 57.71875 49.75 
Q 55.21875 57.5625 50.484375 61.125 
Q 45.75 64.703125 38.578125 64.703125 
Q 30.328125 64.703125 24.78125 60.734375 
Q 19.234375 56.78125 16.984375 50.109375 
Q 14.75 43.453125 14.75 36.375 
Q 14.75 27.25 17.40625 20.4375 
Q 20.0625 13.625 25.671875 10.25 
Q 31.296875 6.890625 37.84375 6.890625 
Q 45.796875 6.890625 51.3125 11.46875 
Q 56.84375 16.0625 58.796875 25.09375 
z
" id="ArialMT-67"/>
     </defs>
     <g style="fill:#262626;" transform="translate(357.228683 200.083458)scale(0.0833 -0.0833)">
      <use xlink:href="#ArialMT-69"/>
      <use x="66.699219" xlink:href="#ArialMT-115"/>
      <use x="116.699219" xlink:href="#ArialMT-116"/>
      <use x="144.482422" xlink:href="#ArialMT-105"/>
      <use x="166.699219" xlink:href="#ArialMT-109"/>
      <use x="250" xlink:href="#ArialMT-97"/>
      <use x="305.615234" xlink:href="#ArialMT-116"/>
      <use x="333.398438" xlink:href="#ArialMT-101"/>
      <use x="389.013672" xlink:href="#ArialMT-32"/>
      <use x="416.796875" xlink:href="#ArialMT-111"/>
      <use x="472.412109" xlink:href="#ArialMT-102"/>
      <use x="500.195312" xlink:href="#ArialMT-32"/>
      <use x="527.978516" xlink:href="#ArialMT-67"/>
     </g>
    </g>
   </g>
  </g>
 </g>
 <defs>
  <clipPath id="p517df78575">
   <rect height="120.96" width="357.12" x="57.6" y="41.472"/>
  </clipPath>
  <clipPath id="p923da7bb5e">
   <rect height="120.96" width="357.12" x="57.6" y="186.624"/>
  </clipPath>
 </defs>
</svg>
