<?xml version="1.0" encoding="utf-8" standalone="no"?>
<!DOCTYPE svg PUBLIC "-//W3C//DTD SVG 1.1//EN"
  "http://www.w3.org/Graphics/SVG/1.1/DTD/svg11.dtd">
<!-- Created with matplotlib (https://matplotlib.org/) -->
<svg height="345.6pt" version="1.1" viewBox="0 0 460.8 345.6" width="460.8pt" xmlns="http://www.w3.org/2000/svg" xmlns:xlink="http://www.w3.org/1999/xlink">
 <defs>
  <style type="text/css">
*{stroke-linecap:butt;stroke-linejoin:round;}
  </style>
 </defs>
 <g id="figure_1">
  <g id="patch_1">
   <path d="M 0 345.6 
L 460.8 345.6 
L 460.8 0 
L 0 0 
z
" style="fill:#ffffff;"/>
  </g>
  <g id="axes_1">
   <g id="patch_2">
    <path d="M 57.6 162.432 
L 414.72 162.432 
L 414.72 41.472 
L 57.6 41.472 
z
" style="fill:#eaeaf2;"/>
   </g>
   <g id="matplotlib.axis_1">
    <g id="xtick_1">
     <g id="line2d_1">
      <path clip-path="url(#p81ccb1c064)" d="M 73.832727 162.432 
L 73.832727 41.472 
" style="fill:none;stroke:#ffffff;stroke-linecap:round;stroke-width:0.8;"/>
     </g>
     <g id="line2d_2"/>
    </g>
    <g id="xtick_2">
     <g id="line2d_3">
      <path clip-path="url(#p81ccb1c064)" d="M 121.929697 162.432 
L 121.929697 41.472 
" style="fill:none;stroke:#ffffff;stroke-linecap:round;stroke-width:0.8;"/>
     </g>
     <g id="line2d_4"/>
    </g>
    <g id="xtick_3">
     <g id="line2d_5">
      <path clip-path="url(#p81ccb1c064)" d="M 170.026667 162.432 
L 170.026667 41.472 
" style="fill:none;stroke:#ffffff;stroke-linecap:round;stroke-width:0.8;"/>
     </g>
     <g id="line2d_6"/>
    </g>
    <g id="xtick_4">
     <g id="line2d_7">
      <path clip-path="url(#p81ccb1c064)" d="M 218.123636 162.432 
L 218.123636 41.472 
" style="fill:none;stroke:#ffffff;stroke-linecap:round;stroke-width:0.8;"/>
     </g>
     <g id="line2d_8"/>
    </g>
    <g id="xtick_5">
     <g id="line2d_9">
      <path clip-path="url(#p81ccb1c064)" d="M 266.220606 162.432 
L 266.220606 41.472 
" style="fill:none;stroke:#ffffff;stroke-linecap:round;stroke-width:0.8;"/>
     </g>
     <g id="line2d_10"/>
    </g>
    <g id="xtick_6">
     <g id="line2d_11">
      <path clip-path="url(#p81ccb1c064)" d="M 314.317576 162.432 
L 314.317576 41.472 
" style="fill:none;stroke:#ffffff;stroke-linecap:round;stroke-width:0.8;"/>
     </g>
     <g id="line2d_12"/>
    </g>
    <g id="xtick_7">
     <g id="line2d_13">
      <path clip-path="url(#p81ccb1c064)" d="M 362.414545 162.432 
L 362.414545 41.472 
" style="fill:none;stroke:#ffffff;stroke-linecap:round;stroke-width:0.8;"/>
     </g>
     <g id="line2d_14"/>
    </g>
    <g id="xtick_8">
     <g id="line2d_15">
      <path clip-path="url(#p81ccb1c064)" d="M 410.511515 162.432 
L 410.511515 41.472 
" style="fill:none;stroke:#ffffff;stroke-linecap:round;stroke-width:0.8;"/>
     </g>
     <g id="line2d_16"/>
    </g>
   </g>
   <g id="matplotlib.axis_2">
    <g id="ytick_1">
     <g id="line2d_17">
      <path clip-path="url(#p81ccb1c064)" d="M 57.6 156.933818 
L 414.72 156.933818 
" style="fill:none;stroke:#ffffff;stroke-linecap:round;stroke-width:0.8;"/>
     </g>
     <g id="line2d_18"/>
     <g id="text_1">
      <!-- 0 -->
      <defs>
       <path d="M 4.15625 35.296875 
Q 4.15625 48 6.765625 55.734375 
Q 9.375 63.484375 14.515625 67.671875 
Q 19.671875 71.875 27.484375 71.875 
Q 33.25 71.875 37.59375 69.546875 
Q 41.9375 67.234375 44.765625 62.859375 
Q 47.609375 58.5 49.21875 52.21875 
Q 50.828125 45.953125 50.828125 35.296875 
Q 50.828125 22.703125 48.234375 14.96875 
Q 45.65625 7.234375 40.5 3 
Q 35.359375 -1.21875 27.484375 -1.21875 
Q 17.140625 -1.21875 11.234375 6.203125 
Q 4.15625 15.140625 4.15625 35.296875 
z
M 13.1875 35.296875 
Q 13.1875 17.671875 17.3125 11.828125 
Q 21.4375 6 27.484375 6 
Q 33.546875 6 37.671875 11.859375 
Q 41.796875 17.71875 41.796875 35.296875 
Q 41.796875 52.984375 37.671875 58.78125 
Q 33.546875 64.59375 27.390625 64.59375 
Q 21.34375 64.59375 17.71875 59.46875 
Q 13.1875 52.9375 13.1875 35.296875 
z
" id="ArialMT-48"/>
      </defs>
      <g style="fill:#262626;" transform="translate(48.539062 160.512724)scale(0.1 -0.1)">
       <use xlink:href="#ArialMT-48"/>
      </g>
     </g>
    </g>
    <g id="ytick_2">
     <g id="line2d_19">
      <path clip-path="url(#p81ccb1c064)" d="M 57.6 122.135199 
L 414.72 122.135199 
" style="fill:none;stroke:#ffffff;stroke-linecap:round;stroke-width:0.8;"/>
     </g>
     <g id="line2d_20"/>
     <g id="text_2">
      <!-- 200 -->
      <defs>
       <path d="M 50.34375 8.453125 
L 50.34375 0 
L 3.03125 0 
Q 2.9375 3.171875 4.046875 6.109375 
Q 5.859375 10.9375 9.828125 15.625 
Q 13.8125 20.3125 21.34375 26.46875 
Q 33.015625 36.03125 37.109375 41.625 
Q 41.21875 47.21875 41.21875 52.203125 
Q 41.21875 57.421875 37.46875 61 
Q 33.734375 64.59375 27.734375 64.59375 
Q 21.390625 64.59375 17.578125 60.78125 
Q 13.765625 56.984375 13.71875 50.25 
L 4.6875 51.171875 
Q 5.609375 61.28125 11.65625 66.578125 
Q 17.71875 71.875 27.9375 71.875 
Q 38.234375 71.875 44.234375 66.15625 
Q 50.25 60.453125 50.25 52 
Q 50.25 47.703125 48.484375 43.546875 
Q 46.734375 39.40625 42.65625 34.8125 
Q 38.578125 30.21875 29.109375 22.21875 
Q 21.1875 15.578125 18.9375 13.203125 
Q 16.703125 10.84375 15.234375 8.453125 
z
" id="ArialMT-50"/>
      </defs>
      <g style="fill:#262626;" transform="translate(37.417187 125.714105)scale(0.1 -0.1)">
       <use xlink:href="#ArialMT-50"/>
       <use x="55.615234" xlink:href="#ArialMT-48"/>
       <use x="111.230469" xlink:href="#ArialMT-48"/>
      </g>
     </g>
    </g>
    <g id="ytick_3">
     <g id="line2d_21">
      <path clip-path="url(#p81ccb1c064)" d="M 57.6 87.33658 
L 414.72 87.33658 
" style="fill:none;stroke:#ffffff;stroke-linecap:round;stroke-width:0.8;"/>
     </g>
     <g id="line2d_22"/>
     <g id="text_3">
      <!-- 400 -->
      <defs>
       <path d="M 32.328125 0 
L 32.328125 17.140625 
L 1.265625 17.140625 
L 1.265625 25.203125 
L 33.9375 71.578125 
L 41.109375 71.578125 
L 41.109375 25.203125 
L 50.78125 25.203125 
L 50.78125 17.140625 
L 41.109375 17.140625 
L 41.109375 0 
z
M 32.328125 25.203125 
L 32.328125 57.46875 
L 9.90625 25.203125 
z
" id="ArialMT-52"/>
      </defs>
      <g style="fill:#262626;" transform="translate(37.417187 90.915486)scale(0.1 -0.1)">
       <use xlink:href="#ArialMT-52"/>
       <use x="55.615234" xlink:href="#ArialMT-48"/>
       <use x="111.230469" xlink:href="#ArialMT-48"/>
      </g>
     </g>
    </g>
    <g id="ytick_4">
     <g id="line2d_23">
      <path clip-path="url(#p81ccb1c064)" d="M 57.6 52.537961 
L 414.72 52.537961 
" style="fill:none;stroke:#ffffff;stroke-linecap:round;stroke-width:0.8;"/>
     </g>
     <g id="line2d_24"/>
     <g id="text_4">
      <!-- 600 -->
      <defs>
       <path d="M 49.75 54.046875 
L 41.015625 53.375 
Q 39.84375 58.546875 37.703125 60.890625 
Q 34.125 64.65625 28.90625 64.65625 
Q 24.703125 64.65625 21.53125 62.3125 
Q 17.390625 59.28125 14.984375 53.46875 
Q 12.59375 47.65625 12.5 36.921875 
Q 15.671875 41.75 20.265625 44.09375 
Q 24.859375 46.4375 29.890625 46.4375 
Q 38.671875 46.4375 44.84375 39.96875 
Q 51.03125 33.5 51.03125 23.25 
Q 51.03125 16.5 48.125 10.71875 
Q 45.21875 4.9375 40.140625 1.859375 
Q 35.0625 -1.21875 28.609375 -1.21875 
Q 17.625 -1.21875 10.6875 6.859375 
Q 3.765625 14.9375 3.765625 33.5 
Q 3.765625 54.25 11.421875 63.671875 
Q 18.109375 71.875 29.4375 71.875 
Q 37.890625 71.875 43.28125 67.140625 
Q 48.6875 62.40625 49.75 54.046875 
z
M 13.875 23.1875 
Q 13.875 18.65625 15.796875 14.5 
Q 17.71875 10.359375 21.1875 8.171875 
Q 24.65625 6 28.46875 6 
Q 34.03125 6 38.03125 10.484375 
Q 42.046875 14.984375 42.046875 22.703125 
Q 42.046875 30.125 38.078125 34.390625 
Q 34.125 38.671875 28.125 38.671875 
Q 22.171875 38.671875 18.015625 34.390625 
Q 13.875 30.125 13.875 23.1875 
z
" id="ArialMT-54"/>
      </defs>
      <g style="fill:#262626;" transform="translate(37.417187 56.116867)scale(0.1 -0.1)">
       <use xlink:href="#ArialMT-54"/>
       <use x="55.615234" xlink:href="#ArialMT-48"/>
       <use x="111.230469" xlink:href="#ArialMT-48"/>
      </g>
     </g>
    </g>
   </g>
   <g id="line2d_25">
    <path clip-path="url(#p81ccb1c064)" d="M 73.832727 156.933818 
L 73.95297 156.766604 
L 76.213527 156.754612 
L 76.33377 156.901777 
L 95.452315 156.670173 
L 95.596606 156.611153 
L 99.492461 156.31508 
L 102.666861 156.125187 
L 102.787103 155.238055 
L 104.374303 154.609484 
L 105.071709 154.24747 
L 105.191952 153.575099 
L 106.274133 152.55795 
L 107.28417 151.299726 
L 107.476558 151.019293 
L 107.500606 152.971579 
L 107.5968 152.909907 
L 108.919467 151.921434 
L 109.881406 151.015559 
L 109.905455 152.044127 
L 110.001648 151.979696 
L 111.420509 150.889223 
L 112.286255 150.080392 
L 112.310303 151.772583 
L 112.406497 151.733086 
L 114.378473 150.796179 
L 115.22017 150.216158 
L 117.023806 148.957196 
L 117.095952 148.901105 
L 117.12 149.532403 
L 117.216194 149.474129 
L 119.212218 148.12885 
L 121.905648 146.032163 
L 121.929697 147.154093 
L 122.025891 147.091111 
L 124.310497 145.45794 
L 124.334545 146.361938 
L 124.430739 146.305796 
L 126.715345 144.875321 
L 126.739394 145.692698 
L 126.835588 145.643675 
L 129.120194 144.413324 
L 129.144242 145.322715 
L 129.240436 145.284028 
L 133.929891 143.306763 
L 134.050133 143.078996 
L 136.334739 141.932366 
L 136.358788 142.227915 
L 136.454982 142.1819 
L 138.739588 141.052978 
L 138.763636 141.443733 
L 138.85983 141.399601 
L 141.144436 140.322154 
L 141.168485 141.090219 
L 141.264679 141.051886 
L 143.549285 140.122678 
L 143.573333 140.91798 
L 143.669527 140.885478 
L 145.954133 140.102434 
L 145.978182 140.593273 
L 146.074376 140.564246 
L 148.358982 139.867915 
L 148.38303 140.077073 
L 148.479224 140.049388 
L 150.76383 139.386776 
L 150.787879 139.636369 
L 150.884073 139.610309 
L 153.168679 138.988007 
L 153.192727 139.244263 
L 153.288921 139.219961 
L 155.573527 138.641033 
L 155.597576 138.963923 
L 155.69377 138.941874 
L 157.978376 138.418101 
L 158.002424 138.690454 
L 158.098618 138.670226 
L 165.192921 137.206785 
L 165.313164 136.999014 
L 170.002618 135.913012 
L 170.122861 135.752497 
L 174.812315 134.576591 
L 175.076848 134.501266 
L 177.217164 134.001616 
L 177.337406 133.693257 
L 179.622012 133.125044 
L 179.742255 132.766186 
L 182.026861 132.154928 
L 182.147103 131.918175 
L 184.431709 131.276954 
L 184.551952 131.004195 
L 186.836558 130.32795 
L 186.9568 130.104 
L 189.241406 129.397424 
L 189.361648 129.066415 
L 191.646255 128.315733 
L 191.766497 128.033646 
L 194.051103 127.243367 
L 194.171345 126.896664 
L 196.455952 126.059938 
L 196.576194 125.720061 
L 198.8608 124.835451 
L 198.981042 124.376247 
L 201.265648 123.428779 
L 201.385891 123.079221 
L 205.450085 121.198133 
L 222.909285 113.250935 
L 222.933333 113.430937 
L 223.029527 113.382672 
L 225.314133 112.22477 
L 225.338182 112.502336 
L 225.434376 112.454151 
L 227.718982 111.298587 
L 227.74303 111.715817 
L 227.839224 111.668214 
L 230.12383 110.527126 
L 230.147879 111.049027 
L 230.244073 111.002372 
L 232.528679 109.884638 
L 232.552727 110.30299 
L 232.648921 110.25697 
L 234.933527 109.154906 
L 234.957576 109.512544 
L 235.05377 109.466959 
L 237.338376 108.375682 
L 237.362424 108.690679 
L 237.458618 108.64542 
L 239.743224 107.56228 
L 239.767273 107.876583 
L 239.863467 107.831669 
L 242.148073 106.757108 
L 242.172121 107.126982 
L 242.268315 107.082621 
L 244.552921 106.021631 
L 244.57697 106.355427 
L 244.673164 106.31155 
L 246.95777 105.262474 
L 246.981818 105.663866 
L 247.078012 105.620656 
L 249.362618 104.587864 
L 249.386667 105.017665 
L 249.482861 104.975197 
L 251.767467 103.960492 
L 251.791515 104.43764 
L 251.887709 104.396078 
L 254.172315 103.403378 
L 254.196364 103.785414 
L 254.292558 103.744497 
L 256.577164 102.767502 
L 256.601212 103.153632 
L 256.697406 103.113359 
L 258.982012 102.151988 
L 259.006061 102.628769 
L 259.102255 102.589376 
L 261.386861 101.649321 
L 261.410909 102.1039 
L 261.507103 102.065311 
L 263.791709 101.144719 
L 263.815758 101.589702 
L 263.911952 101.551927 
L 266.196558 100.651022 
L 266.220606 101.097053 
L 266.3168 101.060125 
L 268.601406 100.179656 
L 268.625455 100.59776 
L 268.721648 100.561584 
L 271.006255 99.699274 
L 271.030303 100.131136 
L 271.126497 100.09574 
L 273.411103 99.252255 
L 273.435152 99.644122 
L 273.531345 99.609401 
L 275.815952 98.782178 
L 275.84 99.170518 
L 275.936194 99.13645 
L 278.2208 98.324966 
L 278.244848 98.727221 
L 278.341042 98.693837 
L 280.625648 97.89881 
L 280.649697 98.281461 
L 280.745891 98.248719 
L 283.030497 97.469166 
L 283.054545 97.897344 
L 283.150739 97.865351 
L 285.435345 97.103783 
L 285.459394 97.571695 
L 285.555588 97.540512 
L 287.840194 96.798389 
L 287.864242 97.275604 
L 287.960436 97.245241 
L 290.245042 96.522787 
L 290.269091 96.992722 
L 290.365285 96.963174 
L 292.649891 96.260269 
L 292.673939 96.692465 
L 292.770133 96.663681 
L 295.054739 95.979097 
L 295.078788 96.444692 
L 295.174982 96.416723 
L 297.459588 95.75167 
L 297.483636 96.229532 
L 297.57983 96.202408 
L 299.864436 95.557588 
L 299.888485 96.028163 
L 299.984679 96.001871 
L 302.269285 95.376944 
L 302.293333 95.836321 
L 302.389527 95.810825 
L 304.674133 95.204957 
L 304.698182 95.700066 
L 304.794376 95.675417 
L 307.078982 95.089788 
L 307.10303 95.536356 
L 307.199224 95.512506 
L 309.48383 94.94598 
L 309.507879 95.445625 
L 309.604073 95.422649 
L 311.888679 94.876991 
L 311.912727 95.303147 
L 312.008921 95.280907 
L 314.293527 94.752833 
L 314.317576 95.104746 
L 314.41377 95.08311 
L 316.698376 94.569479 
L 316.722424 94.893125 
L 316.818618 94.872045 
L 319.103224 94.371678 
L 319.127273 94.607002 
L 319.223467 94.586324 
L 321.508073 94.095546 
L 321.532121 94.30466 
L 321.628315 94.284341 
L 323.912921 93.80213 
L 323.93697 94.004507 
L 324.033164 93.984547 
L 326.31777 93.510932 
L 326.341818 93.729889 
L 326.438012 93.71031 
L 328.722618 93.24577 
L 328.746667 93.464318 
L 328.842861 93.445114 
L 331.127467 92.989536 
L 331.151515 93.176162 
L 331.247709 93.157289 
L 333.532315 92.709612 
L 333.556364 92.839892 
L 333.652558 92.82127 
L 340.746861 91.373154 
L 340.867103 91.218815 
L 343.151709 90.773733 
L 343.271952 90.63037 
L 345.556558 90.182641 
L 345.6768 89.929167 
L 347.961406 89.475546 
L 348.081648 89.211123 
L 350.366255 88.751232 
L 350.486497 88.487042 
L 352.771103 88.020918 
L 352.891345 87.667319 
L 355.175952 87.192296 
L 355.296194 86.794976 
L 357.5808 86.309847 
L 357.701042 85.819752 
L 359.985648 85.321578 
L 360.105891 84.807377 
L 362.390497 84.295444 
L 362.510739 83.803028 
L 364.795345 83.277819 
L 364.915588 82.765357 
L 367.200194 82.226496 
L 367.320436 81.663184 
L 369.605042 81.109269 
L 369.725285 80.459941 
L 372.009891 79.888273 
L 372.130133 79.216247 
L 374.414739 78.625683 
L 374.534982 77.963857 
L 376.819588 77.354733 
L 376.93983 76.593152 
L 379.224436 75.962077 
L 379.344679 75.133661 
L 381.629285 74.478356 
L 381.749527 73.693069 
L 384.034133 73.01489 
L 384.154376 72.23286 
L 386.438982 71.531639 
L 386.559224 70.647669 
L 388.84383 69.920455 
L 388.964073 69.104748 
L 391.248679 68.352561 
L 391.368921 67.555544 
L 393.653527 66.778993 
L 393.77377 65.816695 
L 396.058376 65.010721 
L 396.178618 64.05444 
L 398.463224 63.218766 
L 398.487273 62.143417 
L 398.487273 62.143417 
" style="fill:none;stroke:#4c72b0;stroke-linecap:round;stroke-width:2;"/>
   </g>
   <g id="line2d_26">
    <defs>
     <path d="M 0 -3 
L -0.673542 -0.927051 
L -2.85317 -0.927051 
L -1.089814 0.354102 
L -1.763356 2.427051 
L -0 1.145898 
L 1.763356 2.427051 
L 1.089814 0.354102 
L 2.85317 -0.927051 
L 0.673542 -0.927051 
z
" id="m91706cd9f8" style="stroke:#55a868;stroke-linejoin:bevel;"/>
    </defs>
    <g clip-path="url(#p81ccb1c064)">
     <use style="fill:#55a868;stroke:#55a868;stroke-linejoin:bevel;" x="76.237576" xlink:href="#m91706cd9f8" y="156.933818"/>
     <use style="fill:#55a868;stroke:#55a868;stroke-linejoin:bevel;" x="78.642424" xlink:href="#m91706cd9f8" y="156.933818"/>
     <use style="fill:#55a868;stroke:#55a868;stroke-linejoin:bevel;" x="81.047273" xlink:href="#m91706cd9f8" y="156.933818"/>
     <use style="fill:#55a868;stroke:#55a868;stroke-linejoin:bevel;" x="83.452121" xlink:href="#m91706cd9f8" y="156.933818"/>
     <use style="fill:#55a868;stroke:#55a868;stroke-linejoin:bevel;" x="85.85697" xlink:href="#m91706cd9f8" y="156.933818"/>
     <use style="fill:#55a868;stroke:#55a868;stroke-linejoin:bevel;" x="88.261818" xlink:href="#m91706cd9f8" y="156.933818"/>
     <use style="fill:#55a868;stroke:#55a868;stroke-linejoin:bevel;" x="90.666667" xlink:href="#m91706cd9f8" y="156.759825"/>
     <use style="fill:#55a868;stroke:#55a868;stroke-linejoin:bevel;" x="93.071515" xlink:href="#m91706cd9f8" y="156.759825"/>
     <use style="fill:#55a868;stroke:#55a868;stroke-linejoin:bevel;" x="95.476364" xlink:href="#m91706cd9f8" y="156.585832"/>
     <use style="fill:#55a868;stroke:#55a868;stroke-linejoin:bevel;" x="97.881212" xlink:href="#m91706cd9f8" y="156.411839"/>
     <use style="fill:#55a868;stroke:#55a868;stroke-linejoin:bevel;" x="100.286061" xlink:href="#m91706cd9f8" y="156.411839"/>
     <use style="fill:#55a868;stroke:#55a868;stroke-linejoin:bevel;" x="102.690909" xlink:href="#m91706cd9f8" y="154.845901"/>
     <use style="fill:#55a868;stroke:#55a868;stroke-linejoin:bevel;" x="105.095758" xlink:href="#m91706cd9f8" y="153.453956"/>
     <use style="fill:#55a868;stroke:#55a868;stroke-linejoin:bevel;" x="107.500606" xlink:href="#m91706cd9f8" y="153.279963"/>
     <use style="fill:#55a868;stroke:#55a868;stroke-linejoin:bevel;" x="109.905455" xlink:href="#m91706cd9f8" y="152.236005"/>
     <use style="fill:#55a868;stroke:#55a868;stroke-linejoin:bevel;" x="112.310303" xlink:href="#m91706cd9f8" y="152.236005"/>
     <use style="fill:#55a868;stroke:#55a868;stroke-linejoin:bevel;" x="114.715152" xlink:href="#m91706cd9f8" y="150.496074"/>
     <use style="fill:#55a868;stroke:#55a868;stroke-linejoin:bevel;" x="117.12" xlink:href="#m91706cd9f8" y="149.800101"/>
     <use style="fill:#55a868;stroke:#55a868;stroke-linejoin:bevel;" x="119.524848" xlink:href="#m91706cd9f8" y="148.06017"/>
     <use style="fill:#55a868;stroke:#55a868;stroke-linejoin:bevel;" x="121.929697" xlink:href="#m91706cd9f8" y="147.712184"/>
     <use style="fill:#55a868;stroke:#55a868;stroke-linejoin:bevel;" x="124.334545" xlink:href="#m91706cd9f8" y="146.842219"/>
     <use style="fill:#55a868;stroke:#55a868;stroke-linejoin:bevel;" x="126.739394" xlink:href="#m91706cd9f8" y="146.146246"/>
     <use style="fill:#55a868;stroke:#55a868;stroke-linejoin:bevel;" x="129.144242" xlink:href="#m91706cd9f8" y="145.79826"/>
     <use style="fill:#55a868;stroke:#55a868;stroke-linejoin:bevel;" x="131.549091" xlink:href="#m91706cd9f8" y="144.406315"/>
     <use style="fill:#55a868;stroke:#55a868;stroke-linejoin:bevel;" x="133.953939" xlink:href="#m91706cd9f8" y="143.014371"/>
     <use style="fill:#55a868;stroke:#55a868;stroke-linejoin:bevel;" x="136.358788" xlink:href="#m91706cd9f8" y="142.492391"/>
     <use style="fill:#55a868;stroke:#55a868;stroke-linejoin:bevel;" x="138.763636" xlink:href="#m91706cd9f8" y="141.796419"/>
     <use style="fill:#55a868;stroke:#55a868;stroke-linejoin:bevel;" x="141.168485" xlink:href="#m91706cd9f8" y="141.796419"/>
     <use style="fill:#55a868;stroke:#55a868;stroke-linejoin:bevel;" x="143.573333" xlink:href="#m91706cd9f8" y="141.796419"/>
     <use style="fill:#55a868;stroke:#55a868;stroke-linejoin:bevel;" x="145.978182" xlink:href="#m91706cd9f8" y="141.448433"/>
     <use style="fill:#55a868;stroke:#55a868;stroke-linejoin:bevel;" x="148.38303" xlink:href="#m91706cd9f8" y="140.404474"/>
     <use style="fill:#55a868;stroke:#55a868;stroke-linejoin:bevel;" x="150.787879" xlink:href="#m91706cd9f8" y="140.056488"/>
     <use style="fill:#55a868;stroke:#55a868;stroke-linejoin:bevel;" x="153.192727" xlink:href="#m91706cd9f8" y="139.708502"/>
     <use style="fill:#55a868;stroke:#55a868;stroke-linejoin:bevel;" x="155.597576" xlink:href="#m91706cd9f8" y="139.534509"/>
     <use style="fill:#55a868;stroke:#55a868;stroke-linejoin:bevel;" x="158.002424" xlink:href="#m91706cd9f8" y="139.186522"/>
     <use style="fill:#55a868;stroke:#55a868;stroke-linejoin:bevel;" x="160.407273" xlink:href="#m91706cd9f8" y="138.316557"/>
     <use style="fill:#55a868;stroke:#55a868;stroke-linejoin:bevel;" x="162.812121" xlink:href="#m91706cd9f8" y="137.620585"/>
     <use style="fill:#55a868;stroke:#55a868;stroke-linejoin:bevel;" x="165.21697" xlink:href="#m91706cd9f8" y="136.576626"/>
     <use style="fill:#55a868;stroke:#55a868;stroke-linejoin:bevel;" x="167.621818" xlink:href="#m91706cd9f8" y="136.22864"/>
     <use style="fill:#55a868;stroke:#55a868;stroke-linejoin:bevel;" x="170.026667" xlink:href="#m91706cd9f8" y="135.358674"/>
     <use style="fill:#55a868;stroke:#55a868;stroke-linejoin:bevel;" x="172.431515" xlink:href="#m91706cd9f8" y="134.836695"/>
     <use style="fill:#55a868;stroke:#55a868;stroke-linejoin:bevel;" x="174.836364" xlink:href="#m91706cd9f8" y="134.488709"/>
     <use style="fill:#55a868;stroke:#55a868;stroke-linejoin:bevel;" x="177.241212" xlink:href="#m91706cd9f8" y="132.574785"/>
     <use style="fill:#55a868;stroke:#55a868;stroke-linejoin:bevel;" x="179.646061" xlink:href="#m91706cd9f8" y="131.356833"/>
     <use style="fill:#55a868;stroke:#55a868;stroke-linejoin:bevel;" x="182.050909" xlink:href="#m91706cd9f8" y="131.008847"/>
     <use style="fill:#55a868;stroke:#55a868;stroke-linejoin:bevel;" x="184.455758" xlink:href="#m91706cd9f8" y="129.964888"/>
     <use style="fill:#55a868;stroke:#55a868;stroke-linejoin:bevel;" x="186.860606" xlink:href="#m91706cd9f8" y="129.268916"/>
     <use style="fill:#55a868;stroke:#55a868;stroke-linejoin:bevel;" x="189.265455" xlink:href="#m91706cd9f8" y="127.702978"/>
     <use style="fill:#55a868;stroke:#55a868;stroke-linejoin:bevel;" x="191.670303" xlink:href="#m91706cd9f8" y="127.007006"/>
     <use style="fill:#55a868;stroke:#55a868;stroke-linejoin:bevel;" x="194.075152" xlink:href="#m91706cd9f8" y="125.615061"/>
     <use style="fill:#55a868;stroke:#55a868;stroke-linejoin:bevel;" x="196.48" xlink:href="#m91706cd9f8" y="124.571102"/>
     <use style="fill:#55a868;stroke:#55a868;stroke-linejoin:bevel;" x="198.884848" xlink:href="#m91706cd9f8" y="122.831171"/>
     <use style="fill:#55a868;stroke:#55a868;stroke-linejoin:bevel;" x="201.289697" xlink:href="#m91706cd9f8" y="121.787213"/>
     <use style="fill:#55a868;stroke:#55a868;stroke-linejoin:bevel;" x="203.694545" xlink:href="#m91706cd9f8" y="121.61322"/>
     <use style="fill:#55a868;stroke:#55a868;stroke-linejoin:bevel;" x="206.099394" xlink:href="#m91706cd9f8" y="120.569261"/>
     <use style="fill:#55a868;stroke:#55a868;stroke-linejoin:bevel;" x="208.504242" xlink:href="#m91706cd9f8" y="120.395268"/>
     <use style="fill:#55a868;stroke:#55a868;stroke-linejoin:bevel;" x="210.909091" xlink:href="#m91706cd9f8" y="118.82933"/>
     <use style="fill:#55a868;stroke:#55a868;stroke-linejoin:bevel;" x="213.313939" xlink:href="#m91706cd9f8" y="118.133358"/>
     <use style="fill:#55a868;stroke:#55a868;stroke-linejoin:bevel;" x="215.718788" xlink:href="#m91706cd9f8" y="117.089399"/>
     <use style="fill:#55a868;stroke:#55a868;stroke-linejoin:bevel;" x="218.123636" xlink:href="#m91706cd9f8" y="115.697455"/>
     <use style="fill:#55a868;stroke:#55a868;stroke-linejoin:bevel;" x="220.528485" xlink:href="#m91706cd9f8" y="115.001482"/>
     <use style="fill:#55a868;stroke:#55a868;stroke-linejoin:bevel;" x="222.933333" xlink:href="#m91706cd9f8" y="114.30551"/>
     <use style="fill:#55a868;stroke:#55a868;stroke-linejoin:bevel;" x="225.338182" xlink:href="#m91706cd9f8" y="113.78353"/>
     <use style="fill:#55a868;stroke:#55a868;stroke-linejoin:bevel;" x="227.74303" xlink:href="#m91706cd9f8" y="113.609537"/>
     <use style="fill:#55a868;stroke:#55a868;stroke-linejoin:bevel;" x="230.147879" xlink:href="#m91706cd9f8" y="113.435544"/>
     <use style="fill:#55a868;stroke:#55a868;stroke-linejoin:bevel;" x="232.552727" xlink:href="#m91706cd9f8" y="112.391586"/>
     <use style="fill:#55a868;stroke:#55a868;stroke-linejoin:bevel;" x="234.957576" xlink:href="#m91706cd9f8" y="111.347627"/>
     <use style="fill:#55a868;stroke:#55a868;stroke-linejoin:bevel;" x="237.362424" xlink:href="#m91706cd9f8" y="110.303669"/>
     <use style="fill:#55a868;stroke:#55a868;stroke-linejoin:bevel;" x="239.767273" xlink:href="#m91706cd9f8" y="109.607696"/>
     <use style="fill:#55a868;stroke:#55a868;stroke-linejoin:bevel;" x="242.172121" xlink:href="#m91706cd9f8" y="109.25971"/>
     <use style="fill:#55a868;stroke:#55a868;stroke-linejoin:bevel;" x="244.57697" xlink:href="#m91706cd9f8" y="108.563738"/>
     <use style="fill:#55a868;stroke:#55a868;stroke-linejoin:bevel;" x="246.981818" xlink:href="#m91706cd9f8" y="108.215751"/>
     <use style="fill:#55a868;stroke:#55a868;stroke-linejoin:bevel;" x="249.386667" xlink:href="#m91706cd9f8" y="107.519779"/>
     <use style="fill:#55a868;stroke:#55a868;stroke-linejoin:bevel;" x="251.791515" xlink:href="#m91706cd9f8" y="107.345786"/>
     <use style="fill:#55a868;stroke:#55a868;stroke-linejoin:bevel;" x="254.196364" xlink:href="#m91706cd9f8" y="106.301827"/>
     <use style="fill:#55a868;stroke:#55a868;stroke-linejoin:bevel;" x="256.601212" xlink:href="#m91706cd9f8" y="105.605855"/>
     <use style="fill:#55a868;stroke:#55a868;stroke-linejoin:bevel;" x="259.006061" xlink:href="#m91706cd9f8" y="105.431862"/>
     <use style="fill:#55a868;stroke:#55a868;stroke-linejoin:bevel;" x="261.410909" xlink:href="#m91706cd9f8" y="105.257869"/>
     <use style="fill:#55a868;stroke:#55a868;stroke-linejoin:bevel;" x="263.815758" xlink:href="#m91706cd9f8" y="104.73589"/>
     <use style="fill:#55a868;stroke:#55a868;stroke-linejoin:bevel;" x="266.220606" xlink:href="#m91706cd9f8" y="104.039917"/>
     <use style="fill:#55a868;stroke:#55a868;stroke-linejoin:bevel;" x="268.625455" xlink:href="#m91706cd9f8" y="103.691931"/>
     <use style="fill:#55a868;stroke:#55a868;stroke-linejoin:bevel;" x="271.030303" xlink:href="#m91706cd9f8" y="103.169952"/>
     <use style="fill:#55a868;stroke:#55a868;stroke-linejoin:bevel;" x="273.435152" xlink:href="#m91706cd9f8" y="102.299986"/>
     <use style="fill:#55a868;stroke:#55a868;stroke-linejoin:bevel;" x="275.84" xlink:href="#m91706cd9f8" y="101.778007"/>
     <use style="fill:#55a868;stroke:#55a868;stroke-linejoin:bevel;" x="278.244848" xlink:href="#m91706cd9f8" y="101.604014"/>
     <use style="fill:#55a868;stroke:#55a868;stroke-linejoin:bevel;" x="280.649697" xlink:href="#m91706cd9f8" y="101.256028"/>
     <use style="fill:#55a868;stroke:#55a868;stroke-linejoin:bevel;" x="283.054545" xlink:href="#m91706cd9f8" y="101.082035"/>
     <use style="fill:#55a868;stroke:#55a868;stroke-linejoin:bevel;" x="285.459394" xlink:href="#m91706cd9f8" y="101.082035"/>
     <use style="fill:#55a868;stroke:#55a868;stroke-linejoin:bevel;" x="287.864242" xlink:href="#m91706cd9f8" y="101.082035"/>
     <use style="fill:#55a868;stroke:#55a868;stroke-linejoin:bevel;" x="290.269091" xlink:href="#m91706cd9f8" y="101.082035"/>
     <use style="fill:#55a868;stroke:#55a868;stroke-linejoin:bevel;" x="292.673939" xlink:href="#m91706cd9f8" y="100.734048"/>
     <use style="fill:#55a868;stroke:#55a868;stroke-linejoin:bevel;" x="295.078788" xlink:href="#m91706cd9f8" y="100.734048"/>
     <use style="fill:#55a868;stroke:#55a868;stroke-linejoin:bevel;" x="297.483636" xlink:href="#m91706cd9f8" y="100.560055"/>
     <use style="fill:#55a868;stroke:#55a868;stroke-linejoin:bevel;" x="299.888485" xlink:href="#m91706cd9f8" y="100.560055"/>
     <use style="fill:#55a868;stroke:#55a868;stroke-linejoin:bevel;" x="302.293333" xlink:href="#m91706cd9f8" y="100.386062"/>
     <use style="fill:#55a868;stroke:#55a868;stroke-linejoin:bevel;" x="304.698182" xlink:href="#m91706cd9f8" y="100.212069"/>
     <use style="fill:#55a868;stroke:#55a868;stroke-linejoin:bevel;" x="307.10303" xlink:href="#m91706cd9f8" y="99.69009"/>
     <use style="fill:#55a868;stroke:#55a868;stroke-linejoin:bevel;" x="309.507879" xlink:href="#m91706cd9f8" y="99.69009"/>
     <use style="fill:#55a868;stroke:#55a868;stroke-linejoin:bevel;" x="311.912727" xlink:href="#m91706cd9f8" y="98.820124"/>
     <use style="fill:#55a868;stroke:#55a868;stroke-linejoin:bevel;" x="314.317576" xlink:href="#m91706cd9f8" y="98.124152"/>
     <use style="fill:#55a868;stroke:#55a868;stroke-linejoin:bevel;" x="316.722424" xlink:href="#m91706cd9f8" y="97.776166"/>
     <use style="fill:#55a868;stroke:#55a868;stroke-linejoin:bevel;" x="319.127273" xlink:href="#m91706cd9f8" y="96.732207"/>
     <use style="fill:#55a868;stroke:#55a868;stroke-linejoin:bevel;" x="321.532121" xlink:href="#m91706cd9f8" y="96.036235"/>
     <use style="fill:#55a868;stroke:#55a868;stroke-linejoin:bevel;" x="323.93697" xlink:href="#m91706cd9f8" y="95.688249"/>
     <use style="fill:#55a868;stroke:#55a868;stroke-linejoin:bevel;" x="326.341818" xlink:href="#m91706cd9f8" y="95.514255"/>
     <use style="fill:#55a868;stroke:#55a868;stroke-linejoin:bevel;" x="328.746667" xlink:href="#m91706cd9f8" y="95.340262"/>
     <use style="fill:#55a868;stroke:#55a868;stroke-linejoin:bevel;" x="331.151515" xlink:href="#m91706cd9f8" y="94.818283"/>
     <use style="fill:#55a868;stroke:#55a868;stroke-linejoin:bevel;" x="333.556364" xlink:href="#m91706cd9f8" y="93.948318"/>
     <use style="fill:#55a868;stroke:#55a868;stroke-linejoin:bevel;" x="335.961212" xlink:href="#m91706cd9f8" y="92.730366"/>
     <use style="fill:#55a868;stroke:#55a868;stroke-linejoin:bevel;" x="338.366061" xlink:href="#m91706cd9f8" y="90.816442"/>
     <use style="fill:#55a868;stroke:#55a868;stroke-linejoin:bevel;" x="340.770909" xlink:href="#m91706cd9f8" y="89.946476"/>
     <use style="fill:#55a868;stroke:#55a868;stroke-linejoin:bevel;" x="343.175758" xlink:href="#m91706cd9f8" y="89.424497"/>
     <use style="fill:#55a868;stroke:#55a868;stroke-linejoin:bevel;" x="345.580606" xlink:href="#m91706cd9f8" y="87.162587"/>
     <use style="fill:#55a868;stroke:#55a868;stroke-linejoin:bevel;" x="347.985455" xlink:href="#m91706cd9f8" y="86.118628"/>
     <use style="fill:#55a868;stroke:#55a868;stroke-linejoin:bevel;" x="350.390303" xlink:href="#m91706cd9f8" y="85.248663"/>
     <use style="fill:#55a868;stroke:#55a868;stroke-linejoin:bevel;" x="352.795152" xlink:href="#m91706cd9f8" y="83.682725"/>
     <use style="fill:#55a868;stroke:#55a868;stroke-linejoin:bevel;" x="355.2" xlink:href="#m91706cd9f8" y="82.29078"/>
     <use style="fill:#55a868;stroke:#55a868;stroke-linejoin:bevel;" x="357.604848" xlink:href="#m91706cd9f8" y="80.376856"/>
     <use style="fill:#55a868;stroke:#55a868;stroke-linejoin:bevel;" x="360.009697" xlink:href="#m91706cd9f8" y="78.984911"/>
     <use style="fill:#55a868;stroke:#55a868;stroke-linejoin:bevel;" x="362.414545" xlink:href="#m91706cd9f8" y="78.114946"/>
     <use style="fill:#55a868;stroke:#55a868;stroke-linejoin:bevel;" x="364.819394" xlink:href="#m91706cd9f8" y="76.723001"/>
     <use style="fill:#55a868;stroke:#55a868;stroke-linejoin:bevel;" x="367.224242" xlink:href="#m91706cd9f8" y="74.287098"/>
     <use style="fill:#55a868;stroke:#55a868;stroke-linejoin:bevel;" x="369.629091" xlink:href="#m91706cd9f8" y="72.72116"/>
     <use style="fill:#55a868;stroke:#55a868;stroke-linejoin:bevel;" x="372.033939" xlink:href="#m91706cd9f8" y="70.981229"/>
     <use style="fill:#55a868;stroke:#55a868;stroke-linejoin:bevel;" x="374.438788" xlink:href="#m91706cd9f8" y="69.415291"/>
     <use style="fill:#55a868;stroke:#55a868;stroke-linejoin:bevel;" x="376.843636" xlink:href="#m91706cd9f8" y="66.805395"/>
     <use style="fill:#55a868;stroke:#55a868;stroke-linejoin:bevel;" x="379.248485" xlink:href="#m91706cd9f8" y="65.239457"/>
     <use style="fill:#55a868;stroke:#55a868;stroke-linejoin:bevel;" x="381.653333" xlink:href="#m91706cd9f8" y="63.15154"/>
     <use style="fill:#55a868;stroke:#55a868;stroke-linejoin:bevel;" x="384.058182" xlink:href="#m91706cd9f8" y="61.411609"/>
     <use style="fill:#55a868;stroke:#55a868;stroke-linejoin:bevel;" x="386.46303" xlink:href="#m91706cd9f8" y="58.801712"/>
     <use style="fill:#55a868;stroke:#55a868;stroke-linejoin:bevel;" x="388.867879" xlink:href="#m91706cd9f8" y="57.235774"/>
     <use style="fill:#55a868;stroke:#55a868;stroke-linejoin:bevel;" x="391.272727" xlink:href="#m91706cd9f8" y="55.84383"/>
     <use style="fill:#55a868;stroke:#55a868;stroke-linejoin:bevel;" x="393.677576" xlink:href="#m91706cd9f8" y="52.015982"/>
     <use style="fill:#55a868;stroke:#55a868;stroke-linejoin:bevel;" x="396.082424" xlink:href="#m91706cd9f8" y="50.450044"/>
     <use style="fill:#55a868;stroke:#55a868;stroke-linejoin:bevel;" x="398.487273" xlink:href="#m91706cd9f8" y="46.970182"/>
    </g>
   </g>
   <g id="patch_3">
    <path d="M 57.6 162.432 
L 57.6 41.472 
" style="fill:none;"/>
   </g>
   <g id="patch_4">
    <path d="M 414.72 162.432 
L 414.72 41.472 
" style="fill:none;"/>
   </g>
   <g id="patch_5">
    <path d="M 57.6 162.432 
L 414.72 162.432 
" style="fill:none;"/>
   </g>
   <g id="patch_6">
    <path d="M 57.6 41.472 
L 414.72 41.472 
" style="fill:none;"/>
   </g>
   <g id="legend_1">
    <g id="patch_7">
     <path d="M 63.431 71.702091 
L 147.260736 71.702091 
Q 148.926736 71.702091 148.926736 70.036091 
L 148.926736 47.303 
Q 148.926736 45.637 147.260736 45.637 
L 63.431 45.637 
Q 61.765 45.637 61.765 47.303 
L 61.765 70.036091 
Q 61.765 71.702091 63.431 71.702091 
z
" style="fill:#eaeaf2;opacity:0.8;"/>
    </g>
    <g id="line2d_27">
     <path d="M 65.097 52.015958 
L 81.757 52.015958 
" style="fill:none;stroke:#4c72b0;stroke-linecap:round;stroke-width:2;"/>
    </g>
    <g id="line2d_28"/>
    <g id="text_5">
     <!-- Estimate of I+R -->
     <defs>
      <path d="M 7.90625 0 
L 7.90625 71.578125 
L 59.671875 71.578125 
L 59.671875 63.140625 
L 17.390625 63.140625 
L 17.390625 41.21875 
L 56.984375 41.21875 
L 56.984375 32.8125 
L 17.390625 32.8125 
L 17.390625 8.453125 
L 61.328125 8.453125 
L 61.328125 0 
z
" id="ArialMT-69"/>
      <path d="M 3.078125 15.484375 
L 11.765625 16.84375 
Q 12.5 11.625 15.84375 8.84375 
Q 19.1875 6.0625 25.203125 6.0625 
Q 31.25 6.0625 34.171875 8.515625 
Q 37.109375 10.984375 37.109375 14.3125 
Q 37.109375 17.28125 34.515625 19 
Q 32.71875 20.171875 25.53125 21.96875 
Q 15.875 24.421875 12.140625 26.203125 
Q 8.40625 27.984375 6.46875 31.125 
Q 4.546875 34.28125 4.546875 38.09375 
Q 4.546875 41.546875 6.125 44.5 
Q 7.71875 47.46875 10.453125 49.421875 
Q 12.5 50.921875 16.03125 51.96875 
Q 19.578125 53.03125 23.640625 53.03125 
Q 29.734375 53.03125 34.34375 51.265625 
Q 38.96875 49.515625 41.15625 46.5 
Q 43.359375 43.5 44.1875 38.484375 
L 35.59375 37.3125 
Q 35.015625 41.3125 32.203125 43.546875 
Q 29.390625 45.796875 24.265625 45.796875 
Q 18.21875 45.796875 15.625 43.796875 
Q 13.03125 41.796875 13.03125 39.109375 
Q 13.03125 37.40625 14.109375 36.03125 
Q 15.1875 34.625 17.484375 33.6875 
Q 18.796875 33.203125 25.25 31.453125 
Q 34.578125 28.953125 38.25 27.359375 
Q 41.9375 25.78125 44.03125 22.75 
Q 46.140625 19.734375 46.140625 15.234375 
Q 46.140625 10.84375 43.578125 6.953125 
Q 41.015625 3.078125 36.171875 0.953125 
Q 31.34375 -1.171875 25.25 -1.171875 
Q 15.140625 -1.171875 9.84375 3.03125 
Q 4.546875 7.234375 3.078125 15.484375 
z
" id="ArialMT-115"/>
      <path d="M 25.78125 7.859375 
L 27.046875 0.09375 
Q 23.34375 -0.6875 20.40625 -0.6875 
Q 15.625 -0.6875 12.984375 0.828125 
Q 10.359375 2.34375 9.28125 4.8125 
Q 8.203125 7.28125 8.203125 15.1875 
L 8.203125 45.015625 
L 1.765625 45.015625 
L 1.765625 51.859375 
L 8.203125 51.859375 
L 8.203125 64.703125 
L 16.9375 69.96875 
L 16.9375 51.859375 
L 25.78125 51.859375 
L 25.78125 45.015625 
L 16.9375 45.015625 
L 16.9375 14.703125 
Q 16.9375 10.9375 17.40625 9.859375 
Q 17.875 8.796875 18.921875 8.15625 
Q 19.96875 7.515625 21.921875 7.515625 
Q 23.390625 7.515625 25.78125 7.859375 
z
" id="ArialMT-116"/>
      <path d="M 6.640625 61.46875 
L 6.640625 71.578125 
L 15.4375 71.578125 
L 15.4375 61.46875 
z
M 6.640625 0 
L 6.640625 51.859375 
L 15.4375 51.859375 
L 15.4375 0 
z
" id="ArialMT-105"/>
      <path d="M 6.59375 0 
L 6.59375 51.859375 
L 14.453125 51.859375 
L 14.453125 44.578125 
Q 16.890625 48.390625 20.9375 50.703125 
Q 25 53.03125 30.171875 53.03125 
Q 35.9375 53.03125 39.625 50.640625 
Q 43.3125 48.25 44.828125 43.953125 
Q 50.984375 53.03125 60.84375 53.03125 
Q 68.5625 53.03125 72.703125 48.75 
Q 76.859375 44.484375 76.859375 35.59375 
L 76.859375 0 
L 68.109375 0 
L 68.109375 32.671875 
Q 68.109375 37.9375 67.25 40.25 
Q 66.40625 42.578125 64.15625 43.984375 
Q 61.921875 45.40625 58.890625 45.40625 
Q 53.421875 45.40625 49.796875 41.765625 
Q 46.1875 38.140625 46.1875 30.125 
L 46.1875 0 
L 37.40625 0 
L 37.40625 33.6875 
Q 37.40625 39.546875 35.25 42.46875 
Q 33.109375 45.40625 28.21875 45.40625 
Q 24.515625 45.40625 21.359375 43.453125 
Q 18.21875 41.5 16.796875 37.734375 
Q 15.375 33.984375 15.375 26.90625 
L 15.375 0 
z
" id="ArialMT-109"/>
      <path d="M 40.4375 6.390625 
Q 35.546875 2.25 31.03125 0.53125 
Q 26.515625 -1.171875 21.34375 -1.171875 
Q 12.796875 -1.171875 8.203125 3 
Q 3.609375 7.171875 3.609375 13.671875 
Q 3.609375 17.484375 5.34375 20.625 
Q 7.078125 23.78125 9.890625 25.6875 
Q 12.703125 27.59375 16.21875 28.5625 
Q 18.796875 29.25 24.03125 29.890625 
Q 34.671875 31.15625 39.703125 32.90625 
Q 39.75 34.71875 39.75 35.203125 
Q 39.75 40.578125 37.25 42.78125 
Q 33.890625 45.75 27.25 45.75 
Q 21.046875 45.75 18.09375 43.578125 
Q 15.140625 41.40625 13.71875 35.890625 
L 5.125 37.0625 
Q 6.296875 42.578125 8.984375 45.96875 
Q 11.671875 49.359375 16.75 51.1875 
Q 21.828125 53.03125 28.515625 53.03125 
Q 35.15625 53.03125 39.296875 51.46875 
Q 43.453125 49.90625 45.40625 47.53125 
Q 47.359375 45.171875 48.140625 41.546875 
Q 48.578125 39.3125 48.578125 33.453125 
L 48.578125 21.734375 
Q 48.578125 9.46875 49.140625 6.21875 
Q 49.703125 2.984375 51.375 0 
L 42.1875 0 
Q 40.828125 2.734375 40.4375 6.390625 
z
M 39.703125 26.03125 
Q 34.90625 24.078125 25.34375 22.703125 
Q 19.921875 21.921875 17.671875 20.9375 
Q 15.4375 19.96875 14.203125 18.09375 
Q 12.984375 16.21875 12.984375 13.921875 
Q 12.984375 10.40625 15.640625 8.0625 
Q 18.3125 5.71875 23.4375 5.71875 
Q 28.515625 5.71875 32.46875 7.9375 
Q 36.421875 10.15625 38.28125 14.015625 
Q 39.703125 17 39.703125 22.796875 
z
" id="ArialMT-97"/>
      <path d="M 42.09375 16.703125 
L 51.171875 15.578125 
Q 49.03125 7.625 43.21875 3.21875 
Q 37.40625 -1.171875 28.375 -1.171875 
Q 17 -1.171875 10.328125 5.828125 
Q 3.65625 12.84375 3.65625 25.484375 
Q 3.65625 38.578125 10.390625 45.796875 
Q 17.140625 53.03125 27.875 53.03125 
Q 38.28125 53.03125 44.875 45.953125 
Q 51.46875 38.875 51.46875 26.03125 
Q 51.46875 25.25 51.421875 23.6875 
L 12.75 23.6875 
Q 13.234375 15.140625 17.578125 10.59375 
Q 21.921875 6.0625 28.421875 6.0625 
Q 33.25 6.0625 36.671875 8.59375 
Q 40.09375 11.140625 42.09375 16.703125 
z
M 13.234375 30.90625 
L 42.1875 30.90625 
Q 41.609375 37.453125 38.875 40.71875 
Q 34.671875 45.796875 27.984375 45.796875 
Q 21.921875 45.796875 17.796875 41.75 
Q 13.671875 37.703125 13.234375 30.90625 
z
" id="ArialMT-101"/>
      <path id="ArialMT-32"/>
      <path d="M 3.328125 25.921875 
Q 3.328125 40.328125 11.328125 47.265625 
Q 18.015625 53.03125 27.640625 53.03125 
Q 38.328125 53.03125 45.109375 46.015625 
Q 51.90625 39.015625 51.90625 26.65625 
Q 51.90625 16.65625 48.90625 10.90625 
Q 45.90625 5.171875 40.15625 2 
Q 34.421875 -1.171875 27.640625 -1.171875 
Q 16.75 -1.171875 10.03125 5.8125 
Q 3.328125 12.796875 3.328125 25.921875 
z
M 12.359375 25.921875 
Q 12.359375 15.96875 16.703125 11.015625 
Q 21.046875 6.0625 27.640625 6.0625 
Q 34.1875 6.0625 38.53125 11.03125 
Q 42.875 16.015625 42.875 26.21875 
Q 42.875 35.84375 38.5 40.796875 
Q 34.125 45.75 27.640625 45.75 
Q 21.046875 45.75 16.703125 40.8125 
Q 12.359375 35.890625 12.359375 25.921875 
z
" id="ArialMT-111"/>
      <path d="M 8.6875 0 
L 8.6875 45.015625 
L 0.921875 45.015625 
L 0.921875 51.859375 
L 8.6875 51.859375 
L 8.6875 57.375 
Q 8.6875 62.59375 9.625 65.140625 
Q 10.890625 68.5625 14.078125 70.671875 
Q 17.28125 72.796875 23.046875 72.796875 
Q 26.765625 72.796875 31.25 71.921875 
L 29.9375 64.265625 
Q 27.203125 64.75 24.75 64.75 
Q 20.75 64.75 19.09375 63.03125 
Q 17.4375 61.328125 17.4375 56.640625 
L 17.4375 51.859375 
L 27.546875 51.859375 
L 27.546875 45.015625 
L 17.4375 45.015625 
L 17.4375 0 
z
" id="ArialMT-102"/>
      <path d="M 9.328125 0 
L 9.328125 71.578125 
L 18.796875 71.578125 
L 18.796875 0 
z
" id="ArialMT-73"/>
      <path d="M 25.046875 11.578125 
L 25.046875 31.203125 
L 5.5625 31.203125 
L 5.5625 39.40625 
L 25.046875 39.40625 
L 25.046875 58.890625 
L 33.34375 58.890625 
L 33.34375 39.40625 
L 52.828125 39.40625 
L 52.828125 31.203125 
L 33.34375 31.203125 
L 33.34375 11.578125 
z
" id="ArialMT-43"/>
      <path d="M 7.859375 0 
L 7.859375 71.578125 
L 39.59375 71.578125 
Q 49.171875 71.578125 54.140625 69.640625 
Q 59.125 67.71875 62.109375 62.828125 
Q 65.09375 57.953125 65.09375 52.046875 
Q 65.09375 44.4375 60.15625 39.203125 
Q 55.21875 33.984375 44.921875 32.5625 
Q 48.6875 30.765625 50.640625 29 
Q 54.78125 25.203125 58.5 19.484375 
L 70.953125 0 
L 59.03125 0 
L 49.5625 14.890625 
Q 45.40625 21.34375 42.71875 24.75 
Q 40.046875 28.171875 37.921875 29.53125 
Q 35.796875 30.90625 33.59375 31.453125 
Q 31.984375 31.78125 28.328125 31.78125 
L 17.328125 31.78125 
L 17.328125 0 
z
M 17.328125 39.984375 
L 37.703125 39.984375 
Q 44.1875 39.984375 47.84375 41.328125 
Q 51.515625 42.671875 53.421875 45.625 
Q 55.328125 48.578125 55.328125 52.046875 
Q 55.328125 57.125 51.640625 60.390625 
Q 47.953125 63.671875 39.984375 63.671875 
L 17.328125 63.671875 
z
" id="ArialMT-82"/>
     </defs>
     <g style="fill:#262626;" transform="translate(88.421 54.931458)scale(0.0833 -0.0833)">
      <use xlink:href="#ArialMT-69"/>
      <use x="66.699219" xlink:href="#ArialMT-115"/>
      <use x="116.699219" xlink:href="#ArialMT-116"/>
      <use x="144.482422" xlink:href="#ArialMT-105"/>
      <use x="166.699219" xlink:href="#ArialMT-109"/>
      <use x="250" xlink:href="#ArialMT-97"/>
      <use x="305.615234" xlink:href="#ArialMT-116"/>
      <use x="333.398438" xlink:href="#ArialMT-101"/>
      <use x="389.013672" xlink:href="#ArialMT-32"/>
      <use x="416.796875" xlink:href="#ArialMT-111"/>
      <use x="472.412109" xlink:href="#ArialMT-102"/>
      <use x="500.195312" xlink:href="#ArialMT-32"/>
      <use x="527.978516" xlink:href="#ArialMT-73"/>
      <use x="555.761719" xlink:href="#ArialMT-43"/>
      <use x="614.160156" xlink:href="#ArialMT-82"/>
     </g>
    </g>
    <g id="line2d_29"/>
    <g id="line2d_30">
     <g>
      <use style="fill:#55a868;stroke:#55a868;stroke-linejoin:bevel;" x="73.427" xlink:href="#m91706cd9f8" y="63.799003"/>
     </g>
    </g>
    <g id="text_6">
     <!-- Observations -->
     <defs>
      <path d="M 4.828125 34.859375 
Q 4.828125 52.6875 14.390625 62.765625 
Q 23.96875 72.859375 39.109375 72.859375 
Q 49.03125 72.859375 56.984375 68.109375 
Q 64.9375 63.375 69.109375 54.90625 
Q 73.296875 46.4375 73.296875 35.6875 
Q 73.296875 24.8125 68.890625 16.21875 
Q 64.5 7.625 56.4375 3.203125 
Q 48.390625 -1.21875 39.0625 -1.21875 
Q 28.953125 -1.21875 20.984375 3.65625 
Q 13.03125 8.546875 8.921875 16.984375 
Q 4.828125 25.4375 4.828125 34.859375 
z
M 14.59375 34.71875 
Q 14.59375 21.78125 21.546875 14.328125 
Q 28.515625 6.890625 39.015625 6.890625 
Q 49.703125 6.890625 56.609375 14.40625 
Q 63.53125 21.921875 63.53125 35.75 
Q 63.53125 44.484375 60.578125 51 
Q 57.625 57.515625 51.921875 61.109375 
Q 46.234375 64.703125 39.15625 64.703125 
Q 29.109375 64.703125 21.84375 57.78125 
Q 14.59375 50.875 14.59375 34.71875 
z
" id="ArialMT-79"/>
      <path d="M 14.703125 0 
L 6.546875 0 
L 6.546875 71.578125 
L 15.328125 71.578125 
L 15.328125 46.046875 
Q 20.90625 53.03125 29.546875 53.03125 
Q 34.328125 53.03125 38.59375 51.09375 
Q 42.875 49.171875 45.625 45.671875 
Q 48.390625 42.1875 49.953125 37.25 
Q 51.515625 32.328125 51.515625 26.703125 
Q 51.515625 13.375 44.921875 6.09375 
Q 38.328125 -1.171875 29.109375 -1.171875 
Q 19.921875 -1.171875 14.703125 6.5 
z
M 14.59375 26.3125 
Q 14.59375 17 17.140625 12.84375 
Q 21.296875 6.0625 28.375 6.0625 
Q 34.125 6.0625 38.328125 11.0625 
Q 42.53125 16.0625 42.53125 25.984375 
Q 42.53125 36.140625 38.5 40.96875 
Q 34.46875 45.796875 28.765625 45.796875 
Q 23 45.796875 18.796875 40.796875 
Q 14.59375 35.796875 14.59375 26.3125 
z
" id="ArialMT-98"/>
      <path d="M 6.5 0 
L 6.5 51.859375 
L 14.40625 51.859375 
L 14.40625 44 
Q 17.4375 49.515625 20 51.265625 
Q 22.5625 53.03125 25.640625 53.03125 
Q 30.078125 53.03125 34.671875 50.203125 
L 31.640625 42.046875 
Q 28.421875 43.953125 25.203125 43.953125 
Q 22.3125 43.953125 20.015625 42.21875 
Q 17.71875 40.484375 16.75 37.40625 
Q 15.28125 32.71875 15.28125 27.15625 
L 15.28125 0 
z
" id="ArialMT-114"/>
      <path d="M 21 0 
L 1.265625 51.859375 
L 10.546875 51.859375 
L 21.6875 20.796875 
Q 23.484375 15.765625 25 10.359375 
Q 26.171875 14.453125 28.265625 20.21875 
L 39.796875 51.859375 
L 48.828125 51.859375 
L 29.203125 0 
z
" id="ArialMT-118"/>
      <path d="M 6.59375 0 
L 6.59375 51.859375 
L 14.5 51.859375 
L 14.5 44.484375 
Q 20.21875 53.03125 31 53.03125 
Q 35.6875 53.03125 39.625 51.34375 
Q 43.5625 49.65625 45.515625 46.921875 
Q 47.46875 44.1875 48.25 40.4375 
Q 48.734375 37.984375 48.734375 31.890625 
L 48.734375 0 
L 39.9375 0 
L 39.9375 31.546875 
Q 39.9375 36.921875 38.90625 39.578125 
Q 37.890625 42.234375 35.28125 43.8125 
Q 32.671875 45.40625 29.15625 45.40625 
Q 23.53125 45.40625 19.453125 41.84375 
Q 15.375 38.28125 15.375 28.328125 
L 15.375 0 
z
" id="ArialMT-110"/>
     </defs>
     <g style="fill:#262626;" transform="translate(88.421 66.714503)scale(0.0833 -0.0833)">
      <use xlink:href="#ArialMT-79"/>
      <use x="77.783203" xlink:href="#ArialMT-98"/>
      <use x="133.398438" xlink:href="#ArialMT-115"/>
      <use x="183.398438" xlink:href="#ArialMT-101"/>
      <use x="239.013672" xlink:href="#ArialMT-114"/>
      <use x="272.314453" xlink:href="#ArialMT-118"/>
      <use x="322.314453" xlink:href="#ArialMT-97"/>
      <use x="377.929688" xlink:href="#ArialMT-116"/>
      <use x="405.712891" xlink:href="#ArialMT-105"/>
      <use x="427.929688" xlink:href="#ArialMT-111"/>
      <use x="483.544922" xlink:href="#ArialMT-110"/>
      <use x="539.160156" xlink:href="#ArialMT-115"/>
     </g>
    </g>
   </g>
  </g>
  <g id="axes_2">
   <g id="patch_8">
    <path d="M 57.6 307.584 
L 414.72 307.584 
L 414.72 186.624 
L 57.6 186.624 
z
" style="fill:#eaeaf2;"/>
   </g>
   <g id="matplotlib.axis_3">
    <g id="xtick_9">
     <g id="line2d_31">
      <path clip-path="url(#p6a52612174)" d="M 73.832727 307.584 
L 73.832727 186.624 
" style="fill:none;stroke:#ffffff;stroke-linecap:round;stroke-width:0.8;"/>
     </g>
     <g id="line2d_32"/>
     <g id="text_7">
      <!-- 0 -->
      <g style="fill:#262626;" transform="translate(71.052259 318.241812)scale(0.1 -0.1)">
       <use xlink:href="#ArialMT-48"/>
      </g>
     </g>
    </g>
    <g id="xtick_10">
     <g id="line2d_33">
      <path clip-path="url(#p6a52612174)" d="M 121.929697 307.584 
L 121.929697 186.624 
" style="fill:none;stroke:#ffffff;stroke-linecap:round;stroke-width:0.8;"/>
     </g>
     <g id="line2d_34"/>
     <g id="text_8">
      <!-- 20 -->
      <g style="fill:#262626;" transform="translate(116.368759 318.241812)scale(0.1 -0.1)">
       <use xlink:href="#ArialMT-50"/>
       <use x="55.615234" xlink:href="#ArialMT-48"/>
      </g>
     </g>
    </g>
    <g id="xtick_11">
     <g id="line2d_35">
      <path clip-path="url(#p6a52612174)" d="M 170.026667 307.584 
L 170.026667 186.624 
" style="fill:none;stroke:#ffffff;stroke-linecap:round;stroke-width:0.8;"/>
     </g>
     <g id="line2d_36"/>
     <g id="text_9">
      <!-- 40 -->
      <g style="fill:#262626;" transform="translate(164.465729 318.241812)scale(0.1 -0.1)">
       <use xlink:href="#ArialMT-52"/>
       <use x="55.615234" xlink:href="#ArialMT-48"/>
      </g>
     </g>
    </g>
    <g id="xtick_12">
     <g id="line2d_37">
      <path clip-path="url(#p6a52612174)" d="M 218.123636 307.584 
L 218.123636 186.624 
" style="fill:none;stroke:#ffffff;stroke-linecap:round;stroke-width:0.8;"/>
     </g>
     <g id="line2d_38"/>
     <g id="text_10">
      <!-- 60 -->
      <g style="fill:#262626;" transform="translate(212.562699 318.241812)scale(0.1 -0.1)">
       <use xlink:href="#ArialMT-54"/>
       <use x="55.615234" xlink:href="#ArialMT-48"/>
      </g>
     </g>
    </g>
    <g id="xtick_13">
     <g id="line2d_39">
      <path clip-path="url(#p6a52612174)" d="M 266.220606 307.584 
L 266.220606 186.624 
" style="fill:none;stroke:#ffffff;stroke-linecap:round;stroke-width:0.8;"/>
     </g>
     <g id="line2d_40"/>
     <g id="text_11">
      <!-- 80 -->
      <defs>
       <path d="M 17.671875 38.8125 
Q 12.203125 40.828125 9.5625 44.53125 
Q 6.9375 48.25 6.9375 53.421875 
Q 6.9375 61.234375 12.546875 66.546875 
Q 18.171875 71.875 27.484375 71.875 
Q 36.859375 71.875 42.578125 66.421875 
Q 48.296875 60.984375 48.296875 53.171875 
Q 48.296875 48.1875 45.671875 44.5 
Q 43.0625 40.828125 37.75 38.8125 
Q 44.34375 36.671875 47.78125 31.875 
Q 51.21875 27.09375 51.21875 20.453125 
Q 51.21875 11.28125 44.71875 5.03125 
Q 38.234375 -1.21875 27.640625 -1.21875 
Q 17.046875 -1.21875 10.546875 5.046875 
Q 4.046875 11.328125 4.046875 20.703125 
Q 4.046875 27.6875 7.59375 32.390625 
Q 11.140625 37.109375 17.671875 38.8125 
z
M 15.921875 53.71875 
Q 15.921875 48.640625 19.1875 45.40625 
Q 22.46875 42.1875 27.6875 42.1875 
Q 32.765625 42.1875 36.015625 45.375 
Q 39.265625 48.578125 39.265625 53.21875 
Q 39.265625 58.0625 35.90625 61.359375 
Q 32.5625 64.65625 27.59375 64.65625 
Q 22.5625 64.65625 19.234375 61.421875 
Q 15.921875 58.203125 15.921875 53.71875 
z
M 13.09375 20.65625 
Q 13.09375 16.890625 14.875 13.375 
Q 16.65625 9.859375 20.171875 7.921875 
Q 23.6875 6 27.734375 6 
Q 34.03125 6 38.125 10.046875 
Q 42.234375 14.109375 42.234375 20.359375 
Q 42.234375 26.703125 38.015625 30.859375 
Q 33.796875 35.015625 27.4375 35.015625 
Q 21.234375 35.015625 17.15625 30.90625 
Q 13.09375 26.8125 13.09375 20.65625 
z
" id="ArialMT-56"/>
      </defs>
      <g style="fill:#262626;" transform="translate(260.659669 318.241812)scale(0.1 -0.1)">
       <use xlink:href="#ArialMT-56"/>
       <use x="55.615234" xlink:href="#ArialMT-48"/>
      </g>
     </g>
    </g>
    <g id="xtick_14">
     <g id="line2d_41">
      <path clip-path="url(#p6a52612174)" d="M 314.317576 307.584 
L 314.317576 186.624 
" style="fill:none;stroke:#ffffff;stroke-linecap:round;stroke-width:0.8;"/>
     </g>
     <g id="line2d_42"/>
     <g id="text_12">
      <!-- 100 -->
      <defs>
       <path d="M 37.25 0 
L 28.46875 0 
L 28.46875 56 
Q 25.296875 52.984375 20.140625 49.953125 
Q 14.984375 46.921875 10.890625 45.40625 
L 10.890625 53.90625 
Q 18.265625 57.375 23.78125 62.296875 
Q 29.296875 67.234375 31.59375 71.875 
L 37.25 71.875 
z
" id="ArialMT-49"/>
      </defs>
      <g style="fill:#262626;" transform="translate(305.97617 318.241812)scale(0.1 -0.1)">
       <use xlink:href="#ArialMT-49"/>
       <use x="55.615234" xlink:href="#ArialMT-48"/>
       <use x="111.230469" xlink:href="#ArialMT-48"/>
      </g>
     </g>
    </g>
    <g id="xtick_15">
     <g id="line2d_43">
      <path clip-path="url(#p6a52612174)" d="M 362.414545 307.584 
L 362.414545 186.624 
" style="fill:none;stroke:#ffffff;stroke-linecap:round;stroke-width:0.8;"/>
     </g>
     <g id="line2d_44"/>
     <g id="text_13">
      <!-- 120 -->
      <g style="fill:#262626;" transform="translate(354.073139 318.241812)scale(0.1 -0.1)">
       <use xlink:href="#ArialMT-49"/>
       <use x="55.615234" xlink:href="#ArialMT-50"/>
       <use x="111.230469" xlink:href="#ArialMT-48"/>
      </g>
     </g>
    </g>
    <g id="xtick_16">
     <g id="line2d_45">
      <path clip-path="url(#p6a52612174)" d="M 410.511515 307.584 
L 410.511515 186.624 
" style="fill:none;stroke:#ffffff;stroke-linecap:round;stroke-width:0.8;"/>
     </g>
     <g id="line2d_46"/>
     <g id="text_14">
      <!-- 140 -->
      <g style="fill:#262626;" transform="translate(402.170109 318.241812)scale(0.1 -0.1)">
       <use xlink:href="#ArialMT-49"/>
       <use x="55.615234" xlink:href="#ArialMT-52"/>
       <use x="111.230469" xlink:href="#ArialMT-48"/>
      </g>
     </g>
    </g>
    <g id="text_15">
     <!-- Time (t) -->
     <defs>
      <path d="M 25.921875 0 
L 25.921875 63.140625 
L 2.34375 63.140625 
L 2.34375 71.578125 
L 59.078125 71.578125 
L 59.078125 63.140625 
L 35.40625 63.140625 
L 35.40625 0 
z
" id="ArialMT-84"/>
      <path d="M 23.390625 -21.046875 
Q 16.109375 -11.859375 11.078125 0.4375 
Q 6.0625 12.75 6.0625 25.921875 
Q 6.0625 37.546875 9.8125 48.1875 
Q 14.203125 60.546875 23.390625 72.796875 
L 29.6875 72.796875 
Q 23.78125 62.640625 21.875 58.296875 
Q 18.890625 51.5625 17.1875 44.234375 
Q 15.09375 35.109375 15.09375 25.875 
Q 15.09375 2.390625 29.6875 -21.046875 
z
" id="ArialMT-40"/>
      <path d="M 12.359375 -21.046875 
L 6.0625 -21.046875 
Q 20.65625 2.390625 20.65625 25.875 
Q 20.65625 35.0625 18.5625 44.09375 
Q 16.890625 51.421875 13.921875 58.15625 
Q 12.015625 62.546875 6.0625 72.796875 
L 12.359375 72.796875 
Q 21.53125 60.546875 25.921875 48.1875 
Q 29.6875 37.546875 29.6875 25.921875 
Q 29.6875 12.75 24.625 0.4375 
Q 19.578125 -11.859375 12.359375 -21.046875 
z
" id="ArialMT-41"/>
     </defs>
     <g style="fill:#262626;" transform="translate(218.944375 331.509)scale(0.1 -0.1)">
      <use xlink:href="#ArialMT-84"/>
      <use x="61.037109" xlink:href="#ArialMT-105"/>
      <use x="83.253906" xlink:href="#ArialMT-109"/>
      <use x="166.554688" xlink:href="#ArialMT-101"/>
      <use x="222.169922" xlink:href="#ArialMT-32"/>
      <use x="249.953125" xlink:href="#ArialMT-40"/>
      <use x="283.253906" xlink:href="#ArialMT-116"/>
      <use x="311.037109" xlink:href="#ArialMT-41"/>
     </g>
    </g>
   </g>
   <g id="matplotlib.axis_4">
    <g id="ytick_5">
     <g id="line2d_47">
      <path clip-path="url(#p6a52612174)" d="M 57.6 302.085818 
L 414.72 302.085818 
" style="fill:none;stroke:#ffffff;stroke-linecap:round;stroke-width:0.8;"/>
     </g>
     <g id="line2d_48"/>
     <g id="text_16">
      <!-- 0 -->
      <g style="fill:#262626;" transform="translate(48.539062 305.664724)scale(0.1 -0.1)">
       <use xlink:href="#ArialMT-48"/>
      </g>
     </g>
    </g>
    <g id="ytick_6">
     <g id="line2d_49">
      <path clip-path="url(#p6a52612174)" d="M 57.6 271.66322 
L 414.72 271.66322 
" style="fill:none;stroke:#ffffff;stroke-linecap:round;stroke-width:0.8;"/>
     </g>
     <g id="line2d_50"/>
     <g id="text_17">
      <!-- 2 -->
      <g style="fill:#262626;" transform="translate(48.539062 275.242126)scale(0.1 -0.1)">
       <use xlink:href="#ArialMT-50"/>
      </g>
     </g>
    </g>
    <g id="ytick_7">
     <g id="line2d_51">
      <path clip-path="url(#p6a52612174)" d="M 57.6 241.240621 
L 414.72 241.240621 
" style="fill:none;stroke:#ffffff;stroke-linecap:round;stroke-width:0.8;"/>
     </g>
     <g id="line2d_52"/>
     <g id="text_18">
      <!-- 4 -->
      <g style="fill:#262626;" transform="translate(48.539062 244.819527)scale(0.1 -0.1)">
       <use xlink:href="#ArialMT-52"/>
      </g>
     </g>
    </g>
    <g id="ytick_8">
     <g id="line2d_53">
      <path clip-path="url(#p6a52612174)" d="M 57.6 210.818023 
L 414.72 210.818023 
" style="fill:none;stroke:#ffffff;stroke-linecap:round;stroke-width:0.8;"/>
     </g>
     <g id="line2d_54"/>
     <g id="text_19">
      <!-- 6 -->
      <g style="fill:#262626;" transform="translate(48.539062 214.396929)scale(0.1 -0.1)">
       <use xlink:href="#ArialMT-54"/>
      </g>
     </g>
    </g>
   </g>
   <g id="line2d_55">
    <path clip-path="url(#p6a52612174)" d="M 73.832727 302.085818 
L 73.95297 271.360157 
L 78.618376 271.436887 
L 78.738618 272.814361 
L 81.023224 272.814361 
L 81.143467 273.382348 
L 83.428073 273.382348 
L 83.548315 274.663665 
L 85.832921 274.663665 
L 85.953164 275.66486 
L 88.23777 275.66486 
L 88.358012 275.799048 
L 90.642618 275.799048 
L 90.762861 273.527562 
L 95.452315 273.496416 
L 95.572558 272.431741 
L 97.857164 272.431741 
L 97.977406 270.618034 
L 100.262012 270.618034 
L 100.382255 275.467259 
L 102.666861 275.467259 
L 102.787103 219.430773 
L 105.071709 219.430773 
L 105.191952 192.122182 
L 107.476558 192.122182 
L 107.5968 240.680153 
L 109.881406 240.680153 
L 110.001648 255.638124 
L 112.286255 255.638124 
L 112.406497 278.113286 
L 114.691103 278.113286 
L 114.811345 277.268717 
L 117.095952 277.268717 
L 117.216194 282.559 
L 119.5008 282.559 
L 119.621042 283.226226 
L 121.905648 283.226226 
L 122.025891 288.848823 
L 124.310497 288.848823 
L 124.430739 292.251733 
L 126.715345 292.251733 
L 126.835588 294.776782 
L 129.120194 294.776782 
L 129.240436 297.218981 
L 133.929891 297.30821 
L 134.050133 296.999113 
L 136.334739 296.999113 
L 136.454982 297.485981 
L 138.739588 297.485981 
L 138.85983 298.029019 
L 141.144436 298.029019 
L 141.264679 298.837119 
L 143.549285 298.837119 
L 143.669527 299.488728 
L 145.954133 299.488728 
L 146.074376 299.884991 
L 148.358982 299.884991 
L 148.479224 300.060672 
L 150.76383 300.060672 
L 150.884073 300.236646 
L 153.168679 300.236646 
L 153.288921 300.413707 
L 155.573527 300.413707 
L 155.69377 300.619949 
L 157.978376 300.619949 
L 158.098618 300.771817 
L 170.002618 300.66365 
L 170.146909 300.605537 
L 177.217164 300.558359 
L 177.337406 300.448576 
L 179.622012 300.448576 
L 179.742255 300.320916 
L 184.431709 300.241938 
L 184.551952 300.155271 
L 189.241406 300.089411 
L 189.361648 299.993214 
L 194.051103 299.91922 
L 194.171345 299.838936 
L 198.8608 299.76352 
L 198.981042 299.664804 
L 230.12383 299.762272 
L 230.268121 299.814101 
L 239.743224 299.911765 
L 239.911564 299.938108 
L 249.362618 300.026306 
L 249.506909 300.05636 
L 261.386861 300.166621 
L 261.5552 300.191305 
L 275.815952 300.30239 
L 276.008339 300.319768 
L 292.649891 300.422616 
L 292.866327 300.438864 
L 309.48383 300.538175 
L 309.676218 300.555214 
L 381.629285 300.453546 
L 381.845721 300.436777 
L 398.463224 300.334216 
L 398.487273 300.313047 
L 398.487273 300.313047 
" style="fill:none;stroke:#4c72b0;stroke-linecap:round;stroke-width:2;"/>
   </g>
   <g id="patch_9">
    <path d="M 57.6 307.584 
L 57.6 186.624 
" style="fill:none;"/>
   </g>
   <g id="patch_10">
    <path d="M 414.72 307.584 
L 414.72 186.624 
" style="fill:none;"/>
   </g>
   <g id="patch_11">
    <path d="M 57.6 307.584 
L 414.72 307.584 
" style="fill:none;"/>
   </g>
   <g id="patch_12">
    <path d="M 57.6 186.624 
L 414.72 186.624 
" style="fill:none;"/>
   </g>
   <g id="legend_2">
    <g id="patch_13">
     <path d="M 332.238683 205.071045 
L 408.889 205.071045 
Q 410.555 205.071045 410.555 203.405045 
L 410.555 192.455 
Q 410.555 190.789 408.889 190.789 
L 332.238683 190.789 
Q 330.572683 190.789 330.572683 192.455 
L 330.572683 203.405045 
Q 330.572683 205.071045 332.238683 205.071045 
z
" style="fill:#eaeaf2;opacity:0.8;"/>
    </g>
    <g id="line2d_56">
     <path d="M 333.904683 197.167958 
L 350.564683 197.167958 
" style="fill:none;stroke:#4c72b0;stroke-linecap:round;stroke-width:2;"/>
    </g>
    <g id="line2d_57"/>
    <g id="text_20">
     <!-- Estimate of C -->
     <defs>
      <path d="M 58.796875 25.09375 
L 68.265625 22.703125 
Q 65.28125 11.03125 57.546875 4.90625 
Q 49.8125 -1.21875 38.625 -1.21875 
Q 27.046875 -1.21875 19.796875 3.484375 
Q 12.546875 8.203125 8.765625 17.140625 
Q 4.984375 26.078125 4.984375 36.328125 
Q 4.984375 47.515625 9.25 55.828125 
Q 13.53125 64.15625 21.40625 68.46875 
Q 29.296875 72.796875 38.765625 72.796875 
Q 49.515625 72.796875 56.828125 67.328125 
Q 64.15625 61.859375 67.046875 51.953125 
L 57.71875 49.75 
Q 55.21875 57.5625 50.484375 61.125 
Q 45.75 64.703125 38.578125 64.703125 
Q 30.328125 64.703125 24.78125 60.734375 
Q 19.234375 56.78125 16.984375 50.109375 
Q 14.75 43.453125 14.75 36.375 
Q 14.75 27.25 17.40625 20.4375 
Q 20.0625 13.625 25.671875 10.25 
Q 31.296875 6.890625 37.84375 6.890625 
Q 45.796875 6.890625 51.3125 11.46875 
Q 56.84375 16.0625 58.796875 25.09375 
z
" id="ArialMT-67"/>
     </defs>
     <g style="fill:#262626;" transform="translate(357.228683 200.083458)scale(0.0833 -0.0833)">
      <use xlink:href="#ArialMT-69"/>
      <use x="66.699219" xlink:href="#ArialMT-115"/>
      <use x="116.699219" xlink:href="#ArialMT-116"/>
      <use x="144.482422" xlink:href="#ArialMT-105"/>
      <use x="166.699219" xlink:href="#ArialMT-109"/>
      <use x="250" xlink:href="#ArialMT-97"/>
      <use x="305.615234" xlink:href="#ArialMT-116"/>
      <use x="333.398438" xlink:href="#ArialMT-101"/>
      <use x="389.013672" xlink:href="#ArialMT-32"/>
      <use x="416.796875" xlink:href="#ArialMT-111"/>
      <use x="472.412109" xlink:href="#ArialMT-102"/>
      <use x="500.195312" xlink:href="#ArialMT-32"/>
      <use x="527.978516" xlink:href="#ArialMT-67"/>
     </g>
    </g>
   </g>
  </g>
 </g>
 <defs>
  <clipPath id="p81ccb1c064">
   <rect height="120.96" width="357.12" x="57.6" y="41.472"/>
  </clipPath>
  <clipPath id="p6a52612174">
   <rect height="120.96" width="357.12" x="57.6" y="186.624"/>
  </clipPath>
 </defs>
</svg>
