<?xml version="1.0" encoding="utf-8" standalone="no"?>
<!DOCTYPE svg PUBLIC "-//W3C//DTD SVG 1.1//EN"
  "http://www.w3.org/Graphics/SVG/1.1/DTD/svg11.dtd">
<!-- Created with matplotlib (https://matplotlib.org/) -->
<svg height="432pt" version="1.1" viewBox="0 0 864 432" width="864pt" xmlns="http://www.w3.org/2000/svg" xmlns:xlink="http://www.w3.org/1999/xlink">
 <defs>
  <style type="text/css">
*{stroke-linecap:butt;stroke-linejoin:round;}
  </style>
 </defs>
 <g id="figure_1">
  <g id="patch_1">
   <path d="M 0 432 
L 864 432 
L 864 0 
L 0 0 
z
" style="fill:#ffffff;"/>
  </g>
  <g id="axes_1">
   <g id="patch_2">
    <path d="M 108 378 
L 412.363636 378 
L 412.363636 51.84 
L 108 51.84 
z
" style="fill:#ffffff;"/>
   </g>
   <g id="matplotlib.axis_1">
    <g id="xtick_1">
     <g id="line2d_1">
      <defs>
       <path d="M 0 0 
L 0 9 
" id="m64061196a3" style="stroke:#000000;stroke-width:1.875;"/>
      </defs>
      <g>
       <use style="stroke:#000000;stroke-width:1.875;" x="121.834711" xlink:href="#m64061196a3" y="378"/>
      </g>
     </g>
     <g id="text_1">
      <!-- 0 -->
      <defs>
       <path d="M 31.78125 66.40625 
Q 24.171875 66.40625 20.328125 58.90625 
Q 16.5 51.421875 16.5 36.375 
Q 16.5 21.390625 20.328125 13.890625 
Q 24.171875 6.390625 31.78125 6.390625 
Q 39.453125 6.390625 43.28125 13.890625 
Q 47.125 21.390625 47.125 36.375 
Q 47.125 51.421875 43.28125 58.90625 
Q 39.453125 66.40625 31.78125 66.40625 
z
M 31.78125 74.21875 
Q 44.046875 74.21875 50.515625 64.515625 
Q 56.984375 54.828125 56.984375 36.375 
Q 56.984375 17.96875 50.515625 8.265625 
Q 44.046875 -1.421875 31.78125 -1.421875 
Q 19.53125 -1.421875 13.0625 8.265625 
Q 6.59375 17.96875 6.59375 36.375 
Q 6.59375 54.828125 13.0625 64.515625 
Q 19.53125 74.21875 31.78125 74.21875 
z
" id="DejaVuSans-48"/>
      </defs>
      <g transform="translate(116.585648 403.037422)scale(0.165 -0.165)">
       <use xlink:href="#DejaVuSans-48"/>
      </g>
     </g>
    </g>
    <g id="xtick_2">
     <g id="line2d_2">
      <g>
       <use style="stroke:#000000;stroke-width:1.875;" x="187.714286" xlink:href="#m64061196a3" y="378"/>
      </g>
     </g>
     <g id="text_2">
      <!-- 10 -->
      <defs>
       <path d="M 12.40625 8.296875 
L 28.515625 8.296875 
L 28.515625 63.921875 
L 10.984375 60.40625 
L 10.984375 69.390625 
L 28.421875 72.90625 
L 38.28125 72.90625 
L 38.28125 8.296875 
L 54.390625 8.296875 
L 54.390625 0 
L 12.40625 0 
z
" id="DejaVuSans-49"/>
      </defs>
      <g transform="translate(177.216161 403.037422)scale(0.165 -0.165)">
       <use xlink:href="#DejaVuSans-49"/>
       <use x="63.623047" xlink:href="#DejaVuSans-48"/>
      </g>
     </g>
    </g>
    <g id="xtick_3">
     <g id="line2d_3">
      <g>
       <use style="stroke:#000000;stroke-width:1.875;" x="253.593861" xlink:href="#m64061196a3" y="378"/>
      </g>
     </g>
     <g id="text_3">
      <!-- 20 -->
      <defs>
       <path d="M 19.1875 8.296875 
L 53.609375 8.296875 
L 53.609375 0 
L 7.328125 0 
L 7.328125 8.296875 
Q 12.9375 14.109375 22.625 23.890625 
Q 32.328125 33.6875 34.8125 36.53125 
Q 39.546875 41.84375 41.421875 45.53125 
Q 43.3125 49.21875 43.3125 52.78125 
Q 43.3125 58.59375 39.234375 62.25 
Q 35.15625 65.921875 28.609375 65.921875 
Q 23.96875 65.921875 18.8125 64.3125 
Q 13.671875 62.703125 7.8125 59.421875 
L 7.8125 69.390625 
Q 13.765625 71.78125 18.9375 73 
Q 24.125 74.21875 28.421875 74.21875 
Q 39.75 74.21875 46.484375 68.546875 
Q 53.21875 62.890625 53.21875 53.421875 
Q 53.21875 48.921875 51.53125 44.890625 
Q 49.859375 40.875 45.40625 35.40625 
Q 44.1875 33.984375 37.640625 27.21875 
Q 31.109375 20.453125 19.1875 8.296875 
z
" id="DejaVuSans-50"/>
      </defs>
      <g transform="translate(243.095736 403.037422)scale(0.165 -0.165)">
       <use xlink:href="#DejaVuSans-50"/>
       <use x="63.623047" xlink:href="#DejaVuSans-48"/>
      </g>
     </g>
    </g>
    <g id="xtick_4">
     <g id="line2d_4">
      <g>
       <use style="stroke:#000000;stroke-width:1.875;" x="319.473436" xlink:href="#m64061196a3" y="378"/>
      </g>
     </g>
     <g id="text_4">
      <!-- 30 -->
      <defs>
       <path d="M 40.578125 39.3125 
Q 47.65625 37.796875 51.625 33 
Q 55.609375 28.21875 55.609375 21.1875 
Q 55.609375 10.40625 48.1875 4.484375 
Q 40.765625 -1.421875 27.09375 -1.421875 
Q 22.515625 -1.421875 17.65625 -0.515625 
Q 12.796875 0.390625 7.625 2.203125 
L 7.625 11.71875 
Q 11.71875 9.328125 16.59375 8.109375 
Q 21.484375 6.890625 26.8125 6.890625 
Q 36.078125 6.890625 40.9375 10.546875 
Q 45.796875 14.203125 45.796875 21.1875 
Q 45.796875 27.640625 41.28125 31.265625 
Q 36.765625 34.90625 28.71875 34.90625 
L 20.21875 34.90625 
L 20.21875 43.015625 
L 29.109375 43.015625 
Q 36.375 43.015625 40.234375 45.921875 
Q 44.09375 48.828125 44.09375 54.296875 
Q 44.09375 59.90625 40.109375 62.90625 
Q 36.140625 65.921875 28.71875 65.921875 
Q 24.65625 65.921875 20.015625 65.03125 
Q 15.375 64.15625 9.8125 62.3125 
L 9.8125 71.09375 
Q 15.4375 72.65625 20.34375 73.4375 
Q 25.25 74.21875 29.59375 74.21875 
Q 40.828125 74.21875 47.359375 69.109375 
Q 53.90625 64.015625 53.90625 55.328125 
Q 53.90625 49.265625 50.4375 45.09375 
Q 46.96875 40.921875 40.578125 39.3125 
z
" id="DejaVuSans-51"/>
      </defs>
      <g transform="translate(308.975311 403.037422)scale(0.165 -0.165)">
       <use xlink:href="#DejaVuSans-51"/>
       <use x="63.623047" xlink:href="#DejaVuSans-48"/>
      </g>
     </g>
    </g>
    <g id="xtick_5">
     <g id="line2d_5">
      <g>
       <use style="stroke:#000000;stroke-width:1.875;" x="385.353011" xlink:href="#m64061196a3" y="378"/>
      </g>
     </g>
     <g id="text_5">
      <!-- 40 -->
      <defs>
       <path d="M 37.796875 64.3125 
L 12.890625 25.390625 
L 37.796875 25.390625 
z
M 35.203125 72.90625 
L 47.609375 72.90625 
L 47.609375 25.390625 
L 58.015625 25.390625 
L 58.015625 17.1875 
L 47.609375 17.1875 
L 47.609375 0 
L 37.796875 0 
L 37.796875 17.1875 
L 4.890625 17.1875 
L 4.890625 26.703125 
z
" id="DejaVuSans-52"/>
      </defs>
      <g transform="translate(374.854886 403.037422)scale(0.165 -0.165)">
       <use xlink:href="#DejaVuSans-52"/>
       <use x="63.623047" xlink:href="#DejaVuSans-48"/>
      </g>
     </g>
    </g>
   </g>
   <g id="matplotlib.axis_2">
    <g id="ytick_1">
     <g id="line2d_6">
      <defs>
       <path d="M 0 0 
L -9 0 
" id="m678abc5e2a" style="stroke:#000000;stroke-width:1.875;"/>
      </defs>
      <g>
       <use style="stroke:#000000;stroke-width:1.875;" x="108" xlink:href="#m678abc5e2a" y="363.174545"/>
      </g>
     </g>
     <g id="text_6">
      <!-- 0.0 -->
      <defs>
       <path d="M 10.6875 12.40625 
L 21 12.40625 
L 21 0 
L 10.6875 0 
z
" id="DejaVuSans-46"/>
      </defs>
      <g transform="translate(69.259844 369.443256)scale(0.165 -0.165)">
       <use xlink:href="#DejaVuSans-48"/>
       <use x="63.623047" xlink:href="#DejaVuSans-46"/>
       <use x="95.410156" xlink:href="#DejaVuSans-48"/>
      </g>
     </g>
    </g>
    <g id="ytick_2">
     <g id="line2d_7">
      <g>
       <use style="stroke:#000000;stroke-width:1.875;" x="108" xlink:href="#m678abc5e2a" y="303.810341"/>
      </g>
     </g>
     <g id="text_7">
      <!-- 0.2 -->
      <g transform="translate(69.259844 310.079052)scale(0.165 -0.165)">
       <use xlink:href="#DejaVuSans-48"/>
       <use x="63.623047" xlink:href="#DejaVuSans-46"/>
       <use x="95.410156" xlink:href="#DejaVuSans-50"/>
      </g>
     </g>
    </g>
    <g id="ytick_3">
     <g id="line2d_8">
      <g>
       <use style="stroke:#000000;stroke-width:1.875;" x="108" xlink:href="#m678abc5e2a" y="244.446136"/>
      </g>
     </g>
     <g id="text_8">
      <!-- 0.4 -->
      <g transform="translate(69.259844 250.714847)scale(0.165 -0.165)">
       <use xlink:href="#DejaVuSans-48"/>
       <use x="63.623047" xlink:href="#DejaVuSans-46"/>
       <use x="95.410156" xlink:href="#DejaVuSans-52"/>
      </g>
     </g>
    </g>
    <g id="ytick_4">
     <g id="line2d_9">
      <g>
       <use style="stroke:#000000;stroke-width:1.875;" x="108" xlink:href="#m678abc5e2a" y="185.081932"/>
      </g>
     </g>
     <g id="text_9">
      <!-- 0.6 -->
      <defs>
       <path d="M 33.015625 40.375 
Q 26.375 40.375 22.484375 35.828125 
Q 18.609375 31.296875 18.609375 23.390625 
Q 18.609375 15.53125 22.484375 10.953125 
Q 26.375 6.390625 33.015625 6.390625 
Q 39.65625 6.390625 43.53125 10.953125 
Q 47.40625 15.53125 47.40625 23.390625 
Q 47.40625 31.296875 43.53125 35.828125 
Q 39.65625 40.375 33.015625 40.375 
z
M 52.59375 71.296875 
L 52.59375 62.3125 
Q 48.875 64.0625 45.09375 64.984375 
Q 41.3125 65.921875 37.59375 65.921875 
Q 27.828125 65.921875 22.671875 59.328125 
Q 17.53125 52.734375 16.796875 39.40625 
Q 19.671875 43.65625 24.015625 45.921875 
Q 28.375 48.1875 33.59375 48.1875 
Q 44.578125 48.1875 50.953125 41.515625 
Q 57.328125 34.859375 57.328125 23.390625 
Q 57.328125 12.15625 50.6875 5.359375 
Q 44.046875 -1.421875 33.015625 -1.421875 
Q 20.359375 -1.421875 13.671875 8.265625 
Q 6.984375 17.96875 6.984375 36.375 
Q 6.984375 53.65625 15.1875 63.9375 
Q 23.390625 74.21875 37.203125 74.21875 
Q 40.921875 74.21875 44.703125 73.484375 
Q 48.484375 72.75 52.59375 71.296875 
z
" id="DejaVuSans-54"/>
      </defs>
      <g transform="translate(69.259844 191.350643)scale(0.165 -0.165)">
       <use xlink:href="#DejaVuSans-48"/>
       <use x="63.623047" xlink:href="#DejaVuSans-46"/>
       <use x="95.410156" xlink:href="#DejaVuSans-54"/>
      </g>
     </g>
    </g>
    <g id="ytick_5">
     <g id="line2d_10">
      <g>
       <use style="stroke:#000000;stroke-width:1.875;" x="108" xlink:href="#m678abc5e2a" y="125.717727"/>
      </g>
     </g>
     <g id="text_10">
      <!-- 0.8 -->
      <defs>
       <path d="M 31.78125 34.625 
Q 24.75 34.625 20.71875 30.859375 
Q 16.703125 27.09375 16.703125 20.515625 
Q 16.703125 13.921875 20.71875 10.15625 
Q 24.75 6.390625 31.78125 6.390625 
Q 38.8125 6.390625 42.859375 10.171875 
Q 46.921875 13.96875 46.921875 20.515625 
Q 46.921875 27.09375 42.890625 30.859375 
Q 38.875 34.625 31.78125 34.625 
z
M 21.921875 38.8125 
Q 15.578125 40.375 12.03125 44.71875 
Q 8.5 49.078125 8.5 55.328125 
Q 8.5 64.0625 14.71875 69.140625 
Q 20.953125 74.21875 31.78125 74.21875 
Q 42.671875 74.21875 48.875 69.140625 
Q 55.078125 64.0625 55.078125 55.328125 
Q 55.078125 49.078125 51.53125 44.71875 
Q 48 40.375 41.703125 38.8125 
Q 48.828125 37.15625 52.796875 32.3125 
Q 56.78125 27.484375 56.78125 20.515625 
Q 56.78125 9.90625 50.3125 4.234375 
Q 43.84375 -1.421875 31.78125 -1.421875 
Q 19.734375 -1.421875 13.25 4.234375 
Q 6.78125 9.90625 6.78125 20.515625 
Q 6.78125 27.484375 10.78125 32.3125 
Q 14.796875 37.15625 21.921875 38.8125 
z
M 18.3125 54.390625 
Q 18.3125 48.734375 21.84375 45.5625 
Q 25.390625 42.390625 31.78125 42.390625 
Q 38.140625 42.390625 41.71875 45.5625 
Q 45.3125 48.734375 45.3125 54.390625 
Q 45.3125 60.0625 41.71875 63.234375 
Q 38.140625 66.40625 31.78125 66.40625 
Q 25.390625 66.40625 21.84375 63.234375 
Q 18.3125 60.0625 18.3125 54.390625 
z
" id="DejaVuSans-56"/>
      </defs>
      <g transform="translate(69.259844 131.986438)scale(0.165 -0.165)">
       <use xlink:href="#DejaVuSans-48"/>
       <use x="63.623047" xlink:href="#DejaVuSans-46"/>
       <use x="95.410156" xlink:href="#DejaVuSans-56"/>
      </g>
     </g>
    </g>
    <g id="ytick_6">
     <g id="line2d_11">
      <g>
       <use style="stroke:#000000;stroke-width:1.875;" x="108" xlink:href="#m678abc5e2a" y="66.353522"/>
      </g>
     </g>
     <g id="text_11">
      <!-- 1.0 -->
      <g transform="translate(69.259844 72.622233)scale(0.165 -0.165)">
       <use xlink:href="#DejaVuSans-49"/>
       <use x="63.623047" xlink:href="#DejaVuSans-46"/>
       <use x="95.410156" xlink:href="#DejaVuSans-48"/>
      </g>
     </g>
    </g>
    <g id="text_12">
     <!-- Infected (persons) -->
     <defs>
      <path d="M 9.8125 72.90625 
L 19.671875 72.90625 
L 19.671875 0 
L 9.8125 0 
z
" id="DejaVuSans-73"/>
      <path d="M 54.890625 33.015625 
L 54.890625 0 
L 45.90625 0 
L 45.90625 32.71875 
Q 45.90625 40.484375 42.875 44.328125 
Q 39.84375 48.1875 33.796875 48.1875 
Q 26.515625 48.1875 22.3125 43.546875 
Q 18.109375 38.921875 18.109375 30.90625 
L 18.109375 0 
L 9.078125 0 
L 9.078125 54.6875 
L 18.109375 54.6875 
L 18.109375 46.1875 
Q 21.34375 51.125 25.703125 53.5625 
Q 30.078125 56 35.796875 56 
Q 45.21875 56 50.046875 50.171875 
Q 54.890625 44.34375 54.890625 33.015625 
z
" id="DejaVuSans-110"/>
      <path d="M 37.109375 75.984375 
L 37.109375 68.5 
L 28.515625 68.5 
Q 23.6875 68.5 21.796875 66.546875 
Q 19.921875 64.59375 19.921875 59.515625 
L 19.921875 54.6875 
L 34.71875 54.6875 
L 34.71875 47.703125 
L 19.921875 47.703125 
L 19.921875 0 
L 10.890625 0 
L 10.890625 47.703125 
L 2.296875 47.703125 
L 2.296875 54.6875 
L 10.890625 54.6875 
L 10.890625 58.5 
Q 10.890625 67.625 15.140625 71.796875 
Q 19.390625 75.984375 28.609375 75.984375 
z
" id="DejaVuSans-102"/>
      <path d="M 56.203125 29.59375 
L 56.203125 25.203125 
L 14.890625 25.203125 
Q 15.484375 15.921875 20.484375 11.0625 
Q 25.484375 6.203125 34.421875 6.203125 
Q 39.59375 6.203125 44.453125 7.46875 
Q 49.3125 8.734375 54.109375 11.28125 
L 54.109375 2.78125 
Q 49.265625 0.734375 44.1875 -0.34375 
Q 39.109375 -1.421875 33.890625 -1.421875 
Q 20.796875 -1.421875 13.15625 6.1875 
Q 5.515625 13.8125 5.515625 26.8125 
Q 5.515625 40.234375 12.765625 48.109375 
Q 20.015625 56 32.328125 56 
Q 43.359375 56 49.78125 48.890625 
Q 56.203125 41.796875 56.203125 29.59375 
z
M 47.21875 32.234375 
Q 47.125 39.59375 43.09375 43.984375 
Q 39.0625 48.390625 32.421875 48.390625 
Q 24.90625 48.390625 20.390625 44.140625 
Q 15.875 39.890625 15.1875 32.171875 
z
" id="DejaVuSans-101"/>
      <path d="M 48.78125 52.59375 
L 48.78125 44.1875 
Q 44.96875 46.296875 41.140625 47.34375 
Q 37.3125 48.390625 33.40625 48.390625 
Q 24.65625 48.390625 19.8125 42.84375 
Q 14.984375 37.3125 14.984375 27.296875 
Q 14.984375 17.28125 19.8125 11.734375 
Q 24.65625 6.203125 33.40625 6.203125 
Q 37.3125 6.203125 41.140625 7.25 
Q 44.96875 8.296875 48.78125 10.40625 
L 48.78125 2.09375 
Q 45.015625 0.34375 40.984375 -0.53125 
Q 36.96875 -1.421875 32.421875 -1.421875 
Q 20.0625 -1.421875 12.78125 6.34375 
Q 5.515625 14.109375 5.515625 27.296875 
Q 5.515625 40.671875 12.859375 48.328125 
Q 20.21875 56 33.015625 56 
Q 37.15625 56 41.109375 55.140625 
Q 45.0625 54.296875 48.78125 52.59375 
z
" id="DejaVuSans-99"/>
      <path d="M 18.3125 70.21875 
L 18.3125 54.6875 
L 36.8125 54.6875 
L 36.8125 47.703125 
L 18.3125 47.703125 
L 18.3125 18.015625 
Q 18.3125 11.328125 20.140625 9.421875 
Q 21.96875 7.515625 27.59375 7.515625 
L 36.8125 7.515625 
L 36.8125 0 
L 27.59375 0 
Q 17.1875 0 13.234375 3.875 
Q 9.28125 7.765625 9.28125 18.015625 
L 9.28125 47.703125 
L 2.6875 47.703125 
L 2.6875 54.6875 
L 9.28125 54.6875 
L 9.28125 70.21875 
z
" id="DejaVuSans-116"/>
      <path d="M 45.40625 46.390625 
L 45.40625 75.984375 
L 54.390625 75.984375 
L 54.390625 0 
L 45.40625 0 
L 45.40625 8.203125 
Q 42.578125 3.328125 38.25 0.953125 
Q 33.9375 -1.421875 27.875 -1.421875 
Q 17.96875 -1.421875 11.734375 6.484375 
Q 5.515625 14.40625 5.515625 27.296875 
Q 5.515625 40.1875 11.734375 48.09375 
Q 17.96875 56 27.875 56 
Q 33.9375 56 38.25 53.625 
Q 42.578125 51.265625 45.40625 46.390625 
z
M 14.796875 27.296875 
Q 14.796875 17.390625 18.875 11.75 
Q 22.953125 6.109375 30.078125 6.109375 
Q 37.203125 6.109375 41.296875 11.75 
Q 45.40625 17.390625 45.40625 27.296875 
Q 45.40625 37.203125 41.296875 42.84375 
Q 37.203125 48.484375 30.078125 48.484375 
Q 22.953125 48.484375 18.875 42.84375 
Q 14.796875 37.203125 14.796875 27.296875 
z
" id="DejaVuSans-100"/>
      <path id="DejaVuSans-32"/>
      <path d="M 31 75.875 
Q 24.46875 64.65625 21.28125 53.65625 
Q 18.109375 42.671875 18.109375 31.390625 
Q 18.109375 20.125 21.3125 9.0625 
Q 24.515625 -2 31 -13.1875 
L 23.1875 -13.1875 
Q 15.875 -1.703125 12.234375 9.375 
Q 8.59375 20.453125 8.59375 31.390625 
Q 8.59375 42.28125 12.203125 53.3125 
Q 15.828125 64.359375 23.1875 75.875 
z
" id="DejaVuSans-40"/>
      <path d="M 18.109375 8.203125 
L 18.109375 -20.796875 
L 9.078125 -20.796875 
L 9.078125 54.6875 
L 18.109375 54.6875 
L 18.109375 46.390625 
Q 20.953125 51.265625 25.265625 53.625 
Q 29.59375 56 35.59375 56 
Q 45.5625 56 51.78125 48.09375 
Q 58.015625 40.1875 58.015625 27.296875 
Q 58.015625 14.40625 51.78125 6.484375 
Q 45.5625 -1.421875 35.59375 -1.421875 
Q 29.59375 -1.421875 25.265625 0.953125 
Q 20.953125 3.328125 18.109375 8.203125 
z
M 48.6875 27.296875 
Q 48.6875 37.203125 44.609375 42.84375 
Q 40.53125 48.484375 33.40625 48.484375 
Q 26.265625 48.484375 22.1875 42.84375 
Q 18.109375 37.203125 18.109375 27.296875 
Q 18.109375 17.390625 22.1875 11.75 
Q 26.265625 6.109375 33.40625 6.109375 
Q 40.53125 6.109375 44.609375 11.75 
Q 48.6875 17.390625 48.6875 27.296875 
z
" id="DejaVuSans-112"/>
      <path d="M 41.109375 46.296875 
Q 39.59375 47.171875 37.8125 47.578125 
Q 36.03125 48 33.890625 48 
Q 26.265625 48 22.1875 43.046875 
Q 18.109375 38.09375 18.109375 28.8125 
L 18.109375 0 
L 9.078125 0 
L 9.078125 54.6875 
L 18.109375 54.6875 
L 18.109375 46.1875 
Q 20.953125 51.171875 25.484375 53.578125 
Q 30.03125 56 36.53125 56 
Q 37.453125 56 38.578125 55.875 
Q 39.703125 55.765625 41.0625 55.515625 
z
" id="DejaVuSans-114"/>
      <path d="M 44.28125 53.078125 
L 44.28125 44.578125 
Q 40.484375 46.53125 36.375 47.5 
Q 32.28125 48.484375 27.875 48.484375 
Q 21.1875 48.484375 17.84375 46.4375 
Q 14.5 44.390625 14.5 40.28125 
Q 14.5 37.15625 16.890625 35.375 
Q 19.28125 33.59375 26.515625 31.984375 
L 29.59375 31.296875 
Q 39.15625 29.25 43.1875 25.515625 
Q 47.21875 21.78125 47.21875 15.09375 
Q 47.21875 7.46875 41.1875 3.015625 
Q 35.15625 -1.421875 24.609375 -1.421875 
Q 20.21875 -1.421875 15.453125 -0.5625 
Q 10.6875 0.296875 5.421875 2 
L 5.421875 11.28125 
Q 10.40625 8.6875 15.234375 7.390625 
Q 20.0625 6.109375 24.8125 6.109375 
Q 31.15625 6.109375 34.5625 8.28125 
Q 37.984375 10.453125 37.984375 14.40625 
Q 37.984375 18.0625 35.515625 20.015625 
Q 33.0625 21.96875 24.703125 23.78125 
L 21.578125 24.515625 
Q 13.234375 26.265625 9.515625 29.90625 
Q 5.8125 33.546875 5.8125 39.890625 
Q 5.8125 47.609375 11.28125 51.796875 
Q 16.75 56 26.8125 56 
Q 31.78125 56 36.171875 55.265625 
Q 40.578125 54.546875 44.28125 53.078125 
z
" id="DejaVuSans-115"/>
      <path d="M 30.609375 48.390625 
Q 23.390625 48.390625 19.1875 42.75 
Q 14.984375 37.109375 14.984375 27.296875 
Q 14.984375 17.484375 19.15625 11.84375 
Q 23.34375 6.203125 30.609375 6.203125 
Q 37.796875 6.203125 41.984375 11.859375 
Q 46.1875 17.53125 46.1875 27.296875 
Q 46.1875 37.015625 41.984375 42.703125 
Q 37.796875 48.390625 30.609375 48.390625 
z
M 30.609375 56 
Q 42.328125 56 49.015625 48.375 
Q 55.71875 40.765625 55.71875 27.296875 
Q 55.71875 13.875 49.015625 6.21875 
Q 42.328125 -1.421875 30.609375 -1.421875 
Q 18.84375 -1.421875 12.171875 6.21875 
Q 5.515625 13.875 5.515625 27.296875 
Q 5.515625 40.765625 12.171875 48.375 
Q 18.84375 56 30.609375 56 
z
" id="DejaVuSans-111"/>
      <path d="M 8.015625 75.875 
L 15.828125 75.875 
Q 23.140625 64.359375 26.78125 53.3125 
Q 30.421875 42.28125 30.421875 31.390625 
Q 30.421875 20.453125 26.78125 9.375 
Q 23.140625 -1.703125 15.828125 -13.1875 
L 8.015625 -13.1875 
Q 14.5 -2 17.703125 9.0625 
Q 20.90625 20.125 20.90625 31.390625 
Q 20.90625 42.671875 17.703125 53.65625 
Q 14.5 64.65625 8.015625 75.875 
z
" id="DejaVuSans-41"/>
     </defs>
     <g transform="translate(61.516406 297.135)rotate(-90)scale(0.18 -0.18)">
      <use xlink:href="#DejaVuSans-73"/>
      <use x="29.492188" xlink:href="#DejaVuSans-110"/>
      <use x="92.871094" xlink:href="#DejaVuSans-102"/>
      <use x="128.076172" xlink:href="#DejaVuSans-101"/>
      <use x="189.599609" xlink:href="#DejaVuSans-99"/>
      <use x="244.580078" xlink:href="#DejaVuSans-116"/>
      <use x="283.789062" xlink:href="#DejaVuSans-101"/>
      <use x="345.3125" xlink:href="#DejaVuSans-100"/>
      <use x="408.789062" xlink:href="#DejaVuSans-32"/>
      <use x="440.576172" xlink:href="#DejaVuSans-40"/>
      <use x="479.589844" xlink:href="#DejaVuSans-112"/>
      <use x="543.066406" xlink:href="#DejaVuSans-101"/>
      <use x="604.589844" xlink:href="#DejaVuSans-114"/>
      <use x="645.703125" xlink:href="#DejaVuSans-115"/>
      <use x="697.802734" xlink:href="#DejaVuSans-111"/>
      <use x="758.984375" xlink:href="#DejaVuSans-110"/>
      <use x="822.363281" xlink:href="#DejaVuSans-115"/>
      <use x="874.462891" xlink:href="#DejaVuSans-41"/>
     </g>
    </g>
    <g id="text_13">
     <!-- 1e4 -->
     <g transform="translate(108 48.84)scale(0.165 -0.165)">
      <use xlink:href="#DejaVuSans-49"/>
      <use x="63.623047" xlink:href="#DejaVuSans-101"/>
      <use x="125.146484" xlink:href="#DejaVuSans-52"/>
     </g>
    </g>
   </g>
   <g id="line2d_12">
    <path clip-path="url(#p412099abfb)" d="M 121.834711 363.174545 
L 231.853601 363.065145 
L 248.98229 362.833078 
L 270.063754 362.322771 
L 276.651712 361.895581 
L 282.580874 361.290163 
L 287.192444 360.614194 
L 291.145218 359.841376 
L 310.250295 355.39237 
L 312.885478 354.35801 
L 312.885478 354.35801 
L 315.520661 353.038419 
L 318.155844 351.406084 
L 320.132231 349.95575 
L 322.108619 348.292363 
L 324.085006 346.396351 
L 326.061393 344.246265 
L 326.061393 344.246265 
L 328.03778 341.819339 
L 330.014168 339.091507 
L 331.990555 336.037498 
L 333.966942 332.631858 
L 335.943329 328.8498 
L 337.919717 324.667399 
L 345.16647 308.558005 
L 348.460449 302.026489 
L 351.754427 295.958659 
L 353.730815 292.292896 
L 355.048406 289.41247 
L 357.024793 284.434904 
L 359.001181 278.733088 
L 359.001181 278.733088 
L 360.977568 272.377429 
L 363.612751 263.009033 
L 366.247934 252.779084 
L 369.541913 239.059568 
L 374.153483 218.786409 
L 382.717828 181.002992 
L 386.011806 167.367923 
L 388.646989 157.309531 
L 391.282172 148.115749 
L 393.917355 139.738382 
L 396.552538 132.13171 
L 398.528926 126.906301 
L 398.528926 126.906301 
" style="fill:none;stroke:#352a87;stroke-linecap:square;stroke-width:3;"/>
   </g>
   <g id="line2d_13">
    <path clip-path="url(#p412099abfb)" d="M 121.834711 363.174545 
L 187.05549 363.069624 
L 195.619835 362.841855 
L 200.890201 362.498222 
L 200.890201 362.498222 
L 211.430933 361.6485 
L 216.042503 361.261725 
L 218.677686 360.759991 
L 220.654073 360.182804 
L 220.654073 360.182804 
L 222.63046 359.395392 
L 224.606848 358.349527 
L 226.583235 356.982573 
L 227.900826 355.85475 
L 229.218418 354.522259 
L 230.536009 352.954153 
L 231.853601 351.116108 
L 233.171192 348.970778 
L 234.488784 346.478442 
L 235.806375 343.598142 
L 237.123967 340.288732 
L 238.441558 336.510908 
L 239.75915 332.229609 
L 241.735537 324.804669 
L 243.711924 316.135506 
L 245.688312 306.243177 
L 252.276269 271.185101 
L 254.911452 258.680857 
L 257.546635 247.040532 
L 262.158205 227.32438 
L 264.793388 213.513138 
L 270.719406 181.562579 
L 273.95977 165.599048 
L 276.594953 153.712517 
L 279.230136 142.817032 
L 281.830927 133.002893 
L 284.46611 123.965301 
L 287.07908 115.857149 
L 289.714263 108.493152 
L 292.349446 101.899833 
L 294.439197 97.189982 
L 297.07438 91.869935 
L 299.050767 88.310688 
L 301.027155 85.102579 
L 303.003542 82.229957 
L 304.979929 79.677751 
L 306.822981 77.573652 
L 308.799368 75.599998 
L 310.775755 73.9057 
L 312.885478 72.390714 
L 312.885478 72.390714 
L 314.861865 71.233339 
L 316.838253 70.317004 
L 318.81464 69.63016 
L 320.791027 69.161696 
L 322.767414 68.900923 
L 324.743802 68.837559 
L 326.720189 68.961715 
L 328.696576 69.263884 
L 331.331759 69.927935 
L 333.966942 70.871545 
L 336.602125 72.075086 
L 339.237308 73.519946 
L 339.237308 73.519946 
L 341.872491 75.188488 
L 345.16647 77.563338 
L 348.460449 80.230924 
L 351.754427 83.162559 
L 355.707202 86.991499 
L 359.659976 91.119353 
L 364.271547 96.260608 
L 369.541913 102.496133 
L 375.471074 109.879202 
L 382.717828 119.298542 
L 391.940968 131.695551 
L 391.940968 131.695551 
L 398.528926 140.699624 
L 398.528926 140.699624 
" style="fill:none;stroke:#07a9c2;stroke-linecap:square;stroke-width:3;"/>
   </g>
   <g id="line2d_14">
    <path clip-path="url(#p412099abfb)" d="M 121.834711 363.174545 
L 173.20477 363.069992 
L 179.149941 362.857467 
L 183.102715 362.49086 
L 185.737898 362.032782 
L 187.714286 361.49914 
L 187.714286 361.49914 
L 189.690673 360.720541 
L 191.008264 360.014119 
L 192.325856 359.110703 
L 193.643447 357.959476 
L 194.961039 356.499057 
L 196.27863 354.656831 
L 197.596222 352.349456 
L 198.913813 349.484848 
L 200.231405 345.966574 
L 206.160567 327.975689 
L 209.454545 319.020751 
L 212.748524 310.761626 
L 214.707217 305.854244 
L 215.366013 303.476002 
L 216.683605 297.354072 
L 218.001196 289.832318 
L 219.977583 276.858551 
L 229.08735 213.956855 
L 231.722533 197.954331 
L 234.302477 183.480955 
L 236.93766 169.864395 
L 239.572843 157.366157 
L 242.1848 146.022402 
L 244.819983 135.574123 
L 247.664699 125.355212 
L 250.299882 116.815235 
L 252.935065 109.115003 
L 255.570248 102.207186 
L 258.205431 96.046723 
L 260.840614 90.590727 
L 262.817001 86.936407 
L 264.793388 83.638868 
L 266.769776 80.68223 
L 266.769776 80.68223 
L 268.746163 78.051202 
L 270.72255 75.731056 
L 272.698937 73.70761 
L 274.675325 71.96721 
L 276.651712 70.496711 
L 278.628099 69.28346 
L 280.604486 68.31528 
L 282.580874 67.580453 
L 284.557261 67.067702 
L 286.533648 66.766181 
L 286.533648 66.766181 
L 288.510035 66.665455 
L 290.486423 66.755489 
L 292.46281 67.026633 
L 295.097993 67.653901 
L 297.733176 68.565684 
L 300.368359 69.742059 
L 303.003542 71.164136 
L 305.638725 72.814009 
L 308.932704 75.170927 
L 312.226682 77.826148 
L 315.520661 80.750551 
L 319.473436 84.57701 
L 319.473436 84.57701 
L 323.42621 88.708521 
L 328.03778 93.86099 
L 333.308146 100.117407 
L 339.237308 107.532847 
L 339.237308 107.532847 
L 346.484061 117.002374 
L 355.707202 129.476583 
L 392.599764 179.844357 
L 398.528926 187.585402 
L 398.528926 187.585402 
" style="fill:none;stroke:#e9b94e;stroke-linecap:square;stroke-width:3;"/>
   </g>
   <g id="patch_3">
    <path d="M 108 378 
L 108 51.84 
" style="fill:none;stroke:#000000;stroke-linecap:square;stroke-linejoin:miter;stroke-width:1.875;"/>
   </g>
   <g id="patch_4">
    <path d="M 412.363636 378 
L 412.363636 51.84 
" style="fill:none;stroke:#000000;stroke-linecap:square;stroke-linejoin:miter;stroke-width:1.875;"/>
   </g>
   <g id="patch_5">
    <path d="M 108 378 
L 412.363636 378 
" style="fill:none;stroke:#000000;stroke-linecap:square;stroke-linejoin:miter;stroke-width:1.875;"/>
   </g>
   <g id="patch_6">
    <path d="M 108 51.84 
L 412.363636 51.84 
" style="fill:none;stroke:#000000;stroke-linecap:square;stroke-linejoin:miter;stroke-width:1.875;"/>
   </g>
   <g id="text_14">
    <!-- University -->
    <defs>
     <path d="M 8.6875 72.90625 
L 18.609375 72.90625 
L 18.609375 28.609375 
Q 18.609375 16.890625 22.84375 11.734375 
Q 27.09375 6.59375 36.625 6.59375 
Q 46.09375 6.59375 50.34375 11.734375 
Q 54.59375 16.890625 54.59375 28.609375 
L 54.59375 72.90625 
L 64.5 72.90625 
L 64.5 27.390625 
Q 64.5 13.140625 57.4375 5.859375 
Q 50.390625 -1.421875 36.625 -1.421875 
Q 22.796875 -1.421875 15.734375 5.859375 
Q 8.6875 13.140625 8.6875 27.390625 
z
" id="DejaVuSans-85"/>
     <path d="M 9.421875 54.6875 
L 18.40625 54.6875 
L 18.40625 0 
L 9.421875 0 
z
M 9.421875 75.984375 
L 18.40625 75.984375 
L 18.40625 64.59375 
L 9.421875 64.59375 
z
" id="DejaVuSans-105"/>
     <path d="M 2.984375 54.6875 
L 12.5 54.6875 
L 29.59375 8.796875 
L 46.6875 54.6875 
L 56.203125 54.6875 
L 35.6875 0 
L 23.484375 0 
z
" id="DejaVuSans-118"/>
     <path d="M 32.171875 -5.078125 
Q 28.375 -14.84375 24.75 -17.8125 
Q 21.140625 -20.796875 15.09375 -20.796875 
L 7.90625 -20.796875 
L 7.90625 -13.28125 
L 13.1875 -13.28125 
Q 16.890625 -13.28125 18.9375 -11.515625 
Q 21 -9.765625 23.484375 -3.21875 
L 25.09375 0.875 
L 2.984375 54.6875 
L 12.5 54.6875 
L 29.59375 11.921875 
L 46.6875 54.6875 
L 56.203125 54.6875 
z
" id="DejaVuSans-121"/>
    </defs>
    <g transform="translate(214.782443 45.84)scale(0.18 -0.18)">
     <use xlink:href="#DejaVuSans-85"/>
     <use x="73.193359" xlink:href="#DejaVuSans-110"/>
     <use x="136.572266" xlink:href="#DejaVuSans-105"/>
     <use x="164.355469" xlink:href="#DejaVuSans-118"/>
     <use x="223.535156" xlink:href="#DejaVuSans-101"/>
     <use x="285.058594" xlink:href="#DejaVuSans-114"/>
     <use x="326.171875" xlink:href="#DejaVuSans-115"/>
     <use x="378.271484" xlink:href="#DejaVuSans-105"/>
     <use x="406.054688" xlink:href="#DejaVuSans-116"/>
     <use x="445.263672" xlink:href="#DejaVuSans-121"/>
    </g>
   </g>
   <g id="legend_1">
    <g id="patch_7">
     <path d="M 119.55 253.723359 
L 300.766406 253.723359 
Q 304.066406 253.723359 304.066406 250.423359 
L 304.066406 179.416641 
Q 304.066406 176.116641 300.766406 176.116641 
L 119.55 176.116641 
Q 116.25 176.116641 116.25 179.416641 
L 116.25 250.423359 
Q 116.25 253.723359 119.55 253.723359 
z
" style="fill:#ffffff;opacity:0.8;stroke:#cccccc;stroke-linejoin:miter;stroke-width:1.5;"/>
    </g>
    <g id="line2d_15">
     <path d="M 122.85 189.479062 
L 155.85 189.479062 
" style="fill:none;stroke:#352a87;stroke-linecap:square;stroke-width:3;"/>
    </g>
    <g id="line2d_16"/>
    <g id="text_15">
     <!-- class size is: 5 -->
     <defs>
      <path d="M 9.421875 75.984375 
L 18.40625 75.984375 
L 18.40625 0 
L 9.421875 0 
z
" id="DejaVuSans-108"/>
      <path d="M 34.28125 27.484375 
Q 23.390625 27.484375 19.1875 25 
Q 14.984375 22.515625 14.984375 16.5 
Q 14.984375 11.71875 18.140625 8.90625 
Q 21.296875 6.109375 26.703125 6.109375 
Q 34.1875 6.109375 38.703125 11.40625 
Q 43.21875 16.703125 43.21875 25.484375 
L 43.21875 27.484375 
z
M 52.203125 31.203125 
L 52.203125 0 
L 43.21875 0 
L 43.21875 8.296875 
Q 40.140625 3.328125 35.546875 0.953125 
Q 30.953125 -1.421875 24.3125 -1.421875 
Q 15.921875 -1.421875 10.953125 3.296875 
Q 6 8.015625 6 15.921875 
Q 6 25.140625 12.171875 29.828125 
Q 18.359375 34.515625 30.609375 34.515625 
L 43.21875 34.515625 
L 43.21875 35.40625 
Q 43.21875 41.609375 39.140625 45 
Q 35.0625 48.390625 27.6875 48.390625 
Q 23 48.390625 18.546875 47.265625 
Q 14.109375 46.140625 10.015625 43.890625 
L 10.015625 52.203125 
Q 14.9375 54.109375 19.578125 55.046875 
Q 24.21875 56 28.609375 56 
Q 40.484375 56 46.34375 49.84375 
Q 52.203125 43.703125 52.203125 31.203125 
z
" id="DejaVuSans-97"/>
      <path d="M 5.515625 54.6875 
L 48.1875 54.6875 
L 48.1875 46.484375 
L 14.40625 7.171875 
L 48.1875 7.171875 
L 48.1875 0 
L 4.296875 0 
L 4.296875 8.203125 
L 38.09375 47.515625 
L 5.515625 47.515625 
z
" id="DejaVuSans-122"/>
      <path d="M 11.71875 12.40625 
L 22.015625 12.40625 
L 22.015625 0 
L 11.71875 0 
z
M 11.71875 51.703125 
L 22.015625 51.703125 
L 22.015625 39.3125 
L 11.71875 39.3125 
z
" id="DejaVuSans-58"/>
      <path d="M 10.796875 72.90625 
L 49.515625 72.90625 
L 49.515625 64.59375 
L 19.828125 64.59375 
L 19.828125 46.734375 
Q 21.96875 47.46875 24.109375 47.828125 
Q 26.265625 48.1875 28.421875 48.1875 
Q 40.625 48.1875 47.75 41.5 
Q 54.890625 34.8125 54.890625 23.390625 
Q 54.890625 11.625 47.5625 5.09375 
Q 40.234375 -1.421875 26.90625 -1.421875 
Q 22.3125 -1.421875 17.546875 -0.640625 
Q 12.796875 0.140625 7.71875 1.703125 
L 7.71875 11.625 
Q 12.109375 9.234375 16.796875 8.0625 
Q 21.484375 6.890625 26.703125 6.890625 
Q 35.15625 6.890625 40.078125 11.328125 
Q 45.015625 15.765625 45.015625 23.390625 
Q 45.015625 31 40.078125 35.4375 
Q 35.15625 39.890625 26.703125 39.890625 
Q 22.75 39.890625 18.8125 39.015625 
Q 14.890625 38.140625 10.796875 36.28125 
z
" id="DejaVuSans-53"/>
     </defs>
     <g transform="translate(169.05 195.254062)scale(0.165 -0.165)">
      <use xlink:href="#DejaVuSans-99"/>
      <use x="54.980469" xlink:href="#DejaVuSans-108"/>
      <use x="82.763672" xlink:href="#DejaVuSans-97"/>
      <use x="144.042969" xlink:href="#DejaVuSans-115"/>
      <use x="196.142578" xlink:href="#DejaVuSans-115"/>
      <use x="248.242188" xlink:href="#DejaVuSans-32"/>
      <use x="280.029297" xlink:href="#DejaVuSans-115"/>
      <use x="332.128906" xlink:href="#DejaVuSans-105"/>
      <use x="359.912109" xlink:href="#DejaVuSans-122"/>
      <use x="412.402344" xlink:href="#DejaVuSans-101"/>
      <use x="473.925781" xlink:href="#DejaVuSans-32"/>
      <use x="505.712891" xlink:href="#DejaVuSans-105"/>
      <use x="533.496094" xlink:href="#DejaVuSans-115"/>
      <use x="585.595703" xlink:href="#DejaVuSans-58"/>
      <use x="619.287109" xlink:href="#DejaVuSans-32"/>
      <use x="651.074219" xlink:href="#DejaVuSans-53"/>
     </g>
    </g>
    <g id="line2d_17">
     <path d="M 122.85 213.697969 
L 155.85 213.697969 
" style="fill:none;stroke:#07a9c2;stroke-linecap:square;stroke-width:3;"/>
    </g>
    <g id="line2d_18"/>
    <g id="text_16">
     <!-- class size is: 15 -->
     <g transform="translate(169.05 219.472969)scale(0.165 -0.165)">
      <use xlink:href="#DejaVuSans-99"/>
      <use x="54.980469" xlink:href="#DejaVuSans-108"/>
      <use x="82.763672" xlink:href="#DejaVuSans-97"/>
      <use x="144.042969" xlink:href="#DejaVuSans-115"/>
      <use x="196.142578" xlink:href="#DejaVuSans-115"/>
      <use x="248.242188" xlink:href="#DejaVuSans-32"/>
      <use x="280.029297" xlink:href="#DejaVuSans-115"/>
      <use x="332.128906" xlink:href="#DejaVuSans-105"/>
      <use x="359.912109" xlink:href="#DejaVuSans-122"/>
      <use x="412.402344" xlink:href="#DejaVuSans-101"/>
      <use x="473.925781" xlink:href="#DejaVuSans-32"/>
      <use x="505.712891" xlink:href="#DejaVuSans-105"/>
      <use x="533.496094" xlink:href="#DejaVuSans-115"/>
      <use x="585.595703" xlink:href="#DejaVuSans-58"/>
      <use x="619.287109" xlink:href="#DejaVuSans-32"/>
      <use x="651.074219" xlink:href="#DejaVuSans-49"/>
      <use x="714.697266" xlink:href="#DejaVuSans-53"/>
     </g>
    </g>
    <g id="line2d_19">
     <path d="M 122.85 237.916875 
L 155.85 237.916875 
" style="fill:none;stroke:#e9b94e;stroke-linecap:square;stroke-width:3;"/>
    </g>
    <g id="line2d_20"/>
    <g id="text_17">
     <!-- class size is: 30 -->
     <g transform="translate(169.05 243.691875)scale(0.165 -0.165)">
      <use xlink:href="#DejaVuSans-99"/>
      <use x="54.980469" xlink:href="#DejaVuSans-108"/>
      <use x="82.763672" xlink:href="#DejaVuSans-97"/>
      <use x="144.042969" xlink:href="#DejaVuSans-115"/>
      <use x="196.142578" xlink:href="#DejaVuSans-115"/>
      <use x="248.242188" xlink:href="#DejaVuSans-32"/>
      <use x="280.029297" xlink:href="#DejaVuSans-115"/>
      <use x="332.128906" xlink:href="#DejaVuSans-105"/>
      <use x="359.912109" xlink:href="#DejaVuSans-122"/>
      <use x="412.402344" xlink:href="#DejaVuSans-101"/>
      <use x="473.925781" xlink:href="#DejaVuSans-32"/>
      <use x="505.712891" xlink:href="#DejaVuSans-105"/>
      <use x="533.496094" xlink:href="#DejaVuSans-115"/>
      <use x="585.595703" xlink:href="#DejaVuSans-58"/>
      <use x="619.287109" xlink:href="#DejaVuSans-32"/>
      <use x="651.074219" xlink:href="#DejaVuSans-51"/>
      <use x="714.697266" xlink:href="#DejaVuSans-48"/>
     </g>
    </g>
   </g>
  </g>
  <g id="axes_2">
   <g id="patch_8">
    <path d="M 473.236364 378 
L 777.6 378 
L 777.6 51.84 
L 473.236364 51.84 
z
" style="fill:#ffffff;"/>
   </g>
   <g id="matplotlib.axis_3">
    <g id="xtick_6">
     <g id="line2d_21">
      <g>
       <use style="stroke:#000000;stroke-width:1.875;" x="487.071074" xlink:href="#m64061196a3" y="378"/>
      </g>
     </g>
     <g id="text_18">
      <!-- 0 -->
      <g transform="translate(481.822012 403.037422)scale(0.165 -0.165)">
       <use xlink:href="#DejaVuSans-48"/>
      </g>
     </g>
    </g>
    <g id="xtick_7">
     <g id="line2d_22">
      <g>
       <use style="stroke:#000000;stroke-width:1.875;" x="552.950649" xlink:href="#m64061196a3" y="378"/>
      </g>
     </g>
     <g id="text_19">
      <!-- 10 -->
      <g transform="translate(542.452524 403.037422)scale(0.165 -0.165)">
       <use xlink:href="#DejaVuSans-49"/>
       <use x="63.623047" xlink:href="#DejaVuSans-48"/>
      </g>
     </g>
    </g>
    <g id="xtick_8">
     <g id="line2d_23">
      <g>
       <use style="stroke:#000000;stroke-width:1.875;" x="618.830224" xlink:href="#m64061196a3" y="378"/>
      </g>
     </g>
     <g id="text_20">
      <!-- 20 -->
      <g transform="translate(608.332099 403.037422)scale(0.165 -0.165)">
       <use xlink:href="#DejaVuSans-50"/>
       <use x="63.623047" xlink:href="#DejaVuSans-48"/>
      </g>
     </g>
    </g>
    <g id="xtick_9">
     <g id="line2d_24">
      <g>
       <use style="stroke:#000000;stroke-width:1.875;" x="684.709799" xlink:href="#m64061196a3" y="378"/>
      </g>
     </g>
     <g id="text_21">
      <!-- 30 -->
      <g transform="translate(674.211674 403.037422)scale(0.165 -0.165)">
       <use xlink:href="#DejaVuSans-51"/>
       <use x="63.623047" xlink:href="#DejaVuSans-48"/>
      </g>
     </g>
    </g>
    <g id="xtick_10">
     <g id="line2d_25">
      <g>
       <use style="stroke:#000000;stroke-width:1.875;" x="750.589374" xlink:href="#m64061196a3" y="378"/>
      </g>
     </g>
     <g id="text_22">
      <!-- 40 -->
      <g transform="translate(740.091249 403.037422)scale(0.165 -0.165)">
       <use xlink:href="#DejaVuSans-52"/>
       <use x="63.623047" xlink:href="#DejaVuSans-48"/>
      </g>
     </g>
    </g>
   </g>
   <g id="matplotlib.axis_4">
    <g id="ytick_7">
     <g id="line2d_26">
      <g>
       <use style="stroke:#000000;stroke-width:1.875;" x="473.236364" xlink:href="#m678abc5e2a" y="363.179661"/>
      </g>
     </g>
     <g id="text_23">
      <!-- 0 -->
      <g transform="translate(450.238239 369.448372)scale(0.165 -0.165)">
       <use xlink:href="#DejaVuSans-48"/>
      </g>
     </g>
    </g>
    <g id="ytick_8">
     <g id="line2d_27">
      <g>
       <use style="stroke:#000000;stroke-width:1.875;" x="473.236364" xlink:href="#m678abc5e2a" y="298.51875"/>
      </g>
     </g>
     <g id="text_24">
      <!-- 1 -->
      <g transform="translate(450.238239 304.787461)scale(0.165 -0.165)">
       <use xlink:href="#DejaVuSans-49"/>
      </g>
     </g>
    </g>
    <g id="ytick_9">
     <g id="line2d_28">
      <g>
       <use style="stroke:#000000;stroke-width:1.875;" x="473.236364" xlink:href="#m678abc5e2a" y="233.857839"/>
      </g>
     </g>
     <g id="text_25">
      <!-- 2 -->
      <g transform="translate(450.238239 240.12655)scale(0.165 -0.165)">
       <use xlink:href="#DejaVuSans-50"/>
      </g>
     </g>
    </g>
    <g id="ytick_10">
     <g id="line2d_29">
      <g>
       <use style="stroke:#000000;stroke-width:1.875;" x="473.236364" xlink:href="#m678abc5e2a" y="169.196928"/>
      </g>
     </g>
     <g id="text_26">
      <!-- 3 -->
      <g transform="translate(450.238239 175.465639)scale(0.165 -0.165)">
       <use xlink:href="#DejaVuSans-51"/>
      </g>
     </g>
    </g>
    <g id="ytick_11">
     <g id="line2d_30">
      <g>
       <use style="stroke:#000000;stroke-width:1.875;" x="473.236364" xlink:href="#m678abc5e2a" y="104.536017"/>
      </g>
     </g>
     <g id="text_27">
      <!-- 4 -->
      <g transform="translate(450.238239 110.804728)scale(0.165 -0.165)">
       <use xlink:href="#DejaVuSans-52"/>
      </g>
     </g>
    </g>
    <g id="text_28">
     <!-- 1e4 -->
     <g transform="translate(473.236364 48.84)scale(0.165 -0.165)">
      <use xlink:href="#DejaVuSans-49"/>
      <use x="63.623047" xlink:href="#DejaVuSans-101"/>
      <use x="125.146484" xlink:href="#DejaVuSans-52"/>
     </g>
    </g>
   </g>
   <g id="line2d_31">
    <path clip-path="url(#peeacedcdc7)" d="M 487.071074 363.173195 
L 612.901063 363.077205 
L 639.252893 362.815885 
L 650.45242 362.46424 
L 658.357969 362.004057 
L 658.357969 362.004057 
L 674.169067 360.727948 
L 678.780638 360.108387 
L 682.733412 359.378501 
L 686.686187 358.429997 
L 689.980165 357.440005 
L 693.274144 356.234461 
L 696.568123 354.776455 
L 699.203306 353.400742 
L 701.838489 351.814996 
L 704.473672 349.996538 
L 704.473672 349.996538 
L 713.696812 343.071864 
L 718.308383 339.387144 
L 720.28477 337.566299 
L 722.261157 335.497224 
L 724.89634 332.372888 
L 727.531523 328.853872 
L 730.166706 324.964589 
L 732.801889 320.730225 
L 736.095868 314.993012 
L 739.389847 308.814884 
L 743.342621 300.900978 
L 747.954191 291.09992 
L 753.883353 277.864513 
L 761.788902 259.705798 
L 763.765289 255.079518 
L 763.765289 255.079518 
" style="fill:none;stroke:#352a87;stroke-linecap:square;stroke-width:3;"/>
   </g>
   <g id="line2d_32">
    <path clip-path="url(#peeacedcdc7)" d="M 487.071074 363.173195 
L 562.832586 363.07023 
L 579.961275 362.714212 
L 584.572845 362.491908 
L 588.52562 362.111711 
L 591.819599 361.595938 
L 594.454782 360.99597 
L 597.089965 360.168568 
L 599.066352 359.356625 
L 599.066352 359.356625 
L 601.042739 358.343097 
L 603.019126 357.092071 
L 604.995514 355.568479 
L 606.971901 353.742034 
L 608.948288 351.591848 
L 610.924675 349.111162 
L 614.218654 344.442782 
L 626.076978 327.372693 
L 628.053365 323.983039 
L 630.688548 318.905149 
L 634.638178 310.691293 
L 640.513725 297.879006 
L 647.067291 283.01862 
L 653.633035 267.515902 
L 660.334357 251.09913 
L 668.898701 229.478686 
L 688.003778 181.00299 
L 694.591736 165.042748 
L 699.862102 152.819051 
L 704.473672 142.609861 
L 704.473672 142.609861 
L 709.085242 132.919348 
L 713.038017 125.066583 
L 716.990791 117.662715 
L 720.943566 110.731762 
L 724.89634 104.293216 
L 728.190319 99.314917 
L 731.484298 94.695589 
L 734.778276 90.439743 
L 738.072255 86.550024 
L 741.366234 83.02732 
L 744.660213 79.87087 
L 747.954191 77.078382 
L 750.589374 75.104 
L 750.589374 75.104 
L 753.224557 73.357714 
L 755.85974 71.836538 
L 758.494923 70.537037 
L 761.130106 69.455367 
L 763.765289 68.587308 
L 763.765289 68.587308 
" style="fill:none;stroke:#07a9c2;stroke-linecap:square;stroke-width:3;"/>
   </g>
   <g id="line2d_33">
    <path clip-path="url(#peeacedcdc7)" d="M 487.071074 363.173195 
L 545.703896 363.07862 
L 551.633058 362.875374 
L 555.585832 362.535646 
L 558.221015 362.120115 
L 560.197403 361.646904 
L 562.17379 360.975986 
L 564.150177 360.040209 
L 566.126564 358.763787 
L 566.126564 358.763787 
L 572.714522 354.013305 
L 572.714522 354.013305 
L 579.943581 348.785298 
L 581.261173 347.327106 
L 582.578764 345.475327 
L 584.555151 342.172631 
L 587.185152 337.195456 
L 592.478394 326.499238 
L 592.478394 326.499238 
L 601.515228 307.802769 
L 607.421164 295.09647 
L 612.901063 282.800223 
L 618.830224 268.916055 
L 618.830224 268.916055 
L 625.418182 252.847307 
L 625.418182 252.847307 
L 633.323731 232.898259 
L 655.722786 175.91187 
L 661.651948 161.623877 
L 666.922314 149.478721 
L 671.533884 139.364548 
L 671.533884 139.364548 
L 676.145455 129.791651 
L 680.098229 122.055986 
L 684.051004 114.782602 
L 688.003778 107.993872 
L 691.956553 101.707605 
L 695.250531 96.862673 
L 698.54451 92.381572 
L 701.838489 88.26788 
L 705.132468 84.523345 
L 708.426446 81.147996 
L 711.720425 78.14026 
L 715.014404 75.497081 
L 717.649587 73.642095 
L 717.649587 73.642095 
L 720.28477 72.01479 
L 722.919953 70.611861 
L 725.555136 69.429579 
L 728.190319 68.463825 
L 730.825502 67.710128 
L 730.825502 67.710128 
L 733.460685 67.163704 
L 736.095868 66.819486 
L 738.731051 66.672163 
L 741.366234 66.716212 
L 744.001417 66.945927 
L 744.001417 66.945927 
L 747.295396 67.485222 
L 750.589374 68.293742 
L 750.589374 68.293742 
L 753.883353 69.35955 
L 757.177332 70.670557 
L 757.177332 70.670557 
L 760.471311 72.214589 
L 763.765289 73.97945 
L 763.765289 73.97945 
" style="fill:none;stroke:#e9b94e;stroke-linecap:square;stroke-width:3;"/>
   </g>
   <g id="patch_9">
    <path d="M 473.236364 378 
L 473.236364 51.84 
" style="fill:none;stroke:#000000;stroke-linecap:square;stroke-linejoin:miter;stroke-width:1.875;"/>
   </g>
   <g id="patch_10">
    <path d="M 777.6 378 
L 777.6 51.84 
" style="fill:none;stroke:#000000;stroke-linecap:square;stroke-linejoin:miter;stroke-width:1.875;"/>
   </g>
   <g id="patch_11">
    <path d="M 473.236364 378 
L 777.6 378 
" style="fill:none;stroke:#000000;stroke-linecap:square;stroke-linejoin:miter;stroke-width:1.875;"/>
   </g>
   <g id="patch_12">
    <path d="M 473.236364 51.84 
L 777.6 51.84 
" style="fill:none;stroke:#000000;stroke-linecap:square;stroke-linejoin:miter;stroke-width:1.875;"/>
   </g>
   <g id="text_29">
    <!-- City -->
    <defs>
     <path d="M 64.40625 67.28125 
L 64.40625 56.890625 
Q 59.421875 61.53125 53.78125 63.8125 
Q 48.140625 66.109375 41.796875 66.109375 
Q 29.296875 66.109375 22.65625 58.46875 
Q 16.015625 50.828125 16.015625 36.375 
Q 16.015625 21.96875 22.65625 14.328125 
Q 29.296875 6.6875 41.796875 6.6875 
Q 48.140625 6.6875 53.78125 8.984375 
Q 59.421875 11.28125 64.40625 15.921875 
L 64.40625 5.609375 
Q 59.234375 2.09375 53.4375 0.328125 
Q 47.65625 -1.421875 41.21875 -1.421875 
Q 24.65625 -1.421875 15.125 8.703125 
Q 5.609375 18.84375 5.609375 36.375 
Q 5.609375 53.953125 15.125 64.078125 
Q 24.65625 74.21875 41.21875 74.21875 
Q 47.75 74.21875 53.53125 72.484375 
Q 59.328125 70.75 64.40625 67.28125 
z
" id="DejaVuSans-67"/>
    </defs>
    <g transform="translate(607.778182 45.84)scale(0.18 -0.18)">
     <use xlink:href="#DejaVuSans-67"/>
     <use x="69.824219" xlink:href="#DejaVuSans-105"/>
     <use x="97.607422" xlink:href="#DejaVuSans-116"/>
     <use x="136.816406" xlink:href="#DejaVuSans-121"/>
    </g>
   </g>
   <g id="legend_2">
    <g id="patch_13">
     <path d="M 484.786364 137.696719 
L 666.00277 137.696719 
Q 669.30277 137.696719 669.30277 134.396719 
L 669.30277 63.39 
Q 669.30277 60.09 666.00277 60.09 
L 484.786364 60.09 
Q 481.486364 60.09 481.486364 63.39 
L 481.486364 134.396719 
Q 481.486364 137.696719 484.786364 137.696719 
z
" style="fill:#ffffff;opacity:0.8;stroke:#cccccc;stroke-linejoin:miter;stroke-width:1.5;"/>
    </g>
    <g id="line2d_34">
     <path d="M 488.086364 73.452422 
L 521.086364 73.452422 
" style="fill:none;stroke:#352a87;stroke-linecap:square;stroke-width:3;"/>
    </g>
    <g id="line2d_35"/>
    <g id="text_30">
     <!-- class size is: 5 -->
     <g transform="translate(534.286364 79.227422)scale(0.165 -0.165)">
      <use xlink:href="#DejaVuSans-99"/>
      <use x="54.980469" xlink:href="#DejaVuSans-108"/>
      <use x="82.763672" xlink:href="#DejaVuSans-97"/>
      <use x="144.042969" xlink:href="#DejaVuSans-115"/>
      <use x="196.142578" xlink:href="#DejaVuSans-115"/>
      <use x="248.242188" xlink:href="#DejaVuSans-32"/>
      <use x="280.029297" xlink:href="#DejaVuSans-115"/>
      <use x="332.128906" xlink:href="#DejaVuSans-105"/>
      <use x="359.912109" xlink:href="#DejaVuSans-122"/>
      <use x="412.402344" xlink:href="#DejaVuSans-101"/>
      <use x="473.925781" xlink:href="#DejaVuSans-32"/>
      <use x="505.712891" xlink:href="#DejaVuSans-105"/>
      <use x="533.496094" xlink:href="#DejaVuSans-115"/>
      <use x="585.595703" xlink:href="#DejaVuSans-58"/>
      <use x="619.287109" xlink:href="#DejaVuSans-32"/>
      <use x="651.074219" xlink:href="#DejaVuSans-53"/>
     </g>
    </g>
    <g id="line2d_36">
     <path d="M 488.086364 97.671328 
L 521.086364 97.671328 
" style="fill:none;stroke:#07a9c2;stroke-linecap:square;stroke-width:3;"/>
    </g>
    <g id="line2d_37"/>
    <g id="text_31">
     <!-- class size is: 15 -->
     <g transform="translate(534.286364 103.446328)scale(0.165 -0.165)">
      <use xlink:href="#DejaVuSans-99"/>
      <use x="54.980469" xlink:href="#DejaVuSans-108"/>
      <use x="82.763672" xlink:href="#DejaVuSans-97"/>
      <use x="144.042969" xlink:href="#DejaVuSans-115"/>
      <use x="196.142578" xlink:href="#DejaVuSans-115"/>
      <use x="248.242188" xlink:href="#DejaVuSans-32"/>
      <use x="280.029297" xlink:href="#DejaVuSans-115"/>
      <use x="332.128906" xlink:href="#DejaVuSans-105"/>
      <use x="359.912109" xlink:href="#DejaVuSans-122"/>
      <use x="412.402344" xlink:href="#DejaVuSans-101"/>
      <use x="473.925781" xlink:href="#DejaVuSans-32"/>
      <use x="505.712891" xlink:href="#DejaVuSans-105"/>
      <use x="533.496094" xlink:href="#DejaVuSans-115"/>
      <use x="585.595703" xlink:href="#DejaVuSans-58"/>
      <use x="619.287109" xlink:href="#DejaVuSans-32"/>
      <use x="651.074219" xlink:href="#DejaVuSans-49"/>
      <use x="714.697266" xlink:href="#DejaVuSans-53"/>
     </g>
    </g>
    <g id="line2d_38">
     <path d="M 488.086364 121.890234 
L 521.086364 121.890234 
" style="fill:none;stroke:#e9b94e;stroke-linecap:square;stroke-width:3;"/>
    </g>
    <g id="line2d_39"/>
    <g id="text_32">
     <!-- class size is: 30 -->
     <g transform="translate(534.286364 127.665234)scale(0.165 -0.165)">
      <use xlink:href="#DejaVuSans-99"/>
      <use x="54.980469" xlink:href="#DejaVuSans-108"/>
      <use x="82.763672" xlink:href="#DejaVuSans-97"/>
      <use x="144.042969" xlink:href="#DejaVuSans-115"/>
      <use x="196.142578" xlink:href="#DejaVuSans-115"/>
      <use x="248.242188" xlink:href="#DejaVuSans-32"/>
      <use x="280.029297" xlink:href="#DejaVuSans-115"/>
      <use x="332.128906" xlink:href="#DejaVuSans-105"/>
      <use x="359.912109" xlink:href="#DejaVuSans-122"/>
      <use x="412.402344" xlink:href="#DejaVuSans-101"/>
      <use x="473.925781" xlink:href="#DejaVuSans-32"/>
      <use x="505.712891" xlink:href="#DejaVuSans-105"/>
      <use x="533.496094" xlink:href="#DejaVuSans-115"/>
      <use x="585.595703" xlink:href="#DejaVuSans-58"/>
      <use x="619.287109" xlink:href="#DejaVuSans-32"/>
      <use x="651.074219" xlink:href="#DejaVuSans-51"/>
      <use x="714.697266" xlink:href="#DejaVuSans-48"/>
     </g>
    </g>
   </g>
  </g>
  <g id="axes_3">
   <g id="matplotlib.axis_5">
    <g id="xtick_11">
     <g id="text_33">
      <!-- 0.0 -->
      <g style="opacity:0;" transform="translate(94.879922 403.037422)scale(0.165 -0.165)">
       <use xlink:href="#DejaVuSans-48"/>
       <use x="63.623047" xlink:href="#DejaVuSans-46"/>
       <use x="95.410156" xlink:href="#DejaVuSans-48"/>
      </g>
     </g>
    </g>
    <g id="xtick_12">
     <g id="text_34">
      <!-- 0.2 -->
      <g style="opacity:0;" transform="translate(228.799922 403.037422)scale(0.165 -0.165)">
       <use xlink:href="#DejaVuSans-48"/>
       <use x="63.623047" xlink:href="#DejaVuSans-46"/>
       <use x="95.410156" xlink:href="#DejaVuSans-50"/>
      </g>
     </g>
    </g>
    <g id="xtick_13">
     <g id="text_35">
      <!-- 0.4 -->
      <g style="opacity:0;" transform="translate(362.719922 403.037422)scale(0.165 -0.165)">
       <use xlink:href="#DejaVuSans-48"/>
       <use x="63.623047" xlink:href="#DejaVuSans-46"/>
       <use x="95.410156" xlink:href="#DejaVuSans-52"/>
      </g>
     </g>
    </g>
    <g id="xtick_14">
     <g id="text_36">
      <!-- 0.6 -->
      <g style="opacity:0;" transform="translate(496.639922 403.037422)scale(0.165 -0.165)">
       <use xlink:href="#DejaVuSans-48"/>
       <use x="63.623047" xlink:href="#DejaVuSans-46"/>
       <use x="95.410156" xlink:href="#DejaVuSans-54"/>
      </g>
     </g>
    </g>
    <g id="xtick_15">
     <g id="text_37">
      <!-- 0.8 -->
      <g style="opacity:0;" transform="translate(630.559922 403.037422)scale(0.165 -0.165)">
       <use xlink:href="#DejaVuSans-48"/>
       <use x="63.623047" xlink:href="#DejaVuSans-46"/>
       <use x="95.410156" xlink:href="#DejaVuSans-56"/>
      </g>
     </g>
    </g>
    <g id="xtick_16">
     <g id="text_38">
      <!-- 1.0 -->
      <g style="opacity:0;" transform="translate(764.479922 403.037422)scale(0.165 -0.165)">
       <use xlink:href="#DejaVuSans-49"/>
       <use x="63.623047" xlink:href="#DejaVuSans-46"/>
       <use x="95.410156" xlink:href="#DejaVuSans-48"/>
      </g>
     </g>
    </g>
    <g id="text_39">
     <!-- Day -->
     <defs>
      <path d="M 19.671875 64.796875 
L 19.671875 8.109375 
L 31.59375 8.109375 
Q 46.6875 8.109375 53.6875 14.9375 
Q 60.6875 21.78125 60.6875 36.53125 
Q 60.6875 51.171875 53.6875 57.984375 
Q 46.6875 64.796875 31.59375 64.796875 
z
M 9.8125 72.90625 
L 30.078125 72.90625 
Q 51.265625 72.90625 61.171875 64.09375 
Q 71.09375 55.28125 71.09375 36.53125 
Q 71.09375 17.671875 61.125 8.828125 
Q 51.171875 0 30.078125 0 
L 9.8125 0 
z
" id="DejaVuSans-68"/>
     </defs>
     <g transform="translate(425.027813 424.146094)scale(0.18 -0.18)">
      <use xlink:href="#DejaVuSans-68"/>
      <use x="77.001953" xlink:href="#DejaVuSans-97"/>
      <use x="138.28125" xlink:href="#DejaVuSans-121"/>
     </g>
    </g>
   </g>
   <g id="matplotlib.axis_6">
    <g id="ytick_12">
     <g id="text_40">
      <!-- 0.0 -->
      <g style="opacity:0;" transform="translate(69.259844 384.268711)scale(0.165 -0.165)">
       <use xlink:href="#DejaVuSans-48"/>
       <use x="63.623047" xlink:href="#DejaVuSans-46"/>
       <use x="95.410156" xlink:href="#DejaVuSans-48"/>
      </g>
     </g>
    </g>
    <g id="ytick_13">
     <g id="text_41">
      <!-- 0.2 -->
      <g style="opacity:0;" transform="translate(69.259844 319.036711)scale(0.165 -0.165)">
       <use xlink:href="#DejaVuSans-48"/>
       <use x="63.623047" xlink:href="#DejaVuSans-46"/>
       <use x="95.410156" xlink:href="#DejaVuSans-50"/>
      </g>
     </g>
    </g>
    <g id="ytick_14">
     <g id="text_42">
      <!-- 0.4 -->
      <g style="opacity:0;" transform="translate(69.259844 253.804711)scale(0.165 -0.165)">
       <use xlink:href="#DejaVuSans-48"/>
       <use x="63.623047" xlink:href="#DejaVuSans-46"/>
       <use x="95.410156" xlink:href="#DejaVuSans-52"/>
      </g>
     </g>
    </g>
    <g id="ytick_15">
     <g id="text_43">
      <!-- 0.6 -->
      <g style="opacity:0;" transform="translate(69.259844 188.572711)scale(0.165 -0.165)">
       <use xlink:href="#DejaVuSans-48"/>
       <use x="63.623047" xlink:href="#DejaVuSans-46"/>
       <use x="95.410156" xlink:href="#DejaVuSans-54"/>
      </g>
     </g>
    </g>
    <g id="ytick_16">
     <g id="text_44">
      <!-- 0.8 -->
      <g style="opacity:0;" transform="translate(69.259844 123.340711)scale(0.165 -0.165)">
       <use xlink:href="#DejaVuSans-48"/>
       <use x="63.623047" xlink:href="#DejaVuSans-46"/>
       <use x="95.410156" xlink:href="#DejaVuSans-56"/>
      </g>
     </g>
    </g>
    <g id="ytick_17">
     <g id="text_45">
      <!-- 1.0 -->
      <g style="opacity:0;" transform="translate(69.259844 58.108711)scale(0.165 -0.165)">
       <use xlink:href="#DejaVuSans-49"/>
       <use x="63.623047" xlink:href="#DejaVuSans-46"/>
       <use x="95.410156" xlink:href="#DejaVuSans-48"/>
      </g>
     </g>
    </g>
   </g>
  </g>
 </g>
 <defs>
  <clipPath id="p412099abfb">
   <rect height="326.16" width="304.363636" x="108" y="51.84"/>
  </clipPath>
  <clipPath id="peeacedcdc7">
   <rect height="326.16" width="304.363636" x="473.236364" y="51.84"/>
  </clipPath>
 </defs>
</svg>
